G04 #@! TF.GenerationSoftware,KiCad,Pcbnew,(6.0.0)*
G04 #@! TF.CreationDate,2022-07-23T10:41:13+02:00*
G04 #@! TF.ProjectId,aliasing,616c6961-7369-46e6-972e-6b696361645f,rev?*
G04 #@! TF.SameCoordinates,Original*
G04 #@! TF.FileFunction,Legend,Top*
G04 #@! TF.FilePolarity,Positive*
%FSLAX46Y46*%
G04 Gerber Fmt 4.6, Leading zero omitted, Abs format (unit mm)*
G04 Created by KiCad (PCBNEW (6.0.0)) date 2022-07-23 10:41:13*
%MOMM*%
%LPD*%
G01*
G04 APERTURE LIST*
%ADD10C,0.150000*%
%ADD11C,0.120000*%
%ADD12C,0.381000*%
%ADD13C,0.099060*%
%ADD14C,1.998980*%
%ADD15C,2.499360*%
%ADD16R,1.600000X0.800000*%
%ADD17C,0.610000*%
%ADD18R,3.250000X1.500000*%
%ADD19R,1.778000X1.016000*%
%ADD20R,1.016000X1.778000*%
%ADD21C,5.700000*%
G04 APERTURE END LIST*
D10*
X178761904Y-74452380D02*
X179333333Y-74452380D01*
X179047619Y-75452380D02*
X179047619Y-74452380D01*
X179571428Y-74452380D02*
X180238095Y-75452380D01*
X180238095Y-74452380D02*
X179571428Y-75452380D01*
X181142857Y-75452380D02*
X180571428Y-75452380D01*
X180857142Y-75452380D02*
X180857142Y-74452380D01*
X180761904Y-74595238D01*
X180666666Y-74690476D01*
X180571428Y-74738095D01*
X157833333Y-56452380D02*
X157500000Y-55976190D01*
X157261904Y-56452380D02*
X157261904Y-55452380D01*
X157642857Y-55452380D01*
X157738095Y-55500000D01*
X157785714Y-55547619D01*
X157833333Y-55642857D01*
X157833333Y-55785714D01*
X157785714Y-55880952D01*
X157738095Y-55928571D01*
X157642857Y-55976190D01*
X157261904Y-55976190D01*
X158738095Y-56452380D02*
X158261904Y-56452380D01*
X158261904Y-55452380D01*
X159071428Y-56452380D02*
X159071428Y-55452380D01*
X159452380Y-55452380D01*
X159547619Y-55500000D01*
X159595238Y-55547619D01*
X159642857Y-55642857D01*
X159642857Y-55785714D01*
X159595238Y-55880952D01*
X159547619Y-55928571D01*
X159452380Y-55976190D01*
X159071428Y-55976190D01*
X160071428Y-56071428D02*
X160833333Y-56071428D01*
X161785714Y-55452380D02*
X161309523Y-55452380D01*
X161261904Y-55928571D01*
X161309523Y-55880952D01*
X161404761Y-55833333D01*
X161642857Y-55833333D01*
X161738095Y-55880952D01*
X161785714Y-55928571D01*
X161833333Y-56023809D01*
X161833333Y-56261904D01*
X161785714Y-56357142D01*
X161738095Y-56404761D01*
X161642857Y-56452380D01*
X161404761Y-56452380D01*
X161309523Y-56404761D01*
X161261904Y-56357142D01*
X162452380Y-55452380D02*
X162547619Y-55452380D01*
X162642857Y-55500000D01*
X162690476Y-55547619D01*
X162738095Y-55642857D01*
X162785714Y-55833333D01*
X162785714Y-56071428D01*
X162738095Y-56261904D01*
X162690476Y-56357142D01*
X162642857Y-56404761D01*
X162547619Y-56452380D01*
X162452380Y-56452380D01*
X162357142Y-56404761D01*
X162309523Y-56357142D01*
X162261904Y-56261904D01*
X162214285Y-56071428D01*
X162214285Y-55833333D01*
X162261904Y-55642857D01*
X162309523Y-55547619D01*
X162357142Y-55500000D01*
X162452380Y-55452380D01*
X157523809Y-38552142D02*
X157476190Y-38599761D01*
X157333333Y-38647380D01*
X157238095Y-38647380D01*
X157095238Y-38599761D01*
X157000000Y-38504523D01*
X156952380Y-38409285D01*
X156904761Y-38218809D01*
X156904761Y-38075952D01*
X156952380Y-37885476D01*
X157000000Y-37790238D01*
X157095238Y-37695000D01*
X157238095Y-37647380D01*
X157333333Y-37647380D01*
X157476190Y-37695000D01*
X157523809Y-37742619D01*
X158333333Y-38599761D02*
X158238095Y-38647380D01*
X158047619Y-38647380D01*
X157952380Y-38599761D01*
X157904761Y-38504523D01*
X157904761Y-38123571D01*
X157952380Y-38028333D01*
X158047619Y-37980714D01*
X158238095Y-37980714D01*
X158333333Y-38028333D01*
X158380952Y-38123571D01*
X158380952Y-38218809D01*
X157904761Y-38314047D01*
X158809523Y-38647380D02*
X158809523Y-37980714D01*
X158809523Y-38171190D02*
X158857142Y-38075952D01*
X158904761Y-38028333D01*
X159000000Y-37980714D01*
X159095238Y-37980714D01*
X159428571Y-38647380D02*
X159428571Y-37647380D01*
X159428571Y-38028333D02*
X159523809Y-37980714D01*
X159714285Y-37980714D01*
X159809523Y-38028333D01*
X159857142Y-38075952D01*
X159904761Y-38171190D01*
X159904761Y-38456904D01*
X159857142Y-38552142D01*
X159809523Y-38599761D01*
X159714285Y-38647380D01*
X159523809Y-38647380D01*
X159428571Y-38599761D01*
X160714285Y-38599761D02*
X160619047Y-38647380D01*
X160428571Y-38647380D01*
X160333333Y-38599761D01*
X160285714Y-38504523D01*
X160285714Y-38123571D01*
X160333333Y-38028333D01*
X160428571Y-37980714D01*
X160619047Y-37980714D01*
X160714285Y-38028333D01*
X160761904Y-38123571D01*
X160761904Y-38218809D01*
X160285714Y-38314047D01*
X161190476Y-38647380D02*
X161190476Y-37980714D01*
X161190476Y-38171190D02*
X161238095Y-38075952D01*
X161285714Y-38028333D01*
X161380952Y-37980714D01*
X161476190Y-37980714D01*
X162238095Y-37980714D02*
X162238095Y-38647380D01*
X161809523Y-37980714D02*
X161809523Y-38504523D01*
X161857142Y-38599761D01*
X161952380Y-38647380D01*
X162095238Y-38647380D01*
X162190476Y-38599761D01*
X162238095Y-38552142D01*
X162666666Y-38599761D02*
X162761904Y-38647380D01*
X162952380Y-38647380D01*
X163047619Y-38599761D01*
X163095238Y-38504523D01*
X163095238Y-38456904D01*
X163047619Y-38361666D01*
X162952380Y-38314047D01*
X162809523Y-38314047D01*
X162714285Y-38266428D01*
X162666666Y-38171190D01*
X162666666Y-38123571D01*
X162714285Y-38028333D01*
X162809523Y-37980714D01*
X162952380Y-37980714D01*
X163047619Y-38028333D01*
X150928571Y-39257380D02*
X150452380Y-39257380D01*
X150404761Y-39733571D01*
X150452380Y-39685952D01*
X150547619Y-39638333D01*
X150785714Y-39638333D01*
X150880952Y-39685952D01*
X150928571Y-39733571D01*
X150976190Y-39828809D01*
X150976190Y-40066904D01*
X150928571Y-40162142D01*
X150880952Y-40209761D01*
X150785714Y-40257380D01*
X150547619Y-40257380D01*
X150452380Y-40209761D01*
X150404761Y-40162142D01*
X151357142Y-39352619D02*
X151404761Y-39305000D01*
X151500000Y-39257380D01*
X151738095Y-39257380D01*
X151833333Y-39305000D01*
X151880952Y-39352619D01*
X151928571Y-39447857D01*
X151928571Y-39543095D01*
X151880952Y-39685952D01*
X151309523Y-40257380D01*
X151928571Y-40257380D01*
X153119047Y-40257380D02*
X153119047Y-39257380D01*
X153452380Y-39971666D01*
X153785714Y-39257380D01*
X153785714Y-40257380D01*
X154261904Y-40257380D02*
X154261904Y-39257380D01*
X154261904Y-39733571D02*
X154833333Y-39733571D01*
X154833333Y-40257380D02*
X154833333Y-39257380D01*
X155214285Y-39590714D02*
X155738095Y-39590714D01*
X155214285Y-40257380D01*
X155738095Y-40257380D01*
X157309523Y-40257380D02*
X157309523Y-39733571D01*
X157261904Y-39638333D01*
X157166666Y-39590714D01*
X156976190Y-39590714D01*
X156880952Y-39638333D01*
X157309523Y-40209761D02*
X157214285Y-40257380D01*
X156976190Y-40257380D01*
X156880952Y-40209761D01*
X156833333Y-40114523D01*
X156833333Y-40019285D01*
X156880952Y-39924047D01*
X156976190Y-39876428D01*
X157214285Y-39876428D01*
X157309523Y-39828809D01*
X157785714Y-39590714D02*
X157785714Y-40257380D01*
X157785714Y-39685952D02*
X157833333Y-39638333D01*
X157928571Y-39590714D01*
X158071428Y-39590714D01*
X158166666Y-39638333D01*
X158214285Y-39733571D01*
X158214285Y-40257380D01*
X158547619Y-39590714D02*
X158928571Y-39590714D01*
X158690476Y-39257380D02*
X158690476Y-40114523D01*
X158738095Y-40209761D01*
X158833333Y-40257380D01*
X158928571Y-40257380D01*
X159261904Y-40257380D02*
X159261904Y-39590714D01*
X159261904Y-39257380D02*
X159214285Y-39305000D01*
X159261904Y-39352619D01*
X159309523Y-39305000D01*
X159261904Y-39257380D01*
X159261904Y-39352619D01*
X160166666Y-40257380D02*
X160166666Y-39733571D01*
X160119047Y-39638333D01*
X160023809Y-39590714D01*
X159833333Y-39590714D01*
X159738095Y-39638333D01*
X160166666Y-40209761D02*
X160071428Y-40257380D01*
X159833333Y-40257380D01*
X159738095Y-40209761D01*
X159690476Y-40114523D01*
X159690476Y-40019285D01*
X159738095Y-39924047D01*
X159833333Y-39876428D01*
X160071428Y-39876428D01*
X160166666Y-39828809D01*
X160785714Y-40257380D02*
X160690476Y-40209761D01*
X160642857Y-40114523D01*
X160642857Y-39257380D01*
X161166666Y-40257380D02*
X161166666Y-39590714D01*
X161166666Y-39257380D02*
X161119047Y-39305000D01*
X161166666Y-39352619D01*
X161214285Y-39305000D01*
X161166666Y-39257380D01*
X161166666Y-39352619D01*
X162071428Y-40257380D02*
X162071428Y-39733571D01*
X162023809Y-39638333D01*
X161928571Y-39590714D01*
X161738095Y-39590714D01*
X161642857Y-39638333D01*
X162071428Y-40209761D02*
X161976190Y-40257380D01*
X161738095Y-40257380D01*
X161642857Y-40209761D01*
X161595238Y-40114523D01*
X161595238Y-40019285D01*
X161642857Y-39924047D01*
X161738095Y-39876428D01*
X161976190Y-39876428D01*
X162071428Y-39828809D01*
X162500000Y-40209761D02*
X162595238Y-40257380D01*
X162785714Y-40257380D01*
X162880952Y-40209761D01*
X162928571Y-40114523D01*
X162928571Y-40066904D01*
X162880952Y-39971666D01*
X162785714Y-39924047D01*
X162642857Y-39924047D01*
X162547619Y-39876428D01*
X162500000Y-39781190D01*
X162500000Y-39733571D01*
X162547619Y-39638333D01*
X162642857Y-39590714D01*
X162785714Y-39590714D01*
X162880952Y-39638333D01*
X163357142Y-40257380D02*
X163357142Y-39590714D01*
X163357142Y-39257380D02*
X163309523Y-39305000D01*
X163357142Y-39352619D01*
X163404761Y-39305000D01*
X163357142Y-39257380D01*
X163357142Y-39352619D01*
X163833333Y-39590714D02*
X163833333Y-40257380D01*
X163833333Y-39685952D02*
X163880952Y-39638333D01*
X163976190Y-39590714D01*
X164119047Y-39590714D01*
X164214285Y-39638333D01*
X164261904Y-39733571D01*
X164261904Y-40257380D01*
X165166666Y-39590714D02*
X165166666Y-40400238D01*
X165119047Y-40495476D01*
X165071428Y-40543095D01*
X164976190Y-40590714D01*
X164833333Y-40590714D01*
X164738095Y-40543095D01*
X165166666Y-40209761D02*
X165071428Y-40257380D01*
X164880952Y-40257380D01*
X164785714Y-40209761D01*
X164738095Y-40162142D01*
X164690476Y-40066904D01*
X164690476Y-39781190D01*
X164738095Y-39685952D01*
X164785714Y-39638333D01*
X164880952Y-39590714D01*
X165071428Y-39590714D01*
X165166666Y-39638333D01*
X166261904Y-39590714D02*
X166642857Y-39590714D01*
X166404761Y-40257380D02*
X166404761Y-39400238D01*
X166452380Y-39305000D01*
X166547619Y-39257380D01*
X166642857Y-39257380D01*
X166976190Y-40257380D02*
X166976190Y-39590714D01*
X166976190Y-39257380D02*
X166928571Y-39305000D01*
X166976190Y-39352619D01*
X167023809Y-39305000D01*
X166976190Y-39257380D01*
X166976190Y-39352619D01*
X167595238Y-40257380D02*
X167500000Y-40209761D01*
X167452380Y-40114523D01*
X167452380Y-39257380D01*
X167833333Y-39590714D02*
X168214285Y-39590714D01*
X167976190Y-39257380D02*
X167976190Y-40114523D01*
X168023809Y-40209761D01*
X168119047Y-40257380D01*
X168214285Y-40257380D01*
X168928571Y-40209761D02*
X168833333Y-40257380D01*
X168642857Y-40257380D01*
X168547619Y-40209761D01*
X168500000Y-40114523D01*
X168500000Y-39733571D01*
X168547619Y-39638333D01*
X168642857Y-39590714D01*
X168833333Y-39590714D01*
X168928571Y-39638333D01*
X168976190Y-39733571D01*
X168976190Y-39828809D01*
X168500000Y-39924047D01*
X169404761Y-40257380D02*
X169404761Y-39590714D01*
X169404761Y-39781190D02*
X169452380Y-39685952D01*
X169500000Y-39638333D01*
X169595238Y-39590714D01*
X169690476Y-39590714D01*
X179357142Y-46452380D02*
X179023809Y-45976190D01*
X178785714Y-46452380D02*
X178785714Y-45452380D01*
X179166666Y-45452380D01*
X179261904Y-45500000D01*
X179309523Y-45547619D01*
X179357142Y-45642857D01*
X179357142Y-45785714D01*
X179309523Y-45880952D01*
X179261904Y-45928571D01*
X179166666Y-45976190D01*
X178785714Y-45976190D01*
X179690476Y-45452380D02*
X180357142Y-46452380D01*
X180357142Y-45452380D02*
X179690476Y-46452380D01*
X181261904Y-46452380D02*
X180690476Y-46452380D01*
X180976190Y-46452380D02*
X180976190Y-45452380D01*
X180880952Y-45595238D01*
X180785714Y-45690476D01*
X180690476Y-45738095D01*
X156761904Y-84452380D02*
X156285714Y-84452380D01*
X156285714Y-83452380D01*
X157428571Y-83928571D02*
X157095238Y-83928571D01*
X157095238Y-84452380D02*
X157095238Y-83452380D01*
X157571428Y-83452380D01*
X158523809Y-84357142D02*
X158476190Y-84404761D01*
X158333333Y-84452380D01*
X158238095Y-84452380D01*
X158095238Y-84404761D01*
X158000000Y-84309523D01*
X157952380Y-84214285D01*
X157904761Y-84023809D01*
X157904761Y-83880952D01*
X157952380Y-83690476D01*
X158000000Y-83595238D01*
X158095238Y-83500000D01*
X158238095Y-83452380D01*
X158333333Y-83452380D01*
X158476190Y-83500000D01*
X158523809Y-83547619D01*
X158809523Y-83452380D02*
X159142857Y-84452380D01*
X159476190Y-83452380D01*
X159809523Y-84071428D02*
X160571428Y-84071428D01*
X161523809Y-83452380D02*
X161047619Y-83452380D01*
X161000000Y-83928571D01*
X161047619Y-83880952D01*
X161142857Y-83833333D01*
X161380952Y-83833333D01*
X161476190Y-83880952D01*
X161523809Y-83928571D01*
X161571428Y-84023809D01*
X161571428Y-84261904D01*
X161523809Y-84357142D01*
X161476190Y-84404761D01*
X161380952Y-84452380D01*
X161142857Y-84452380D01*
X161047619Y-84404761D01*
X161000000Y-84357142D01*
X161952380Y-83547619D02*
X162000000Y-83500000D01*
X162095238Y-83452380D01*
X162333333Y-83452380D01*
X162428571Y-83500000D01*
X162476190Y-83547619D01*
X162523809Y-83642857D01*
X162523809Y-83738095D01*
X162476190Y-83880952D01*
X161904761Y-84452380D01*
X162523809Y-84452380D01*
X162952380Y-84071428D02*
X163714285Y-84071428D01*
X163333333Y-84452380D02*
X163333333Y-83690476D01*
X179357142Y-61452380D02*
X179023809Y-60976190D01*
X178785714Y-61452380D02*
X178785714Y-60452380D01*
X179166666Y-60452380D01*
X179261904Y-60500000D01*
X179309523Y-60547619D01*
X179357142Y-60642857D01*
X179357142Y-60785714D01*
X179309523Y-60880952D01*
X179261904Y-60928571D01*
X179166666Y-60976190D01*
X178785714Y-60976190D01*
X179690476Y-60452380D02*
X180357142Y-61452380D01*
X180357142Y-60452380D02*
X179690476Y-61452380D01*
X180690476Y-60547619D02*
X180738095Y-60500000D01*
X180833333Y-60452380D01*
X181071428Y-60452380D01*
X181166666Y-60500000D01*
X181214285Y-60547619D01*
X181261904Y-60642857D01*
X181261904Y-60738095D01*
X181214285Y-60880952D01*
X180642857Y-61452380D01*
X181261904Y-61452380D01*
X157833333Y-71452380D02*
X157500000Y-70976190D01*
X157261904Y-71452380D02*
X157261904Y-70452380D01*
X157642857Y-70452380D01*
X157738095Y-70500000D01*
X157785714Y-70547619D01*
X157833333Y-70642857D01*
X157833333Y-70785714D01*
X157785714Y-70880952D01*
X157738095Y-70928571D01*
X157642857Y-70976190D01*
X157261904Y-70976190D01*
X158738095Y-71452380D02*
X158261904Y-71452380D01*
X158261904Y-70452380D01*
X159071428Y-71452380D02*
X159071428Y-70452380D01*
X159452380Y-70452380D01*
X159547619Y-70500000D01*
X159595238Y-70547619D01*
X159642857Y-70642857D01*
X159642857Y-70785714D01*
X159595238Y-70880952D01*
X159547619Y-70928571D01*
X159452380Y-70976190D01*
X159071428Y-70976190D01*
X160071428Y-71071428D02*
X160833333Y-71071428D01*
X161785714Y-70452380D02*
X161309523Y-70452380D01*
X161261904Y-70928571D01*
X161309523Y-70880952D01*
X161404761Y-70833333D01*
X161642857Y-70833333D01*
X161738095Y-70880952D01*
X161785714Y-70928571D01*
X161833333Y-71023809D01*
X161833333Y-71261904D01*
X161785714Y-71357142D01*
X161738095Y-71404761D01*
X161642857Y-71452380D01*
X161404761Y-71452380D01*
X161309523Y-71404761D01*
X161261904Y-71357142D01*
X162452380Y-70452380D02*
X162547619Y-70452380D01*
X162642857Y-70500000D01*
X162690476Y-70547619D01*
X162738095Y-70642857D01*
X162785714Y-70833333D01*
X162785714Y-71071428D01*
X162738095Y-71261904D01*
X162690476Y-71357142D01*
X162642857Y-71404761D01*
X162547619Y-71452380D01*
X162452380Y-71452380D01*
X162357142Y-71404761D01*
X162309523Y-71357142D01*
X162261904Y-71261904D01*
X162214285Y-71071428D01*
X162214285Y-70833333D01*
X162261904Y-70642857D01*
X162309523Y-70547619D01*
X162357142Y-70500000D01*
X162452380Y-70452380D01*
D11*
X159090000Y-77840000D02*
X157860000Y-77840000D01*
X161800000Y-81200000D02*
X161800000Y-80400000D01*
X162600000Y-77600000D02*
X162600000Y-77800000D01*
X157400000Y-77600000D02*
X157400000Y-77800000D01*
X161800000Y-77600000D02*
X162600000Y-77600000D01*
X158300000Y-81200000D02*
X158300000Y-80400000D01*
X157400000Y-80400000D02*
X157400000Y-80100000D01*
X161800000Y-80400000D02*
X162600000Y-80400000D01*
X158300000Y-80400000D02*
X157400000Y-80400000D01*
X162600000Y-80400000D02*
X162600000Y-80200000D01*
X158300000Y-77600000D02*
X157400000Y-77600000D01*
X158300000Y-76900000D02*
X158300000Y-77600000D01*
X161800000Y-76900000D02*
X161800000Y-77600000D01*
D12*
X177000260Y-52999740D02*
X177000260Y-47000260D01*
X182999740Y-47000260D02*
X182999740Y-52999740D01*
X182999740Y-52999740D02*
X177000260Y-52999740D01*
X177000260Y-47000260D02*
X182999740Y-47000260D01*
D13*
X181501140Y-50000000D02*
G75*
G03*
X181501140Y-50000000I-1501140J0D01*
G01*
D12*
X182371904Y-50000000D02*
G75*
G03*
X182371904Y-50000000I-2371904J0D01*
G01*
X182548957Y-50000000D02*
G75*
G03*
X182548957Y-50000000I-2548957J0D01*
G01*
D13*
X180500380Y-50000000D02*
G75*
G03*
X180500380Y-50000000I-500380J0D01*
G01*
D11*
X171700000Y-70200000D02*
X161300000Y-70200000D01*
X171700000Y-70200000D02*
X171700000Y-69000000D01*
X171700000Y-61000000D02*
X171700000Y-59800000D01*
X161300000Y-59800000D02*
X161300000Y-63600000D01*
X161300000Y-59800000D02*
X171700000Y-59800000D01*
X161300000Y-69000000D02*
X161300000Y-70200000D01*
D12*
X137000260Y-47000260D02*
X142999740Y-47000260D01*
X137000260Y-52999740D02*
X137000260Y-47000260D01*
X142999740Y-47000260D02*
X142999740Y-52999740D01*
X142999740Y-52999740D02*
X137000260Y-52999740D01*
D13*
X141501140Y-50000000D02*
G75*
G03*
X141501140Y-50000000I-1501140J0D01*
G01*
X140500380Y-50000000D02*
G75*
G03*
X140500380Y-50000000I-500380J0D01*
G01*
D12*
X142548957Y-50000000D02*
G75*
G03*
X142548957Y-50000000I-2548957J0D01*
G01*
X142371904Y-50000000D02*
G75*
G03*
X142371904Y-50000000I-2371904J0D01*
G01*
X142999740Y-67999740D02*
X137000260Y-67999740D01*
X142999740Y-62000260D02*
X142999740Y-67999740D01*
X137000260Y-62000260D02*
X142999740Y-62000260D01*
X137000260Y-67999740D02*
X137000260Y-62000260D01*
X142548957Y-65000000D02*
G75*
G03*
X142548957Y-65000000I-2548957J0D01*
G01*
D13*
X140500380Y-65000000D02*
G75*
G03*
X140500380Y-65000000I-500380J0D01*
G01*
X141501140Y-65000000D02*
G75*
G03*
X141501140Y-65000000I-1501140J0D01*
G01*
D12*
X142371904Y-65000000D02*
G75*
G03*
X142371904Y-65000000I-2371904J0D01*
G01*
D11*
X158636000Y-55200000D02*
X148236000Y-55200000D01*
X158636000Y-46000000D02*
X158636000Y-44800000D01*
X148236000Y-44800000D02*
X148236000Y-48600000D01*
X148236000Y-54000000D02*
X148236000Y-55200000D01*
X158636000Y-55200000D02*
X158636000Y-54000000D01*
X148236000Y-44800000D02*
X158636000Y-44800000D01*
X158700000Y-70200000D02*
X148300000Y-70200000D01*
X158700000Y-61000000D02*
X158700000Y-59800000D01*
X158700000Y-70200000D02*
X158700000Y-69000000D01*
X148300000Y-59800000D02*
X148300000Y-63600000D01*
X148300000Y-59800000D02*
X158700000Y-59800000D01*
X148300000Y-69000000D02*
X148300000Y-70200000D01*
X161117000Y-44800000D02*
X161117000Y-48600000D01*
X171517000Y-55200000D02*
X161117000Y-55200000D01*
X161117000Y-54000000D02*
X161117000Y-55200000D01*
X171517000Y-55200000D02*
X171517000Y-54000000D01*
X171517000Y-46000000D02*
X171517000Y-44800000D01*
X161117000Y-44800000D02*
X171517000Y-44800000D01*
D12*
X143070784Y-76080260D02*
X143070784Y-82079740D01*
X137071304Y-82079740D02*
X137071304Y-76080260D01*
X137071304Y-76080260D02*
X143070784Y-76080260D01*
X143070784Y-82079740D02*
X137071304Y-82079740D01*
D13*
X140571424Y-79080000D02*
G75*
G03*
X140571424Y-79080000I-500380J0D01*
G01*
X141572184Y-79080000D02*
G75*
G03*
X141572184Y-79080000I-1501140J0D01*
G01*
D12*
X142442948Y-79080000D02*
G75*
G03*
X142442948Y-79080000I-2371904J0D01*
G01*
X142620001Y-79080000D02*
G75*
G03*
X142620001Y-79080000I-2548957J0D01*
G01*
X182999740Y-67999740D02*
X177000260Y-67999740D01*
X177000260Y-67999740D02*
X177000260Y-62000260D01*
X182999740Y-62000260D02*
X182999740Y-67999740D01*
X177000260Y-62000260D02*
X182999740Y-62000260D01*
D13*
X181501140Y-65000000D02*
G75*
G03*
X181501140Y-65000000I-1501140J0D01*
G01*
D12*
X182371904Y-65000000D02*
G75*
G03*
X182371904Y-65000000I-2371904J0D01*
G01*
D13*
X180500380Y-65000000D02*
G75*
G03*
X180500380Y-65000000I-500380J0D01*
G01*
D12*
X182548957Y-65000000D02*
G75*
G03*
X182548957Y-65000000I-2548957J0D01*
G01*
X182999740Y-76000260D02*
X182999740Y-81999740D01*
X182999740Y-81999740D02*
X177000260Y-81999740D01*
X177000260Y-81999740D02*
X177000260Y-76000260D01*
X177000260Y-76000260D02*
X182999740Y-76000260D01*
D13*
X180500380Y-79000000D02*
G75*
G03*
X180500380Y-79000000I-500380J0D01*
G01*
X181501140Y-79000000D02*
G75*
G03*
X181501140Y-79000000I-1501140J0D01*
G01*
D12*
X182548957Y-79000000D02*
G75*
G03*
X182548957Y-79000000I-2548957J0D01*
G01*
X182371904Y-79000000D02*
G75*
G03*
X182371904Y-79000000I-2371904J0D01*
G01*
D14*
X180000000Y-50000000D03*
D15*
X177460000Y-47460000D03*
X177460000Y-52540000D03*
X182540000Y-47460000D03*
X182540000Y-52540000D03*
D14*
X140000000Y-50000000D03*
D15*
X142540000Y-52540000D03*
X137460000Y-47460000D03*
X142540000Y-47460000D03*
X137460000Y-52540000D03*
D14*
X140000000Y-65000000D03*
D15*
X142540000Y-67540000D03*
X137460000Y-67540000D03*
X137460000Y-62460000D03*
X142540000Y-62460000D03*
D14*
X140071044Y-79080000D03*
D15*
X137531044Y-81620000D03*
X142611044Y-76540000D03*
X137531044Y-76540000D03*
X142611044Y-81620000D03*
D14*
X180000000Y-65000000D03*
D15*
X177460000Y-62460000D03*
X182540000Y-67540000D03*
X177460000Y-67540000D03*
X182540000Y-62460000D03*
D14*
X180000000Y-79000000D03*
D15*
X177460000Y-76460000D03*
X177460000Y-81540000D03*
X182540000Y-81540000D03*
X182540000Y-76460000D03*
%LPC*%
D16*
X158050000Y-79000000D03*
D17*
X159000000Y-80500000D03*
D18*
X160000000Y-80500000D03*
D17*
X161000000Y-77300000D03*
X158800000Y-77250000D03*
X161100000Y-80500000D03*
D16*
X161950000Y-79000000D03*
D18*
X160000000Y-77500000D03*
D14*
X180000000Y-50000000D03*
D15*
X177460000Y-47460000D03*
X177460000Y-52540000D03*
X182540000Y-47460000D03*
X182540000Y-52540000D03*
D19*
X162436000Y-63095000D03*
X162436000Y-65000000D03*
X162436000Y-66905000D03*
D20*
X166500000Y-69064000D03*
D19*
X170564000Y-66905000D03*
X170564000Y-65000000D03*
X170564000Y-63095000D03*
D20*
X166500000Y-60936000D03*
D14*
X140000000Y-50000000D03*
D15*
X142540000Y-52540000D03*
X137460000Y-47460000D03*
X142540000Y-47460000D03*
X137460000Y-52540000D03*
D21*
X181500000Y-39000000D03*
D14*
X140000000Y-65000000D03*
D15*
X142540000Y-67540000D03*
X137460000Y-67540000D03*
X137460000Y-62460000D03*
X142540000Y-62460000D03*
D19*
X149372000Y-48095000D03*
X149372000Y-50000000D03*
X149372000Y-51905000D03*
D20*
X153436000Y-54064000D03*
D19*
X157500000Y-51905000D03*
X157500000Y-50000000D03*
X157500000Y-48095000D03*
D20*
X153436000Y-45936000D03*
D21*
X181500000Y-88000000D03*
D19*
X149436000Y-63095000D03*
X149436000Y-65000000D03*
X149436000Y-66905000D03*
D20*
X153500000Y-69064000D03*
D19*
X157564000Y-66905000D03*
X157564000Y-65000000D03*
X157564000Y-63095000D03*
D20*
X153500000Y-60936000D03*
D21*
X138500000Y-88000000D03*
D19*
X162253000Y-48095000D03*
X162253000Y-50000000D03*
X162253000Y-51905000D03*
D20*
X166317000Y-54064000D03*
D19*
X170381000Y-51905000D03*
X170381000Y-50000000D03*
X170381000Y-48095000D03*
D20*
X166317000Y-45936000D03*
D14*
X140071044Y-79080000D03*
D15*
X137531044Y-81620000D03*
X142611044Y-76540000D03*
X137531044Y-76540000D03*
X142611044Y-81620000D03*
D21*
X138500000Y-39000000D03*
D14*
X180000000Y-65000000D03*
D15*
X177460000Y-62460000D03*
X182540000Y-67540000D03*
X177460000Y-67540000D03*
X182540000Y-62460000D03*
D14*
X180000000Y-79000000D03*
D15*
X177460000Y-76460000D03*
X177460000Y-81540000D03*
X182540000Y-81540000D03*
X182540000Y-76460000D03*
G36*
X177442121Y-76020002D02*
G01*
X177488614Y-76073658D01*
X177500000Y-76126000D01*
X177500000Y-81874000D01*
X177479998Y-81942121D01*
X177426342Y-81988614D01*
X177374000Y-82000000D01*
X143126000Y-82000000D01*
X143057879Y-81979998D01*
X143011386Y-81926342D01*
X143000000Y-81874000D01*
X143000000Y-76126000D01*
X143020002Y-76057879D01*
X143073658Y-76011386D01*
X143126000Y-76000000D01*
X177374000Y-76000000D01*
X177442121Y-76020002D01*
G37*
G36*
X160196121Y-61520002D02*
G01*
X160242614Y-61573658D01*
X160254000Y-61626000D01*
X160254000Y-68374000D01*
X160233998Y-68442121D01*
X160180342Y-68488614D01*
X160128000Y-68500000D01*
X144126000Y-68500000D01*
X144057879Y-68479998D01*
X144011386Y-68426342D01*
X144000000Y-68374000D01*
X144000000Y-66518115D01*
X143995525Y-66502876D01*
X143987334Y-66495778D01*
X142586155Y-66028718D01*
X142527855Y-65988201D01*
X142500716Y-65922596D01*
X142500000Y-65909184D01*
X142500000Y-64067433D01*
X142520002Y-63999312D01*
X142556108Y-63962595D01*
X143984926Y-63010049D01*
X143998593Y-62993731D01*
X144000000Y-62986990D01*
X144000000Y-61626000D01*
X144020002Y-61557879D01*
X144073658Y-61511386D01*
X144126000Y-61500000D01*
X160128000Y-61500000D01*
X160196121Y-61520002D01*
G37*
G36*
X175942121Y-61520002D02*
G01*
X175988614Y-61573658D01*
X176000000Y-61626000D01*
X176000000Y-63481885D01*
X176004475Y-63497124D01*
X176012666Y-63504222D01*
X177413845Y-63971282D01*
X177472145Y-64011799D01*
X177499284Y-64077404D01*
X177500000Y-64090816D01*
X177500000Y-65932567D01*
X177479998Y-66000688D01*
X177443892Y-66037405D01*
X176015074Y-66989951D01*
X176001407Y-67006269D01*
X176000000Y-67013010D01*
X176000000Y-68374000D01*
X175979998Y-68442121D01*
X175926342Y-68488614D01*
X175874000Y-68500000D01*
X159872000Y-68500000D01*
X159803879Y-68479998D01*
X159757386Y-68426342D01*
X159746000Y-68374000D01*
X159746000Y-61626000D01*
X159766002Y-61557879D01*
X159819658Y-61511386D01*
X159872000Y-61500000D01*
X175874000Y-61500000D01*
X175942121Y-61520002D01*
G37*
G36*
X175942121Y-46520002D02*
G01*
X175988614Y-46573658D01*
X176000000Y-46626000D01*
X176000000Y-48481885D01*
X176004475Y-48497124D01*
X176012666Y-48504222D01*
X177413845Y-48971282D01*
X177472145Y-49011799D01*
X177499284Y-49077404D01*
X177500000Y-49090816D01*
X177500000Y-50932567D01*
X177479998Y-51000688D01*
X177443892Y-51037405D01*
X176015074Y-51989951D01*
X176001407Y-52006269D01*
X176000000Y-52013010D01*
X176000000Y-53374000D01*
X175979998Y-53442121D01*
X175926342Y-53488614D01*
X175874000Y-53500000D01*
X159872000Y-53500000D01*
X159803879Y-53479998D01*
X159757386Y-53426342D01*
X159746000Y-53374000D01*
X159746000Y-46626000D01*
X159766002Y-46557879D01*
X159819658Y-46511386D01*
X159872000Y-46500000D01*
X175874000Y-46500000D01*
X175942121Y-46520002D01*
G37*
G36*
X160196121Y-46520002D02*
G01*
X160242614Y-46573658D01*
X160254000Y-46626000D01*
X160254000Y-53374000D01*
X160233998Y-53442121D01*
X160180342Y-53488614D01*
X160128000Y-53500000D01*
X143577872Y-53500000D01*
X143509751Y-53479998D01*
X143465174Y-53430349D01*
X142504543Y-51509086D01*
X142492815Y-51492815D01*
X142036905Y-51036905D01*
X142002879Y-50974593D01*
X142000000Y-50947810D01*
X142000000Y-49052190D01*
X142020002Y-48984069D01*
X142036905Y-48963095D01*
X142989626Y-48010374D01*
X143004639Y-47986083D01*
X143471282Y-46586155D01*
X143511799Y-46527855D01*
X143577404Y-46500716D01*
X143590816Y-46500000D01*
X160128000Y-46500000D01*
X160196121Y-46520002D01*
G37*
M02*
