%FSLAX45Y45*%
G04 Gerber Fmt 4.5, Leading zero omitted, Abs format (unit mm)*
G04 Created by KiCad (PCBNEW (6.0.0)) date 2022-07-23 10:41:16*
%MOMM*%
%LPD*%
G01*
G04 APERTURE LIST*
%TA.AperFunction,Profile*%
%ADD10C,0.100000*%
%TD*%
%ADD11C,0.200000*%
%ADD12C,0.030000*%
%ADD13C,0.040000*%
%ADD14C,0.050800*%
%ADD15C,0.130048*%
%ADD16C,0.320000*%
G04 APERTURE END LIST*
D10*
X13500000Y-9200000D02*
X18500000Y-9200000D01*
X18500000Y-3500000D02*
X13500000Y-3500000D01*
X13500000Y-3500000D02*
X13500000Y-9200000D01*
X18500000Y-9200000D02*
X18500000Y-3500000D01*
D11*
D12*
X15865000Y-7710000D02*
X15895000Y-7740000D01*
X15895000Y-7710000D02*
X15865000Y-7740000D01*
X15885000Y-8035000D02*
X15915000Y-8065000D01*
X15915000Y-8035000D02*
X15885000Y-8065000D01*
X16085000Y-7715000D02*
X16115000Y-7745000D01*
X16115000Y-7715000D02*
X16085000Y-7745000D01*
X16095000Y-8035000D02*
X16125000Y-8065000D01*
X16125000Y-8035000D02*
X16095000Y-8065000D01*
D13*
X13620000Y-4500000D02*
G75*
G03*
X13620000Y-4500000I-20000J0D01*
G01*
X13620000Y-5500000D02*
G75*
G03*
X13620000Y-5500000I-20000J0D01*
G01*
X13620000Y-6050000D02*
G75*
G03*
X13620000Y-6050000I-20000J0D01*
G01*
X13620000Y-6950000D02*
G75*
G03*
X13620000Y-6950000I-20000J0D01*
G01*
X13620000Y-8400000D02*
G75*
G03*
X13620000Y-8400000I-20000J0D01*
G01*
X13770000Y-4500000D02*
G75*
G03*
X13770000Y-4500000I-20000J0D01*
G01*
X13770000Y-5500000D02*
G75*
G03*
X13770000Y-5500000I-20000J0D01*
G01*
X13770000Y-6050000D02*
G75*
G03*
X13770000Y-6050000I-20000J0D01*
G01*
X13770000Y-6950000D02*
G75*
G03*
X13770000Y-6950000I-20000J0D01*
G01*
X13770000Y-8400000D02*
G75*
G03*
X13770000Y-8400000I-20000J0D01*
G01*
X13920000Y-4500000D02*
G75*
G03*
X13920000Y-4500000I-20000J0D01*
G01*
X13920000Y-5500000D02*
G75*
G03*
X13920000Y-5500000I-20000J0D01*
G01*
X13920000Y-6050000D02*
G75*
G03*
X13920000Y-6050000I-20000J0D01*
G01*
X13920000Y-6950000D02*
G75*
G03*
X13920000Y-6950000I-20000J0D01*
G01*
X13920000Y-8400000D02*
G75*
G03*
X13920000Y-8400000I-20000J0D01*
G01*
X14070000Y-4500000D02*
G75*
G03*
X14070000Y-4500000I-20000J0D01*
G01*
X14070000Y-5500000D02*
G75*
G03*
X14070000Y-5500000I-20000J0D01*
G01*
X14070000Y-6050000D02*
G75*
G03*
X14070000Y-6050000I-20000J0D01*
G01*
X14070000Y-6950000D02*
G75*
G03*
X14070000Y-6950000I-20000J0D01*
G01*
X14070000Y-8400000D02*
G75*
G03*
X14070000Y-8400000I-20000J0D01*
G01*
X14220000Y-4500000D02*
G75*
G03*
X14220000Y-4500000I-20000J0D01*
G01*
X14220000Y-5500000D02*
G75*
G03*
X14220000Y-5500000I-20000J0D01*
G01*
X14220000Y-6050000D02*
G75*
G03*
X14220000Y-6050000I-20000J0D01*
G01*
X14220000Y-6950000D02*
G75*
G03*
X14220000Y-6950000I-20000J0D01*
G01*
X14220000Y-8400000D02*
G75*
G03*
X14220000Y-8400000I-20000J0D01*
G01*
X14370000Y-4500000D02*
G75*
G03*
X14370000Y-4500000I-20000J0D01*
G01*
X14370000Y-5500000D02*
G75*
G03*
X14370000Y-5500000I-20000J0D01*
G01*
X14370000Y-6050000D02*
G75*
G03*
X14370000Y-6050000I-20000J0D01*
G01*
X14370000Y-6950000D02*
G75*
G03*
X14370000Y-6950000I-20000J0D01*
G01*
X14470000Y-7550000D02*
G75*
G03*
X14470000Y-7550000I-20000J0D01*
G01*
X14470000Y-8250000D02*
G75*
G03*
X14470000Y-8250000I-20000J0D01*
G01*
X14520000Y-4500000D02*
G75*
G03*
X14520000Y-4500000I-20000J0D01*
G01*
X14520000Y-5500000D02*
G75*
G03*
X14520000Y-5500000I-20000J0D01*
G01*
X14520000Y-6050000D02*
G75*
G03*
X14520000Y-6050000I-20000J0D01*
G01*
X14520000Y-6950000D02*
G75*
G03*
X14520000Y-6950000I-20000J0D01*
G01*
X14570000Y-8250000D02*
G75*
G03*
X14570000Y-8250000I-20000J0D01*
G01*
X14620000Y-7550000D02*
G75*
G03*
X14620000Y-7550000I-20000J0D01*
G01*
X14670000Y-4500000D02*
G75*
G03*
X14670000Y-4500000I-20000J0D01*
G01*
X14670000Y-5500000D02*
G75*
G03*
X14670000Y-5500000I-20000J0D01*
G01*
X14670000Y-6050000D02*
G75*
G03*
X14670000Y-6050000I-20000J0D01*
G01*
X14670000Y-6950000D02*
G75*
G03*
X14670000Y-6950000I-20000J0D01*
G01*
X14720000Y-8250000D02*
G75*
G03*
X14720000Y-8250000I-20000J0D01*
G01*
X14770000Y-5600000D02*
G75*
G03*
X14770000Y-5600000I-20000J0D01*
G01*
X14770000Y-5900000D02*
G75*
G03*
X14770000Y-5900000I-20000J0D01*
G01*
X14770000Y-7150000D02*
G75*
G03*
X14770000Y-7150000I-20000J0D01*
G01*
X14770000Y-7550000D02*
G75*
G03*
X14770000Y-7550000I-20000J0D01*
G01*
X14820000Y-4400000D02*
G75*
G03*
X14820000Y-4400000I-20000J0D01*
G01*
X14820000Y-5750000D02*
G75*
G03*
X14820000Y-5750000I-20000J0D01*
G01*
X14820000Y-7300000D02*
G75*
G03*
X14820000Y-7300000I-20000J0D01*
G01*
X14870000Y-8250000D02*
G75*
G03*
X14870000Y-8250000I-20000J0D01*
G01*
X14920000Y-7550000D02*
G75*
G03*
X14920000Y-7550000I-20000J0D01*
G01*
X14970000Y-4400000D02*
G75*
G03*
X14970000Y-4400000I-20000J0D01*
G01*
X14970000Y-5750000D02*
G75*
G03*
X14970000Y-5750000I-20000J0D01*
G01*
X14970000Y-7300000D02*
G75*
G03*
X14970000Y-7300000I-20000J0D01*
G01*
X15020000Y-8250000D02*
G75*
G03*
X15020000Y-8250000I-20000J0D01*
G01*
X15070000Y-7550000D02*
G75*
G03*
X15070000Y-7550000I-20000J0D01*
G01*
X15120000Y-4400000D02*
G75*
G03*
X15120000Y-4400000I-20000J0D01*
G01*
X15120000Y-5750000D02*
G75*
G03*
X15120000Y-5750000I-20000J0D01*
G01*
X15120000Y-7300000D02*
G75*
G03*
X15120000Y-7300000I-20000J0D01*
G01*
X15170000Y-8250000D02*
G75*
G03*
X15170000Y-8250000I-20000J0D01*
G01*
X15220000Y-7550000D02*
G75*
G03*
X15220000Y-7550000I-20000J0D01*
G01*
X15270000Y-4400000D02*
G75*
G03*
X15270000Y-4400000I-20000J0D01*
G01*
X15270000Y-5750000D02*
G75*
G03*
X15270000Y-5750000I-20000J0D01*
G01*
X15270000Y-7300000D02*
G75*
G03*
X15270000Y-7300000I-20000J0D01*
G01*
X15320000Y-8250000D02*
G75*
G03*
X15320000Y-8250000I-20000J0D01*
G01*
X15370000Y-7550000D02*
G75*
G03*
X15370000Y-7550000I-20000J0D01*
G01*
X15420000Y-4400000D02*
G75*
G03*
X15420000Y-4400000I-20000J0D01*
G01*
X15420000Y-5750000D02*
G75*
G03*
X15420000Y-5750000I-20000J0D01*
G01*
X15420000Y-7300000D02*
G75*
G03*
X15420000Y-7300000I-20000J0D01*
G01*
X15470000Y-8250000D02*
G75*
G03*
X15470000Y-8250000I-20000J0D01*
G01*
X15520000Y-7550000D02*
G75*
G03*
X15520000Y-7550000I-20000J0D01*
G01*
X15570000Y-4400000D02*
G75*
G03*
X15570000Y-4400000I-20000J0D01*
G01*
X15570000Y-5750000D02*
G75*
G03*
X15570000Y-5750000I-20000J0D01*
G01*
X15570000Y-7300000D02*
G75*
G03*
X15570000Y-7300000I-20000J0D01*
G01*
X15620000Y-8250000D02*
G75*
G03*
X15620000Y-8250000I-20000J0D01*
G01*
X15670000Y-7550000D02*
G75*
G03*
X15670000Y-7550000I-20000J0D01*
G01*
X15720000Y-4400000D02*
G75*
G03*
X15720000Y-4400000I-20000J0D01*
G01*
X15720000Y-5750000D02*
G75*
G03*
X15720000Y-5750000I-20000J0D01*
G01*
X15720000Y-7300000D02*
G75*
G03*
X15720000Y-7300000I-20000J0D01*
G01*
X15770000Y-8250000D02*
G75*
G03*
X15770000Y-8250000I-20000J0D01*
G01*
X15850000Y-7640000D02*
G75*
G03*
X15850000Y-7640000I-20000J0D01*
G01*
X15870000Y-4400000D02*
G75*
G03*
X15870000Y-4400000I-20000J0D01*
G01*
X15870000Y-5750000D02*
G75*
G03*
X15870000Y-5750000I-20000J0D01*
G01*
X15870000Y-7300000D02*
G75*
G03*
X15870000Y-7300000I-20000J0D01*
G01*
X15870000Y-7550000D02*
G75*
G03*
X15870000Y-7550000I-20000J0D01*
G01*
X15870000Y-8150000D02*
G75*
G03*
X15870000Y-8150000I-20000J0D01*
G01*
X15920000Y-8250000D02*
G75*
G03*
X15920000Y-8250000I-20000J0D01*
G01*
X16020000Y-4400000D02*
G75*
G03*
X16020000Y-4400000I-20000J0D01*
G01*
X16020000Y-5750000D02*
G75*
G03*
X16020000Y-5750000I-20000J0D01*
G01*
X16020000Y-7300000D02*
G75*
G03*
X16020000Y-7300000I-20000J0D01*
G01*
X16020000Y-7550000D02*
G75*
G03*
X16020000Y-7550000I-20000J0D01*
G01*
X16020000Y-7650000D02*
G75*
G03*
X16020000Y-7650000I-20000J0D01*
G01*
X16020000Y-8150000D02*
G75*
G03*
X16020000Y-8150000I-20000J0D01*
G01*
X16070000Y-8250000D02*
G75*
G03*
X16070000Y-8250000I-20000J0D01*
G01*
X16170000Y-4400000D02*
G75*
G03*
X16170000Y-4400000I-20000J0D01*
G01*
X16170000Y-5750000D02*
G75*
G03*
X16170000Y-5750000I-20000J0D01*
G01*
X16170000Y-7300000D02*
G75*
G03*
X16170000Y-7300000I-20000J0D01*
G01*
X16170000Y-7550000D02*
G75*
G03*
X16170000Y-7550000I-20000J0D01*
G01*
X16170000Y-8150000D02*
G75*
G03*
X16170000Y-8150000I-20000J0D01*
G01*
X16180000Y-7640000D02*
G75*
G03*
X16180000Y-7640000I-20000J0D01*
G01*
X16220000Y-8250000D02*
G75*
G03*
X16220000Y-8250000I-20000J0D01*
G01*
X16320000Y-4400000D02*
G75*
G03*
X16320000Y-4400000I-20000J0D01*
G01*
X16320000Y-5750000D02*
G75*
G03*
X16320000Y-5750000I-20000J0D01*
G01*
X16320000Y-7300000D02*
G75*
G03*
X16320000Y-7300000I-20000J0D01*
G01*
X16370000Y-7550000D02*
G75*
G03*
X16370000Y-7550000I-20000J0D01*
G01*
X16370000Y-8250000D02*
G75*
G03*
X16370000Y-8250000I-20000J0D01*
G01*
X16470000Y-4400000D02*
G75*
G03*
X16470000Y-4400000I-20000J0D01*
G01*
X16470000Y-5750000D02*
G75*
G03*
X16470000Y-5750000I-20000J0D01*
G01*
X16470000Y-7300000D02*
G75*
G03*
X16470000Y-7300000I-20000J0D01*
G01*
X16520000Y-7550000D02*
G75*
G03*
X16520000Y-7550000I-20000J0D01*
G01*
X16520000Y-8250000D02*
G75*
G03*
X16520000Y-8250000I-20000J0D01*
G01*
X16620000Y-4400000D02*
G75*
G03*
X16620000Y-4400000I-20000J0D01*
G01*
X16620000Y-5750000D02*
G75*
G03*
X16620000Y-5750000I-20000J0D01*
G01*
X16620000Y-7300000D02*
G75*
G03*
X16620000Y-7300000I-20000J0D01*
G01*
X16670000Y-7550000D02*
G75*
G03*
X16670000Y-7550000I-20000J0D01*
G01*
X16670000Y-8250000D02*
G75*
G03*
X16670000Y-8250000I-20000J0D01*
G01*
X16770000Y-4400000D02*
G75*
G03*
X16770000Y-4400000I-20000J0D01*
G01*
X16770000Y-5750000D02*
G75*
G03*
X16770000Y-5750000I-20000J0D01*
G01*
X16770000Y-7300000D02*
G75*
G03*
X16770000Y-7300000I-20000J0D01*
G01*
X16820000Y-7550000D02*
G75*
G03*
X16820000Y-7550000I-20000J0D01*
G01*
X16820000Y-8250000D02*
G75*
G03*
X16820000Y-8250000I-20000J0D01*
G01*
X16920000Y-4400000D02*
G75*
G03*
X16920000Y-4400000I-20000J0D01*
G01*
X16920000Y-5750000D02*
G75*
G03*
X16920000Y-5750000I-20000J0D01*
G01*
X16920000Y-7300000D02*
G75*
G03*
X16920000Y-7300000I-20000J0D01*
G01*
X16970000Y-7550000D02*
G75*
G03*
X16970000Y-7550000I-20000J0D01*
G01*
X16970000Y-8250000D02*
G75*
G03*
X16970000Y-8250000I-20000J0D01*
G01*
X17070000Y-4400000D02*
G75*
G03*
X17070000Y-4400000I-20000J0D01*
G01*
X17070000Y-5750000D02*
G75*
G03*
X17070000Y-5750000I-20000J0D01*
G01*
X17070000Y-7300000D02*
G75*
G03*
X17070000Y-7300000I-20000J0D01*
G01*
X17120000Y-7550000D02*
G75*
G03*
X17120000Y-7550000I-20000J0D01*
G01*
X17120000Y-8250000D02*
G75*
G03*
X17120000Y-8250000I-20000J0D01*
G01*
X17220000Y-4400000D02*
G75*
G03*
X17220000Y-4400000I-20000J0D01*
G01*
X17220000Y-5750000D02*
G75*
G03*
X17220000Y-5750000I-20000J0D01*
G01*
X17220000Y-7300000D02*
G75*
G03*
X17220000Y-7300000I-20000J0D01*
G01*
X17270000Y-7550000D02*
G75*
G03*
X17270000Y-7550000I-20000J0D01*
G01*
X17270000Y-8250000D02*
G75*
G03*
X17270000Y-8250000I-20000J0D01*
G01*
X17320000Y-5600000D02*
G75*
G03*
X17320000Y-5600000I-20000J0D01*
G01*
X17320000Y-5900000D02*
G75*
G03*
X17320000Y-5900000I-20000J0D01*
G01*
X17320000Y-7150000D02*
G75*
G03*
X17320000Y-7150000I-20000J0D01*
G01*
X17370000Y-4500000D02*
G75*
G03*
X17370000Y-4500000I-20000J0D01*
G01*
X17370000Y-5450000D02*
G75*
G03*
X17370000Y-5450000I-20000J0D01*
G01*
X17370000Y-6050000D02*
G75*
G03*
X17370000Y-6050000I-20000J0D01*
G01*
X17370000Y-6950000D02*
G75*
G03*
X17370000Y-6950000I-20000J0D01*
G01*
X17420000Y-7550000D02*
G75*
G03*
X17420000Y-7550000I-20000J0D01*
G01*
X17420000Y-8250000D02*
G75*
G03*
X17420000Y-8250000I-20000J0D01*
G01*
X17520000Y-4500000D02*
G75*
G03*
X17520000Y-4500000I-20000J0D01*
G01*
X17520000Y-5450000D02*
G75*
G03*
X17520000Y-5450000I-20000J0D01*
G01*
X17520000Y-6050000D02*
G75*
G03*
X17520000Y-6050000I-20000J0D01*
G01*
X17520000Y-6950000D02*
G75*
G03*
X17520000Y-6950000I-20000J0D01*
G01*
X17570000Y-7550000D02*
G75*
G03*
X17570000Y-7550000I-20000J0D01*
G01*
X17570000Y-8250000D02*
G75*
G03*
X17570000Y-8250000I-20000J0D01*
G01*
X17670000Y-4500000D02*
G75*
G03*
X17670000Y-4500000I-20000J0D01*
G01*
X17670000Y-5450000D02*
G75*
G03*
X17670000Y-5450000I-20000J0D01*
G01*
X17670000Y-6050000D02*
G75*
G03*
X17670000Y-6050000I-20000J0D01*
G01*
X17670000Y-6950000D02*
G75*
G03*
X17670000Y-6950000I-20000J0D01*
G01*
X17670000Y-8400000D02*
G75*
G03*
X17670000Y-8400000I-20000J0D01*
G01*
X17820000Y-4500000D02*
G75*
G03*
X17820000Y-4500000I-20000J0D01*
G01*
X17820000Y-5450000D02*
G75*
G03*
X17820000Y-5450000I-20000J0D01*
G01*
X17820000Y-6050000D02*
G75*
G03*
X17820000Y-6050000I-20000J0D01*
G01*
X17820000Y-6950000D02*
G75*
G03*
X17820000Y-6950000I-20000J0D01*
G01*
X17820000Y-8400000D02*
G75*
G03*
X17820000Y-8400000I-20000J0D01*
G01*
X17970000Y-4500000D02*
G75*
G03*
X17970000Y-4500000I-20000J0D01*
G01*
X17970000Y-5450000D02*
G75*
G03*
X17970000Y-5450000I-20000J0D01*
G01*
X17970000Y-6050000D02*
G75*
G03*
X17970000Y-6050000I-20000J0D01*
G01*
X17970000Y-6950000D02*
G75*
G03*
X17970000Y-6950000I-20000J0D01*
G01*
X17970000Y-8400000D02*
G75*
G03*
X17970000Y-8400000I-20000J0D01*
G01*
X18120000Y-4500000D02*
G75*
G03*
X18120000Y-4500000I-20000J0D01*
G01*
X18120000Y-5450000D02*
G75*
G03*
X18120000Y-5450000I-20000J0D01*
G01*
X18120000Y-6050000D02*
G75*
G03*
X18120000Y-6050000I-20000J0D01*
G01*
X18120000Y-6950000D02*
G75*
G03*
X18120000Y-6950000I-20000J0D01*
G01*
X18120000Y-8400000D02*
G75*
G03*
X18120000Y-8400000I-20000J0D01*
G01*
X18270000Y-4500000D02*
G75*
G03*
X18270000Y-4500000I-20000J0D01*
G01*
X18270000Y-5450000D02*
G75*
G03*
X18270000Y-5450000I-20000J0D01*
G01*
X18270000Y-6050000D02*
G75*
G03*
X18270000Y-6050000I-20000J0D01*
G01*
X18270000Y-6950000D02*
G75*
G03*
X18270000Y-6950000I-20000J0D01*
G01*
X18270000Y-8400000D02*
G75*
G03*
X18270000Y-8400000I-20000J0D01*
G01*
X18420000Y-4500000D02*
G75*
G03*
X18420000Y-4500000I-20000J0D01*
G01*
X18420000Y-5450000D02*
G75*
G03*
X18420000Y-5450000I-20000J0D01*
G01*
X18420000Y-6050000D02*
G75*
G03*
X18420000Y-6050000I-20000J0D01*
G01*
X18420000Y-6950000D02*
G75*
G03*
X18420000Y-6950000I-20000J0D01*
G01*
X18420000Y-8400000D02*
G75*
G03*
X18420000Y-8400000I-20000J0D01*
G01*
D14*
X14899100Y-4530100D02*
X14899100Y-4580900D01*
X14873700Y-4555500D02*
X14924500Y-4555500D01*
X14899100Y-5419100D02*
X14899100Y-5469900D01*
X14873700Y-5444500D02*
X14924500Y-5444500D01*
X14905500Y-6030100D02*
X14905500Y-6080900D01*
X14880100Y-6055500D02*
X14930900Y-6055500D01*
X14905500Y-6919100D02*
X14905500Y-6969900D01*
X14880100Y-6944500D02*
X14930900Y-6944500D01*
X15216600Y-4847600D02*
X15216600Y-4898400D01*
X15191200Y-4873000D02*
X15242000Y-4873000D01*
X15216600Y-5101600D02*
X15216600Y-5152400D01*
X15191200Y-5127000D02*
X15242000Y-5127000D01*
X15223000Y-6347600D02*
X15223000Y-6398400D01*
X15197600Y-6373000D02*
X15248400Y-6373000D01*
X15223000Y-6601600D02*
X15223000Y-6652400D01*
X15197600Y-6627000D02*
X15248400Y-6627000D01*
X15470600Y-4847600D02*
X15470600Y-4898400D01*
X15445200Y-4873000D02*
X15496000Y-4873000D01*
X15470600Y-5101600D02*
X15470600Y-5152400D01*
X15445200Y-5127000D02*
X15496000Y-5127000D01*
X15477000Y-6347600D02*
X15477000Y-6398400D01*
X15451600Y-6373000D02*
X15502400Y-6373000D01*
X15477000Y-6601600D02*
X15477000Y-6652400D01*
X15451600Y-6627000D02*
X15502400Y-6627000D01*
X15788100Y-4530100D02*
X15788100Y-4580900D01*
X15762700Y-4555500D02*
X15813500Y-4555500D01*
X15788100Y-5419100D02*
X15788100Y-5469900D01*
X15762700Y-5444500D02*
X15813500Y-5444500D01*
X15794500Y-6030100D02*
X15794500Y-6080900D01*
X15769100Y-6055500D02*
X15819900Y-6055500D01*
X15794500Y-6919100D02*
X15794500Y-6969900D01*
X15769100Y-6944500D02*
X15819900Y-6944500D01*
X16187200Y-4530100D02*
X16187200Y-4580900D01*
X16161800Y-4555500D02*
X16212600Y-4555500D01*
X16187200Y-5419100D02*
X16187200Y-5469900D01*
X16161800Y-5444500D02*
X16212600Y-5444500D01*
X16205500Y-6030100D02*
X16205500Y-6080900D01*
X16180100Y-6055500D02*
X16230900Y-6055500D01*
X16205500Y-6919100D02*
X16205500Y-6969900D01*
X16180100Y-6944500D02*
X16230900Y-6944500D01*
X16504700Y-4847600D02*
X16504700Y-4898400D01*
X16479300Y-4873000D02*
X16530100Y-4873000D01*
X16504700Y-5101600D02*
X16504700Y-5152400D01*
X16479300Y-5127000D02*
X16530100Y-5127000D01*
X16523000Y-6347600D02*
X16523000Y-6398400D01*
X16497600Y-6373000D02*
X16548400Y-6373000D01*
X16523000Y-6601600D02*
X16523000Y-6652400D01*
X16497600Y-6627000D02*
X16548400Y-6627000D01*
X16758700Y-4847600D02*
X16758700Y-4898400D01*
X16733300Y-4873000D02*
X16784100Y-4873000D01*
X16758700Y-5101600D02*
X16758700Y-5152400D01*
X16733300Y-5127000D02*
X16784100Y-5127000D01*
X16777000Y-6347600D02*
X16777000Y-6398400D01*
X16751600Y-6373000D02*
X16802400Y-6373000D01*
X16777000Y-6601600D02*
X16777000Y-6652400D01*
X16751600Y-6627000D02*
X16802400Y-6627000D01*
X17076200Y-4530100D02*
X17076200Y-4580900D01*
X17050800Y-4555500D02*
X17101600Y-4555500D01*
X17076200Y-5419100D02*
X17076200Y-5469900D01*
X17050800Y-5444500D02*
X17101600Y-5444500D01*
X17094500Y-6030100D02*
X17094500Y-6080900D01*
X17069100Y-6055500D02*
X17119900Y-6055500D01*
X17094500Y-6919100D02*
X17094500Y-6969900D01*
X17069100Y-6944500D02*
X17119900Y-6944500D01*
D15*
X13791979Y-4791979D02*
X13791979Y-4700021D01*
X13700021Y-4700021D01*
X13700021Y-4791979D01*
X13791979Y-4791979D01*
X13791979Y-5299979D02*
X13791979Y-5208021D01*
X13700021Y-5208021D01*
X13700021Y-5299979D01*
X13791979Y-5299979D01*
X13791979Y-6291979D02*
X13791979Y-6200021D01*
X13700021Y-6200021D01*
X13700021Y-6291979D01*
X13791979Y-6291979D01*
X13791979Y-6799979D02*
X13791979Y-6708021D01*
X13700021Y-6708021D01*
X13700021Y-6799979D01*
X13791979Y-6799979D01*
X13799084Y-7699979D02*
X13799084Y-7608021D01*
X13707125Y-7608021D01*
X13707125Y-7699979D01*
X13799084Y-7699979D01*
X13799084Y-8207979D02*
X13799084Y-8116021D01*
X13707125Y-8116021D01*
X13707125Y-8207979D01*
X13799084Y-8207979D01*
X14045979Y-5045979D02*
X14045979Y-4954021D01*
X13954021Y-4954021D01*
X13954021Y-5045979D01*
X14045979Y-5045979D01*
X14045979Y-6545979D02*
X14045979Y-6454021D01*
X13954021Y-6454021D01*
X13954021Y-6545979D01*
X14045979Y-6545979D01*
X14053084Y-7953979D02*
X14053084Y-7862021D01*
X13961125Y-7862021D01*
X13961125Y-7953979D01*
X14053084Y-7953979D01*
X14299979Y-4791979D02*
X14299979Y-4700021D01*
X14208021Y-4700021D01*
X14208021Y-4791979D01*
X14299979Y-4791979D01*
X14299979Y-5299979D02*
X14299979Y-5208021D01*
X14208021Y-5208021D01*
X14208021Y-5299979D01*
X14299979Y-5299979D01*
X14299979Y-6291979D02*
X14299979Y-6200021D01*
X14208021Y-6200021D01*
X14208021Y-6291979D01*
X14299979Y-6291979D01*
X14299979Y-6799979D02*
X14299979Y-6708021D01*
X14208021Y-6708021D01*
X14208021Y-6799979D01*
X14299979Y-6799979D01*
X14307084Y-7699979D02*
X14307084Y-7608021D01*
X14215125Y-7608021D01*
X14215125Y-7699979D01*
X14307084Y-7699979D01*
X14307084Y-8207979D02*
X14307084Y-8116021D01*
X14215125Y-8116021D01*
X14215125Y-8207979D01*
X14307084Y-8207979D01*
X17791979Y-4791979D02*
X17791979Y-4700021D01*
X17700021Y-4700021D01*
X17700021Y-4791979D01*
X17791979Y-4791979D01*
X17791979Y-5299979D02*
X17791979Y-5208021D01*
X17700021Y-5208021D01*
X17700021Y-5299979D01*
X17791979Y-5299979D01*
X17791979Y-6291979D02*
X17791979Y-6200021D01*
X17700021Y-6200021D01*
X17700021Y-6291979D01*
X17791979Y-6291979D01*
X17791979Y-6799979D02*
X17791979Y-6708021D01*
X17700021Y-6708021D01*
X17700021Y-6799979D01*
X17791979Y-6799979D01*
X17791979Y-7691979D02*
X17791979Y-7600021D01*
X17700021Y-7600021D01*
X17700021Y-7691979D01*
X17791979Y-7691979D01*
X17791979Y-8199979D02*
X17791979Y-8108021D01*
X17700021Y-8108021D01*
X17700021Y-8199979D01*
X17791979Y-8199979D01*
X18045979Y-5045979D02*
X18045979Y-4954021D01*
X17954021Y-4954021D01*
X17954021Y-5045979D01*
X18045979Y-5045979D01*
X18045979Y-6545979D02*
X18045979Y-6454021D01*
X17954021Y-6454021D01*
X17954021Y-6545979D01*
X18045979Y-6545979D01*
X18045979Y-7945979D02*
X18045979Y-7854021D01*
X17954021Y-7854021D01*
X17954021Y-7945979D01*
X18045979Y-7945979D01*
X18299979Y-4791979D02*
X18299979Y-4700021D01*
X18208021Y-4700021D01*
X18208021Y-4791979D01*
X18299979Y-4791979D01*
X18299979Y-5299979D02*
X18299979Y-5208021D01*
X18208021Y-5208021D01*
X18208021Y-5299979D01*
X18299979Y-5299979D01*
X18299979Y-6291979D02*
X18299979Y-6200021D01*
X18208021Y-6200021D01*
X18208021Y-6291979D01*
X18299979Y-6291979D01*
X18299979Y-6799979D02*
X18299979Y-6708021D01*
X18208021Y-6708021D01*
X18208021Y-6799979D01*
X18299979Y-6799979D01*
X18299979Y-7691979D02*
X18299979Y-7600021D01*
X18208021Y-7600021D01*
X18208021Y-7691979D01*
X18299979Y-7691979D01*
X18299979Y-8199979D02*
X18299979Y-8108021D01*
X18208021Y-8108021D01*
X18208021Y-8199979D01*
X18299979Y-8199979D01*
D16*
X13850000Y-4060000D02*
X14010000Y-3900000D01*
X13850000Y-3740000D01*
X13690000Y-3900000D01*
X13850000Y-4060000D01*
X13850000Y-8960000D02*
X14010000Y-8800000D01*
X13850000Y-8640000D01*
X13690000Y-8800000D01*
X13850000Y-8960000D01*
X18150000Y-4060000D02*
X18310000Y-3900000D01*
X18150000Y-3740000D01*
X17990000Y-3900000D01*
X18150000Y-4060000D01*
X18150000Y-8960000D02*
X18310000Y-8800000D01*
X18150000Y-8640000D01*
X17990000Y-8800000D01*
X18150000Y-8960000D01*
D11*
X13752619Y-9515476D02*
X13752619Y-9315476D01*
X13800238Y-9315476D01*
X13828809Y-9325000D01*
X13847857Y-9344048D01*
X13857381Y-9363095D01*
X13866905Y-9401190D01*
X13866905Y-9429762D01*
X13857381Y-9467857D01*
X13847857Y-9486905D01*
X13828809Y-9505952D01*
X13800238Y-9515476D01*
X13752619Y-9515476D01*
X13952619Y-9515476D02*
X13952619Y-9382143D01*
X13952619Y-9420238D02*
X13962143Y-9401190D01*
X13971667Y-9391667D01*
X13990714Y-9382143D01*
X14009762Y-9382143D01*
X14076428Y-9515476D02*
X14076428Y-9382143D01*
X14076428Y-9315476D02*
X14066905Y-9325000D01*
X14076428Y-9334524D01*
X14085952Y-9325000D01*
X14076428Y-9315476D01*
X14076428Y-9334524D01*
X14200238Y-9515476D02*
X14181190Y-9505952D01*
X14171667Y-9486905D01*
X14171667Y-9315476D01*
X14305000Y-9515476D02*
X14285952Y-9505952D01*
X14276428Y-9486905D01*
X14276428Y-9315476D01*
X14533571Y-9515476D02*
X14533571Y-9315476D01*
X14600238Y-9458333D01*
X14666905Y-9315476D01*
X14666905Y-9515476D01*
X14847857Y-9515476D02*
X14847857Y-9410714D01*
X14838333Y-9391667D01*
X14819286Y-9382143D01*
X14781190Y-9382143D01*
X14762143Y-9391667D01*
X14847857Y-9505952D02*
X14828809Y-9515476D01*
X14781190Y-9515476D01*
X14762143Y-9505952D01*
X14752619Y-9486905D01*
X14752619Y-9467857D01*
X14762143Y-9448810D01*
X14781190Y-9439286D01*
X14828809Y-9439286D01*
X14847857Y-9429762D01*
X14943095Y-9382143D02*
X14943095Y-9582143D01*
X14943095Y-9391667D02*
X14962143Y-9382143D01*
X15000238Y-9382143D01*
X15019286Y-9391667D01*
X15028809Y-9401190D01*
X15038333Y-9420238D01*
X15038333Y-9477381D01*
X15028809Y-9496429D01*
X15019286Y-9505952D01*
X15000238Y-9515476D01*
X14962143Y-9515476D01*
X14943095Y-9505952D01*
X15124048Y-9496429D02*
X15133571Y-9505952D01*
X15124048Y-9515476D01*
X15114524Y-9505952D01*
X15124048Y-9496429D01*
X15124048Y-9515476D01*
X15124048Y-9391667D02*
X15133571Y-9401190D01*
X15124048Y-9410714D01*
X15114524Y-9401190D01*
X15124048Y-9391667D01*
X15124048Y-9410714D01*
D12*
X13465000Y-9830000D02*
X13495000Y-9860000D01*
X13495000Y-9830000D02*
X13465000Y-9860000D01*
D11*
X13790714Y-9735476D02*
X13809762Y-9735476D01*
X13828809Y-9745000D01*
X13838333Y-9754524D01*
X13847857Y-9773571D01*
X13857381Y-9811667D01*
X13857381Y-9859286D01*
X13847857Y-9897381D01*
X13838333Y-9916429D01*
X13828809Y-9925952D01*
X13809762Y-9935476D01*
X13790714Y-9935476D01*
X13771667Y-9925952D01*
X13762143Y-9916429D01*
X13752619Y-9897381D01*
X13743095Y-9859286D01*
X13743095Y-9811667D01*
X13752619Y-9773571D01*
X13762143Y-9754524D01*
X13771667Y-9745000D01*
X13790714Y-9735476D01*
X13943095Y-9916429D02*
X13952619Y-9925952D01*
X13943095Y-9935476D01*
X13933571Y-9925952D01*
X13943095Y-9916429D01*
X13943095Y-9935476D01*
X14019286Y-9735476D02*
X14143095Y-9735476D01*
X14076428Y-9811667D01*
X14105000Y-9811667D01*
X14124048Y-9821190D01*
X14133571Y-9830714D01*
X14143095Y-9849762D01*
X14143095Y-9897381D01*
X14133571Y-9916429D01*
X14124048Y-9925952D01*
X14105000Y-9935476D01*
X14047857Y-9935476D01*
X14028809Y-9925952D01*
X14019286Y-9916429D01*
X14266905Y-9735476D02*
X14285952Y-9735476D01*
X14305000Y-9745000D01*
X14314524Y-9754524D01*
X14324048Y-9773571D01*
X14333571Y-9811667D01*
X14333571Y-9859286D01*
X14324048Y-9897381D01*
X14314524Y-9916429D01*
X14305000Y-9925952D01*
X14285952Y-9935476D01*
X14266905Y-9935476D01*
X14247857Y-9925952D01*
X14238333Y-9916429D01*
X14228809Y-9897381D01*
X14219286Y-9859286D01*
X14219286Y-9811667D01*
X14228809Y-9773571D01*
X14238333Y-9754524D01*
X14247857Y-9745000D01*
X14266905Y-9735476D01*
X14457381Y-9735476D02*
X14476428Y-9735476D01*
X14495476Y-9745000D01*
X14505000Y-9754524D01*
X14514524Y-9773571D01*
X14524048Y-9811667D01*
X14524048Y-9859286D01*
X14514524Y-9897381D01*
X14505000Y-9916429D01*
X14495476Y-9925952D01*
X14476428Y-9935476D01*
X14457381Y-9935476D01*
X14438333Y-9925952D01*
X14428809Y-9916429D01*
X14419286Y-9897381D01*
X14409762Y-9859286D01*
X14409762Y-9811667D01*
X14419286Y-9773571D01*
X14428809Y-9754524D01*
X14438333Y-9745000D01*
X14457381Y-9735476D01*
X14609762Y-9935476D02*
X14609762Y-9802143D01*
X14609762Y-9821190D02*
X14619286Y-9811667D01*
X14638333Y-9802143D01*
X14666905Y-9802143D01*
X14685952Y-9811667D01*
X14695476Y-9830714D01*
X14695476Y-9935476D01*
X14695476Y-9830714D02*
X14705000Y-9811667D01*
X14724048Y-9802143D01*
X14752619Y-9802143D01*
X14771667Y-9811667D01*
X14781190Y-9830714D01*
X14781190Y-9935476D01*
X14876428Y-9935476D02*
X14876428Y-9802143D01*
X14876428Y-9821190D02*
X14885952Y-9811667D01*
X14905000Y-9802143D01*
X14933571Y-9802143D01*
X14952619Y-9811667D01*
X14962143Y-9830714D01*
X14962143Y-9935476D01*
X14962143Y-9830714D02*
X14971667Y-9811667D01*
X14990714Y-9802143D01*
X15019286Y-9802143D01*
X15038333Y-9811667D01*
X15047857Y-9830714D01*
X15047857Y-9935476D01*
X15438333Y-9725952D02*
X15266905Y-9983095D01*
X15695476Y-9735476D02*
X15714524Y-9735476D01*
X15733571Y-9745000D01*
X15743095Y-9754524D01*
X15752619Y-9773571D01*
X15762143Y-9811667D01*
X15762143Y-9859286D01*
X15752619Y-9897381D01*
X15743095Y-9916429D01*
X15733571Y-9925952D01*
X15714524Y-9935476D01*
X15695476Y-9935476D01*
X15676428Y-9925952D01*
X15666905Y-9916429D01*
X15657381Y-9897381D01*
X15647857Y-9859286D01*
X15647857Y-9811667D01*
X15657381Y-9773571D01*
X15666905Y-9754524D01*
X15676428Y-9745000D01*
X15695476Y-9735476D01*
X15847857Y-9916429D02*
X15857381Y-9925952D01*
X15847857Y-9935476D01*
X15838333Y-9925952D01*
X15847857Y-9916429D01*
X15847857Y-9935476D01*
X15981190Y-9735476D02*
X16000238Y-9735476D01*
X16019286Y-9745000D01*
X16028809Y-9754524D01*
X16038333Y-9773571D01*
X16047857Y-9811667D01*
X16047857Y-9859286D01*
X16038333Y-9897381D01*
X16028809Y-9916429D01*
X16019286Y-9925952D01*
X16000238Y-9935476D01*
X15981190Y-9935476D01*
X15962143Y-9925952D01*
X15952619Y-9916429D01*
X15943095Y-9897381D01*
X15933571Y-9859286D01*
X15933571Y-9811667D01*
X15943095Y-9773571D01*
X15952619Y-9754524D01*
X15962143Y-9745000D01*
X15981190Y-9735476D01*
X16238333Y-9935476D02*
X16124048Y-9935476D01*
X16181190Y-9935476D02*
X16181190Y-9735476D01*
X16162143Y-9764048D01*
X16143095Y-9783095D01*
X16124048Y-9792619D01*
X16428809Y-9935476D02*
X16314524Y-9935476D01*
X16371667Y-9935476D02*
X16371667Y-9735476D01*
X16352619Y-9764048D01*
X16333571Y-9783095D01*
X16314524Y-9792619D01*
X16543095Y-9821190D02*
X16524048Y-9811667D01*
X16514524Y-9802143D01*
X16505000Y-9783095D01*
X16505000Y-9773571D01*
X16514524Y-9754524D01*
X16524048Y-9745000D01*
X16543095Y-9735476D01*
X16581190Y-9735476D01*
X16600238Y-9745000D01*
X16609762Y-9754524D01*
X16619286Y-9773571D01*
X16619286Y-9783095D01*
X16609762Y-9802143D01*
X16600238Y-9811667D01*
X16581190Y-9821190D01*
X16543095Y-9821190D01*
X16524048Y-9830714D01*
X16514524Y-9840238D01*
X16505000Y-9859286D01*
X16505000Y-9897381D01*
X16514524Y-9916429D01*
X16524048Y-9925952D01*
X16543095Y-9935476D01*
X16581190Y-9935476D01*
X16600238Y-9925952D01*
X16609762Y-9916429D01*
X16619286Y-9897381D01*
X16619286Y-9859286D01*
X16609762Y-9840238D01*
X16600238Y-9830714D01*
X16581190Y-9821190D01*
X16695476Y-9735476D02*
X16695476Y-9773571D01*
X16771667Y-9735476D02*
X16771667Y-9773571D01*
X17066905Y-10011667D02*
X17057381Y-10002143D01*
X17038333Y-9973571D01*
X17028810Y-9954524D01*
X17019286Y-9925952D01*
X17009762Y-9878333D01*
X17009762Y-9840238D01*
X17019286Y-9792619D01*
X17028810Y-9764048D01*
X17038333Y-9745000D01*
X17057381Y-9716429D01*
X17066905Y-9706905D01*
X17228810Y-9802143D02*
X17228810Y-9935476D01*
X17181190Y-9725952D02*
X17133571Y-9868810D01*
X17257381Y-9868810D01*
X17485952Y-9935476D02*
X17485952Y-9735476D01*
X17571667Y-9935476D02*
X17571667Y-9830714D01*
X17562143Y-9811667D01*
X17543095Y-9802143D01*
X17514524Y-9802143D01*
X17495476Y-9811667D01*
X17485952Y-9821190D01*
X17695476Y-9935476D02*
X17676429Y-9925952D01*
X17666905Y-9916429D01*
X17657381Y-9897381D01*
X17657381Y-9840238D01*
X17666905Y-9821190D01*
X17676429Y-9811667D01*
X17695476Y-9802143D01*
X17724048Y-9802143D01*
X17743095Y-9811667D01*
X17752619Y-9821190D01*
X17762143Y-9840238D01*
X17762143Y-9897381D01*
X17752619Y-9916429D01*
X17743095Y-9925952D01*
X17724048Y-9935476D01*
X17695476Y-9935476D01*
X17876429Y-9935476D02*
X17857381Y-9925952D01*
X17847857Y-9906905D01*
X17847857Y-9735476D01*
X18028810Y-9925952D02*
X18009762Y-9935476D01*
X17971667Y-9935476D01*
X17952619Y-9925952D01*
X17943095Y-9906905D01*
X17943095Y-9830714D01*
X17952619Y-9811667D01*
X17971667Y-9802143D01*
X18009762Y-9802143D01*
X18028810Y-9811667D01*
X18038333Y-9830714D01*
X18038333Y-9849762D01*
X17943095Y-9868810D01*
X18114524Y-9925952D02*
X18133571Y-9935476D01*
X18171667Y-9935476D01*
X18190714Y-9925952D01*
X18200238Y-9906905D01*
X18200238Y-9897381D01*
X18190714Y-9878333D01*
X18171667Y-9868810D01*
X18143095Y-9868810D01*
X18124048Y-9859286D01*
X18114524Y-9840238D01*
X18114524Y-9830714D01*
X18124048Y-9811667D01*
X18143095Y-9802143D01*
X18171667Y-9802143D01*
X18190714Y-9811667D01*
X18266905Y-10011667D02*
X18276429Y-10002143D01*
X18295476Y-9973571D01*
X18305000Y-9954524D01*
X18314524Y-9925952D01*
X18324048Y-9878333D01*
X18324048Y-9840238D01*
X18314524Y-9792619D01*
X18305000Y-9764048D01*
X18295476Y-9745000D01*
X18276429Y-9716429D01*
X18266905Y-9706905D01*
D13*
X13495000Y-10109000D02*
G75*
G03*
X13495000Y-10109000I-20000J0D01*
G01*
D11*
X13790714Y-9999476D02*
X13809762Y-9999476D01*
X13828809Y-10009000D01*
X13838333Y-10018524D01*
X13847857Y-10037571D01*
X13857381Y-10075667D01*
X13857381Y-10123286D01*
X13847857Y-10161381D01*
X13838333Y-10180429D01*
X13828809Y-10189952D01*
X13809762Y-10199476D01*
X13790714Y-10199476D01*
X13771667Y-10189952D01*
X13762143Y-10180429D01*
X13752619Y-10161381D01*
X13743095Y-10123286D01*
X13743095Y-10075667D01*
X13752619Y-10037571D01*
X13762143Y-10018524D01*
X13771667Y-10009000D01*
X13790714Y-9999476D01*
X13943095Y-10180429D02*
X13952619Y-10189952D01*
X13943095Y-10199476D01*
X13933571Y-10189952D01*
X13943095Y-10180429D01*
X13943095Y-10199476D01*
X14124048Y-10066143D02*
X14124048Y-10199476D01*
X14076428Y-9989952D02*
X14028809Y-10132810D01*
X14152619Y-10132810D01*
X14266905Y-9999476D02*
X14285952Y-9999476D01*
X14305000Y-10009000D01*
X14314524Y-10018524D01*
X14324048Y-10037571D01*
X14333571Y-10075667D01*
X14333571Y-10123286D01*
X14324048Y-10161381D01*
X14314524Y-10180429D01*
X14305000Y-10189952D01*
X14285952Y-10199476D01*
X14266905Y-10199476D01*
X14247857Y-10189952D01*
X14238333Y-10180429D01*
X14228809Y-10161381D01*
X14219286Y-10123286D01*
X14219286Y-10075667D01*
X14228809Y-10037571D01*
X14238333Y-10018524D01*
X14247857Y-10009000D01*
X14266905Y-9999476D01*
X14457381Y-9999476D02*
X14476428Y-9999476D01*
X14495476Y-10009000D01*
X14505000Y-10018524D01*
X14514524Y-10037571D01*
X14524048Y-10075667D01*
X14524048Y-10123286D01*
X14514524Y-10161381D01*
X14505000Y-10180429D01*
X14495476Y-10189952D01*
X14476428Y-10199476D01*
X14457381Y-10199476D01*
X14438333Y-10189952D01*
X14428809Y-10180429D01*
X14419286Y-10161381D01*
X14409762Y-10123286D01*
X14409762Y-10075667D01*
X14419286Y-10037571D01*
X14428809Y-10018524D01*
X14438333Y-10009000D01*
X14457381Y-9999476D01*
X14609762Y-10199476D02*
X14609762Y-10066143D01*
X14609762Y-10085190D02*
X14619286Y-10075667D01*
X14638333Y-10066143D01*
X14666905Y-10066143D01*
X14685952Y-10075667D01*
X14695476Y-10094714D01*
X14695476Y-10199476D01*
X14695476Y-10094714D02*
X14705000Y-10075667D01*
X14724048Y-10066143D01*
X14752619Y-10066143D01*
X14771667Y-10075667D01*
X14781190Y-10094714D01*
X14781190Y-10199476D01*
X14876428Y-10199476D02*
X14876428Y-10066143D01*
X14876428Y-10085190D02*
X14885952Y-10075667D01*
X14905000Y-10066143D01*
X14933571Y-10066143D01*
X14952619Y-10075667D01*
X14962143Y-10094714D01*
X14962143Y-10199476D01*
X14962143Y-10094714D02*
X14971667Y-10075667D01*
X14990714Y-10066143D01*
X15019286Y-10066143D01*
X15038333Y-10075667D01*
X15047857Y-10094714D01*
X15047857Y-10199476D01*
X15438333Y-9989952D02*
X15266905Y-10247095D01*
X15695476Y-9999476D02*
X15714524Y-9999476D01*
X15733571Y-10009000D01*
X15743095Y-10018524D01*
X15752619Y-10037571D01*
X15762143Y-10075667D01*
X15762143Y-10123286D01*
X15752619Y-10161381D01*
X15743095Y-10180429D01*
X15733571Y-10189952D01*
X15714524Y-10199476D01*
X15695476Y-10199476D01*
X15676428Y-10189952D01*
X15666905Y-10180429D01*
X15657381Y-10161381D01*
X15647857Y-10123286D01*
X15647857Y-10075667D01*
X15657381Y-10037571D01*
X15666905Y-10018524D01*
X15676428Y-10009000D01*
X15695476Y-9999476D01*
X15847857Y-10180429D02*
X15857381Y-10189952D01*
X15847857Y-10199476D01*
X15838333Y-10189952D01*
X15847857Y-10180429D01*
X15847857Y-10199476D01*
X15981190Y-9999476D02*
X16000238Y-9999476D01*
X16019286Y-10009000D01*
X16028809Y-10018524D01*
X16038333Y-10037571D01*
X16047857Y-10075667D01*
X16047857Y-10123286D01*
X16038333Y-10161381D01*
X16028809Y-10180429D01*
X16019286Y-10189952D01*
X16000238Y-10199476D01*
X15981190Y-10199476D01*
X15962143Y-10189952D01*
X15952619Y-10180429D01*
X15943095Y-10161381D01*
X15933571Y-10123286D01*
X15933571Y-10075667D01*
X15943095Y-10037571D01*
X15952619Y-10018524D01*
X15962143Y-10009000D01*
X15981190Y-9999476D01*
X16238333Y-10199476D02*
X16124048Y-10199476D01*
X16181190Y-10199476D02*
X16181190Y-9999476D01*
X16162143Y-10028048D01*
X16143095Y-10047095D01*
X16124048Y-10056619D01*
X16419286Y-9999476D02*
X16324048Y-9999476D01*
X16314524Y-10094714D01*
X16324048Y-10085190D01*
X16343095Y-10075667D01*
X16390714Y-10075667D01*
X16409762Y-10085190D01*
X16419286Y-10094714D01*
X16428809Y-10113762D01*
X16428809Y-10161381D01*
X16419286Y-10180429D01*
X16409762Y-10189952D01*
X16390714Y-10199476D01*
X16343095Y-10199476D01*
X16324048Y-10189952D01*
X16314524Y-10180429D01*
X16495476Y-9999476D02*
X16628809Y-9999476D01*
X16543095Y-10199476D01*
X16695476Y-9999476D02*
X16695476Y-10037571D01*
X16771667Y-9999476D02*
X16771667Y-10037571D01*
X17066905Y-10275667D02*
X17057381Y-10266143D01*
X17038333Y-10237571D01*
X17028810Y-10218524D01*
X17019286Y-10189952D01*
X17009762Y-10142333D01*
X17009762Y-10104238D01*
X17019286Y-10056619D01*
X17028810Y-10028048D01*
X17038333Y-10009000D01*
X17057381Y-9980429D01*
X17066905Y-9970905D01*
X17247857Y-10199476D02*
X17133571Y-10199476D01*
X17190714Y-10199476D02*
X17190714Y-9999476D01*
X17171667Y-10028048D01*
X17152619Y-10047095D01*
X17133571Y-10056619D01*
X17362143Y-10085190D02*
X17343095Y-10075667D01*
X17333571Y-10066143D01*
X17324048Y-10047095D01*
X17324048Y-10037571D01*
X17333571Y-10018524D01*
X17343095Y-10009000D01*
X17362143Y-9999476D01*
X17400238Y-9999476D01*
X17419286Y-10009000D01*
X17428810Y-10018524D01*
X17438333Y-10037571D01*
X17438333Y-10047095D01*
X17428810Y-10066143D01*
X17419286Y-10075667D01*
X17400238Y-10085190D01*
X17362143Y-10085190D01*
X17343095Y-10094714D01*
X17333571Y-10104238D01*
X17324048Y-10123286D01*
X17324048Y-10161381D01*
X17333571Y-10180429D01*
X17343095Y-10189952D01*
X17362143Y-10199476D01*
X17400238Y-10199476D01*
X17419286Y-10189952D01*
X17428810Y-10180429D01*
X17438333Y-10161381D01*
X17438333Y-10123286D01*
X17428810Y-10104238D01*
X17419286Y-10094714D01*
X17400238Y-10085190D01*
X17628810Y-10199476D02*
X17514524Y-10199476D01*
X17571667Y-10199476D02*
X17571667Y-9999476D01*
X17552619Y-10028048D01*
X17533571Y-10047095D01*
X17514524Y-10056619D01*
X17866905Y-10199476D02*
X17866905Y-9999476D01*
X17952619Y-10199476D02*
X17952619Y-10094714D01*
X17943095Y-10075667D01*
X17924048Y-10066143D01*
X17895476Y-10066143D01*
X17876429Y-10075667D01*
X17866905Y-10085190D01*
X18076429Y-10199476D02*
X18057381Y-10189952D01*
X18047857Y-10180429D01*
X18038333Y-10161381D01*
X18038333Y-10104238D01*
X18047857Y-10085190D01*
X18057381Y-10075667D01*
X18076429Y-10066143D01*
X18105000Y-10066143D01*
X18124048Y-10075667D01*
X18133571Y-10085190D01*
X18143095Y-10104238D01*
X18143095Y-10161381D01*
X18133571Y-10180429D01*
X18124048Y-10189952D01*
X18105000Y-10199476D01*
X18076429Y-10199476D01*
X18257381Y-10199476D02*
X18238333Y-10189952D01*
X18228810Y-10170905D01*
X18228810Y-9999476D01*
X18409762Y-10189952D02*
X18390714Y-10199476D01*
X18352619Y-10199476D01*
X18333571Y-10189952D01*
X18324048Y-10170905D01*
X18324048Y-10094714D01*
X18333571Y-10075667D01*
X18352619Y-10066143D01*
X18390714Y-10066143D01*
X18409762Y-10075667D01*
X18419286Y-10094714D01*
X18419286Y-10113762D01*
X18324048Y-10132810D01*
X18495476Y-10189952D02*
X18514524Y-10199476D01*
X18552619Y-10199476D01*
X18571667Y-10189952D01*
X18581190Y-10170905D01*
X18581190Y-10161381D01*
X18571667Y-10142333D01*
X18552619Y-10132810D01*
X18524048Y-10132810D01*
X18505000Y-10123286D01*
X18495476Y-10104238D01*
X18495476Y-10094714D01*
X18505000Y-10075667D01*
X18524048Y-10066143D01*
X18552619Y-10066143D01*
X18571667Y-10075667D01*
X18647857Y-10275667D02*
X18657381Y-10266143D01*
X18676429Y-10237571D01*
X18685952Y-10218524D01*
X18695476Y-10189952D01*
X18705000Y-10142333D01*
X18705000Y-10104238D01*
X18695476Y-10056619D01*
X18685952Y-10028048D01*
X18676429Y-10009000D01*
X18657381Y-9980429D01*
X18647857Y-9970905D01*
D14*
X13469600Y-10347600D02*
X13469600Y-10398400D01*
X13444200Y-10373000D02*
X13495000Y-10373000D01*
D11*
X13790714Y-10263476D02*
X13809762Y-10263476D01*
X13828809Y-10273000D01*
X13838333Y-10282524D01*
X13847857Y-10301571D01*
X13857381Y-10339667D01*
X13857381Y-10387286D01*
X13847857Y-10425381D01*
X13838333Y-10444429D01*
X13828809Y-10453952D01*
X13809762Y-10463476D01*
X13790714Y-10463476D01*
X13771667Y-10453952D01*
X13762143Y-10444429D01*
X13752619Y-10425381D01*
X13743095Y-10387286D01*
X13743095Y-10339667D01*
X13752619Y-10301571D01*
X13762143Y-10282524D01*
X13771667Y-10273000D01*
X13790714Y-10263476D01*
X13943095Y-10444429D02*
X13952619Y-10453952D01*
X13943095Y-10463476D01*
X13933571Y-10453952D01*
X13943095Y-10444429D01*
X13943095Y-10463476D01*
X14133571Y-10263476D02*
X14038333Y-10263476D01*
X14028809Y-10358714D01*
X14038333Y-10349190D01*
X14057381Y-10339667D01*
X14105000Y-10339667D01*
X14124048Y-10349190D01*
X14133571Y-10358714D01*
X14143095Y-10377762D01*
X14143095Y-10425381D01*
X14133571Y-10444429D01*
X14124048Y-10453952D01*
X14105000Y-10463476D01*
X14057381Y-10463476D01*
X14038333Y-10453952D01*
X14028809Y-10444429D01*
X14266905Y-10263476D02*
X14285952Y-10263476D01*
X14305000Y-10273000D01*
X14314524Y-10282524D01*
X14324048Y-10301571D01*
X14333571Y-10339667D01*
X14333571Y-10387286D01*
X14324048Y-10425381D01*
X14314524Y-10444429D01*
X14305000Y-10453952D01*
X14285952Y-10463476D01*
X14266905Y-10463476D01*
X14247857Y-10453952D01*
X14238333Y-10444429D01*
X14228809Y-10425381D01*
X14219286Y-10387286D01*
X14219286Y-10339667D01*
X14228809Y-10301571D01*
X14238333Y-10282524D01*
X14247857Y-10273000D01*
X14266905Y-10263476D01*
X14447857Y-10349190D02*
X14428809Y-10339667D01*
X14419286Y-10330143D01*
X14409762Y-10311095D01*
X14409762Y-10301571D01*
X14419286Y-10282524D01*
X14428809Y-10273000D01*
X14447857Y-10263476D01*
X14485952Y-10263476D01*
X14505000Y-10273000D01*
X14514524Y-10282524D01*
X14524048Y-10301571D01*
X14524048Y-10311095D01*
X14514524Y-10330143D01*
X14505000Y-10339667D01*
X14485952Y-10349190D01*
X14447857Y-10349190D01*
X14428809Y-10358714D01*
X14419286Y-10368238D01*
X14409762Y-10387286D01*
X14409762Y-10425381D01*
X14419286Y-10444429D01*
X14428809Y-10453952D01*
X14447857Y-10463476D01*
X14485952Y-10463476D01*
X14505000Y-10453952D01*
X14514524Y-10444429D01*
X14524048Y-10425381D01*
X14524048Y-10387286D01*
X14514524Y-10368238D01*
X14505000Y-10358714D01*
X14485952Y-10349190D01*
X14609762Y-10463476D02*
X14609762Y-10330143D01*
X14609762Y-10349190D02*
X14619286Y-10339667D01*
X14638333Y-10330143D01*
X14666905Y-10330143D01*
X14685952Y-10339667D01*
X14695476Y-10358714D01*
X14695476Y-10463476D01*
X14695476Y-10358714D02*
X14705000Y-10339667D01*
X14724048Y-10330143D01*
X14752619Y-10330143D01*
X14771667Y-10339667D01*
X14781190Y-10358714D01*
X14781190Y-10463476D01*
X14876428Y-10463476D02*
X14876428Y-10330143D01*
X14876428Y-10349190D02*
X14885952Y-10339667D01*
X14905000Y-10330143D01*
X14933571Y-10330143D01*
X14952619Y-10339667D01*
X14962143Y-10358714D01*
X14962143Y-10463476D01*
X14962143Y-10358714D02*
X14971667Y-10339667D01*
X14990714Y-10330143D01*
X15019286Y-10330143D01*
X15038333Y-10339667D01*
X15047857Y-10358714D01*
X15047857Y-10463476D01*
X15438333Y-10253952D02*
X15266905Y-10511095D01*
X15695476Y-10263476D02*
X15714524Y-10263476D01*
X15733571Y-10273000D01*
X15743095Y-10282524D01*
X15752619Y-10301571D01*
X15762143Y-10339667D01*
X15762143Y-10387286D01*
X15752619Y-10425381D01*
X15743095Y-10444429D01*
X15733571Y-10453952D01*
X15714524Y-10463476D01*
X15695476Y-10463476D01*
X15676428Y-10453952D01*
X15666905Y-10444429D01*
X15657381Y-10425381D01*
X15647857Y-10387286D01*
X15647857Y-10339667D01*
X15657381Y-10301571D01*
X15666905Y-10282524D01*
X15676428Y-10273000D01*
X15695476Y-10263476D01*
X15847857Y-10444429D02*
X15857381Y-10453952D01*
X15847857Y-10463476D01*
X15838333Y-10453952D01*
X15847857Y-10444429D01*
X15847857Y-10463476D01*
X15981190Y-10263476D02*
X16000238Y-10263476D01*
X16019286Y-10273000D01*
X16028809Y-10282524D01*
X16038333Y-10301571D01*
X16047857Y-10339667D01*
X16047857Y-10387286D01*
X16038333Y-10425381D01*
X16028809Y-10444429D01*
X16019286Y-10453952D01*
X16000238Y-10463476D01*
X15981190Y-10463476D01*
X15962143Y-10453952D01*
X15952619Y-10444429D01*
X15943095Y-10425381D01*
X15933571Y-10387286D01*
X15933571Y-10339667D01*
X15943095Y-10301571D01*
X15952619Y-10282524D01*
X15962143Y-10273000D01*
X15981190Y-10263476D01*
X16124048Y-10282524D02*
X16133571Y-10273000D01*
X16152619Y-10263476D01*
X16200238Y-10263476D01*
X16219286Y-10273000D01*
X16228809Y-10282524D01*
X16238333Y-10301571D01*
X16238333Y-10320619D01*
X16228809Y-10349190D01*
X16114524Y-10463476D01*
X16238333Y-10463476D01*
X16362143Y-10263476D02*
X16381190Y-10263476D01*
X16400238Y-10273000D01*
X16409762Y-10282524D01*
X16419286Y-10301571D01*
X16428809Y-10339667D01*
X16428809Y-10387286D01*
X16419286Y-10425381D01*
X16409762Y-10444429D01*
X16400238Y-10453952D01*
X16381190Y-10463476D01*
X16362143Y-10463476D01*
X16343095Y-10453952D01*
X16333571Y-10444429D01*
X16324048Y-10425381D01*
X16314524Y-10387286D01*
X16314524Y-10339667D01*
X16324048Y-10301571D01*
X16333571Y-10282524D01*
X16343095Y-10273000D01*
X16362143Y-10263476D01*
X16552619Y-10263476D02*
X16571667Y-10263476D01*
X16590714Y-10273000D01*
X16600238Y-10282524D01*
X16609762Y-10301571D01*
X16619286Y-10339667D01*
X16619286Y-10387286D01*
X16609762Y-10425381D01*
X16600238Y-10444429D01*
X16590714Y-10453952D01*
X16571667Y-10463476D01*
X16552619Y-10463476D01*
X16533571Y-10453952D01*
X16524048Y-10444429D01*
X16514524Y-10425381D01*
X16505000Y-10387286D01*
X16505000Y-10339667D01*
X16514524Y-10301571D01*
X16524048Y-10282524D01*
X16533571Y-10273000D01*
X16552619Y-10263476D01*
X16695476Y-10263476D02*
X16695476Y-10301571D01*
X16771667Y-10263476D02*
X16771667Y-10301571D01*
X17066905Y-10539667D02*
X17057381Y-10530143D01*
X17038333Y-10501571D01*
X17028810Y-10482524D01*
X17019286Y-10453952D01*
X17009762Y-10406333D01*
X17009762Y-10368238D01*
X17019286Y-10320619D01*
X17028810Y-10292048D01*
X17038333Y-10273000D01*
X17057381Y-10244429D01*
X17066905Y-10234905D01*
X17124048Y-10263476D02*
X17247857Y-10263476D01*
X17181190Y-10339667D01*
X17209762Y-10339667D01*
X17228810Y-10349190D01*
X17238333Y-10358714D01*
X17247857Y-10377762D01*
X17247857Y-10425381D01*
X17238333Y-10444429D01*
X17228810Y-10453952D01*
X17209762Y-10463476D01*
X17152619Y-10463476D01*
X17133571Y-10453952D01*
X17124048Y-10444429D01*
X17324048Y-10282524D02*
X17333571Y-10273000D01*
X17352619Y-10263476D01*
X17400238Y-10263476D01*
X17419286Y-10273000D01*
X17428810Y-10282524D01*
X17438333Y-10301571D01*
X17438333Y-10320619D01*
X17428810Y-10349190D01*
X17314524Y-10463476D01*
X17438333Y-10463476D01*
X17676429Y-10463476D02*
X17676429Y-10263476D01*
X17762143Y-10463476D02*
X17762143Y-10358714D01*
X17752619Y-10339667D01*
X17733571Y-10330143D01*
X17705000Y-10330143D01*
X17685952Y-10339667D01*
X17676429Y-10349190D01*
X17885952Y-10463476D02*
X17866905Y-10453952D01*
X17857381Y-10444429D01*
X17847857Y-10425381D01*
X17847857Y-10368238D01*
X17857381Y-10349190D01*
X17866905Y-10339667D01*
X17885952Y-10330143D01*
X17914524Y-10330143D01*
X17933571Y-10339667D01*
X17943095Y-10349190D01*
X17952619Y-10368238D01*
X17952619Y-10425381D01*
X17943095Y-10444429D01*
X17933571Y-10453952D01*
X17914524Y-10463476D01*
X17885952Y-10463476D01*
X18066905Y-10463476D02*
X18047857Y-10453952D01*
X18038333Y-10434905D01*
X18038333Y-10263476D01*
X18219286Y-10453952D02*
X18200238Y-10463476D01*
X18162143Y-10463476D01*
X18143095Y-10453952D01*
X18133571Y-10434905D01*
X18133571Y-10358714D01*
X18143095Y-10339667D01*
X18162143Y-10330143D01*
X18200238Y-10330143D01*
X18219286Y-10339667D01*
X18228810Y-10358714D01*
X18228810Y-10377762D01*
X18133571Y-10396810D01*
X18305000Y-10453952D02*
X18324048Y-10463476D01*
X18362143Y-10463476D01*
X18381190Y-10453952D01*
X18390714Y-10434905D01*
X18390714Y-10425381D01*
X18381190Y-10406333D01*
X18362143Y-10396810D01*
X18333571Y-10396810D01*
X18314524Y-10387286D01*
X18305000Y-10368238D01*
X18305000Y-10358714D01*
X18314524Y-10339667D01*
X18333571Y-10330143D01*
X18362143Y-10330143D01*
X18381190Y-10339667D01*
X18457381Y-10539667D02*
X18466905Y-10530143D01*
X18485952Y-10501571D01*
X18495476Y-10482524D01*
X18505000Y-10453952D01*
X18514524Y-10406333D01*
X18514524Y-10368238D01*
X18505000Y-10320619D01*
X18495476Y-10292048D01*
X18485952Y-10273000D01*
X18466905Y-10244429D01*
X18457381Y-10234905D01*
D15*
X13475955Y-10682979D02*
X13475955Y-10591021D01*
X13383997Y-10591021D01*
X13383997Y-10682979D01*
X13475955Y-10682979D01*
D11*
X13857381Y-10727476D02*
X13743095Y-10727476D01*
X13800238Y-10727476D02*
X13800238Y-10527476D01*
X13781190Y-10556048D01*
X13762143Y-10575095D01*
X13743095Y-10584619D01*
X13943095Y-10708429D02*
X13952619Y-10717952D01*
X13943095Y-10727476D01*
X13933571Y-10717952D01*
X13943095Y-10708429D01*
X13943095Y-10727476D01*
X14019286Y-10527476D02*
X14143095Y-10527476D01*
X14076428Y-10603667D01*
X14105000Y-10603667D01*
X14124048Y-10613190D01*
X14133571Y-10622714D01*
X14143095Y-10641762D01*
X14143095Y-10689381D01*
X14133571Y-10708429D01*
X14124048Y-10717952D01*
X14105000Y-10727476D01*
X14047857Y-10727476D01*
X14028809Y-10717952D01*
X14019286Y-10708429D01*
X14266905Y-10527476D02*
X14285952Y-10527476D01*
X14305000Y-10537000D01*
X14314524Y-10546524D01*
X14324048Y-10565571D01*
X14333571Y-10603667D01*
X14333571Y-10651286D01*
X14324048Y-10689381D01*
X14314524Y-10708429D01*
X14305000Y-10717952D01*
X14285952Y-10727476D01*
X14266905Y-10727476D01*
X14247857Y-10717952D01*
X14238333Y-10708429D01*
X14228809Y-10689381D01*
X14219286Y-10651286D01*
X14219286Y-10603667D01*
X14228809Y-10565571D01*
X14238333Y-10546524D01*
X14247857Y-10537000D01*
X14266905Y-10527476D01*
X14457381Y-10527476D02*
X14476428Y-10527476D01*
X14495476Y-10537000D01*
X14505000Y-10546524D01*
X14514524Y-10565571D01*
X14524048Y-10603667D01*
X14524048Y-10651286D01*
X14514524Y-10689381D01*
X14505000Y-10708429D01*
X14495476Y-10717952D01*
X14476428Y-10727476D01*
X14457381Y-10727476D01*
X14438333Y-10717952D01*
X14428809Y-10708429D01*
X14419286Y-10689381D01*
X14409762Y-10651286D01*
X14409762Y-10603667D01*
X14419286Y-10565571D01*
X14428809Y-10546524D01*
X14438333Y-10537000D01*
X14457381Y-10527476D01*
X14609762Y-10727476D02*
X14609762Y-10594143D01*
X14609762Y-10613190D02*
X14619286Y-10603667D01*
X14638333Y-10594143D01*
X14666905Y-10594143D01*
X14685952Y-10603667D01*
X14695476Y-10622714D01*
X14695476Y-10727476D01*
X14695476Y-10622714D02*
X14705000Y-10603667D01*
X14724048Y-10594143D01*
X14752619Y-10594143D01*
X14771667Y-10603667D01*
X14781190Y-10622714D01*
X14781190Y-10727476D01*
X14876428Y-10727476D02*
X14876428Y-10594143D01*
X14876428Y-10613190D02*
X14885952Y-10603667D01*
X14905000Y-10594143D01*
X14933571Y-10594143D01*
X14952619Y-10603667D01*
X14962143Y-10622714D01*
X14962143Y-10727476D01*
X14962143Y-10622714D02*
X14971667Y-10603667D01*
X14990714Y-10594143D01*
X15019286Y-10594143D01*
X15038333Y-10603667D01*
X15047857Y-10622714D01*
X15047857Y-10727476D01*
X15438333Y-10517952D02*
X15266905Y-10775095D01*
X15695476Y-10527476D02*
X15714524Y-10527476D01*
X15733571Y-10537000D01*
X15743095Y-10546524D01*
X15752619Y-10565571D01*
X15762143Y-10603667D01*
X15762143Y-10651286D01*
X15752619Y-10689381D01*
X15743095Y-10708429D01*
X15733571Y-10717952D01*
X15714524Y-10727476D01*
X15695476Y-10727476D01*
X15676428Y-10717952D01*
X15666905Y-10708429D01*
X15657381Y-10689381D01*
X15647857Y-10651286D01*
X15647857Y-10603667D01*
X15657381Y-10565571D01*
X15666905Y-10546524D01*
X15676428Y-10537000D01*
X15695476Y-10527476D01*
X15847857Y-10708429D02*
X15857381Y-10717952D01*
X15847857Y-10727476D01*
X15838333Y-10717952D01*
X15847857Y-10708429D01*
X15847857Y-10727476D01*
X15981190Y-10527476D02*
X16000238Y-10527476D01*
X16019286Y-10537000D01*
X16028809Y-10546524D01*
X16038333Y-10565571D01*
X16047857Y-10603667D01*
X16047857Y-10651286D01*
X16038333Y-10689381D01*
X16028809Y-10708429D01*
X16019286Y-10717952D01*
X16000238Y-10727476D01*
X15981190Y-10727476D01*
X15962143Y-10717952D01*
X15952619Y-10708429D01*
X15943095Y-10689381D01*
X15933571Y-10651286D01*
X15933571Y-10603667D01*
X15943095Y-10565571D01*
X15952619Y-10546524D01*
X15962143Y-10537000D01*
X15981190Y-10527476D01*
X16228809Y-10527476D02*
X16133571Y-10527476D01*
X16124048Y-10622714D01*
X16133571Y-10613190D01*
X16152619Y-10603667D01*
X16200238Y-10603667D01*
X16219286Y-10613190D01*
X16228809Y-10622714D01*
X16238333Y-10641762D01*
X16238333Y-10689381D01*
X16228809Y-10708429D01*
X16219286Y-10717952D01*
X16200238Y-10727476D01*
X16152619Y-10727476D01*
X16133571Y-10717952D01*
X16124048Y-10708429D01*
X16428809Y-10727476D02*
X16314524Y-10727476D01*
X16371667Y-10727476D02*
X16371667Y-10527476D01*
X16352619Y-10556048D01*
X16333571Y-10575095D01*
X16314524Y-10584619D01*
X16505000Y-10546524D02*
X16514524Y-10537000D01*
X16533571Y-10527476D01*
X16581190Y-10527476D01*
X16600238Y-10537000D01*
X16609762Y-10546524D01*
X16619286Y-10565571D01*
X16619286Y-10584619D01*
X16609762Y-10613190D01*
X16495476Y-10727476D01*
X16619286Y-10727476D01*
X16695476Y-10527476D02*
X16695476Y-10565571D01*
X16771667Y-10527476D02*
X16771667Y-10565571D01*
X17066905Y-10803667D02*
X17057381Y-10794143D01*
X17038333Y-10765571D01*
X17028810Y-10746524D01*
X17019286Y-10717952D01*
X17009762Y-10670333D01*
X17009762Y-10632238D01*
X17019286Y-10584619D01*
X17028810Y-10556048D01*
X17038333Y-10537000D01*
X17057381Y-10508429D01*
X17066905Y-10498905D01*
X17124048Y-10527476D02*
X17247857Y-10527476D01*
X17181190Y-10603667D01*
X17209762Y-10603667D01*
X17228810Y-10613190D01*
X17238333Y-10622714D01*
X17247857Y-10641762D01*
X17247857Y-10689381D01*
X17238333Y-10708429D01*
X17228810Y-10717952D01*
X17209762Y-10727476D01*
X17152619Y-10727476D01*
X17133571Y-10717952D01*
X17124048Y-10708429D01*
X17371667Y-10527476D02*
X17390714Y-10527476D01*
X17409762Y-10537000D01*
X17419286Y-10546524D01*
X17428810Y-10565571D01*
X17438333Y-10603667D01*
X17438333Y-10651286D01*
X17428810Y-10689381D01*
X17419286Y-10708429D01*
X17409762Y-10717952D01*
X17390714Y-10727476D01*
X17371667Y-10727476D01*
X17352619Y-10717952D01*
X17343095Y-10708429D01*
X17333571Y-10689381D01*
X17324048Y-10651286D01*
X17324048Y-10603667D01*
X17333571Y-10565571D01*
X17343095Y-10546524D01*
X17352619Y-10537000D01*
X17371667Y-10527476D01*
X17676429Y-10727476D02*
X17676429Y-10527476D01*
X17762143Y-10727476D02*
X17762143Y-10622714D01*
X17752619Y-10603667D01*
X17733571Y-10594143D01*
X17705000Y-10594143D01*
X17685952Y-10603667D01*
X17676429Y-10613190D01*
X17885952Y-10727476D02*
X17866905Y-10717952D01*
X17857381Y-10708429D01*
X17847857Y-10689381D01*
X17847857Y-10632238D01*
X17857381Y-10613190D01*
X17866905Y-10603667D01*
X17885952Y-10594143D01*
X17914524Y-10594143D01*
X17933571Y-10603667D01*
X17943095Y-10613190D01*
X17952619Y-10632238D01*
X17952619Y-10689381D01*
X17943095Y-10708429D01*
X17933571Y-10717952D01*
X17914524Y-10727476D01*
X17885952Y-10727476D01*
X18066905Y-10727476D02*
X18047857Y-10717952D01*
X18038333Y-10698905D01*
X18038333Y-10527476D01*
X18219286Y-10717952D02*
X18200238Y-10727476D01*
X18162143Y-10727476D01*
X18143095Y-10717952D01*
X18133571Y-10698905D01*
X18133571Y-10622714D01*
X18143095Y-10603667D01*
X18162143Y-10594143D01*
X18200238Y-10594143D01*
X18219286Y-10603667D01*
X18228810Y-10622714D01*
X18228810Y-10641762D01*
X18133571Y-10660810D01*
X18305000Y-10717952D02*
X18324048Y-10727476D01*
X18362143Y-10727476D01*
X18381190Y-10717952D01*
X18390714Y-10698905D01*
X18390714Y-10689381D01*
X18381190Y-10670333D01*
X18362143Y-10660810D01*
X18333571Y-10660810D01*
X18314524Y-10651286D01*
X18305000Y-10632238D01*
X18305000Y-10622714D01*
X18314524Y-10603667D01*
X18333571Y-10594143D01*
X18362143Y-10594143D01*
X18381190Y-10603667D01*
X18457381Y-10803667D02*
X18466905Y-10794143D01*
X18485952Y-10765571D01*
X18495476Y-10746524D01*
X18505000Y-10717952D01*
X18514524Y-10670333D01*
X18514524Y-10632238D01*
X18505000Y-10584619D01*
X18495476Y-10556048D01*
X18485952Y-10537000D01*
X18466905Y-10508429D01*
X18457381Y-10498905D01*
X13395000Y-11001000D02*
X13495000Y-10901000D01*
X13395000Y-10801000D01*
X13295000Y-10901000D01*
X13395000Y-11001000D01*
X13733571Y-10791476D02*
X13857381Y-10791476D01*
X13790714Y-10867667D01*
X13819286Y-10867667D01*
X13838333Y-10877190D01*
X13847857Y-10886714D01*
X13857381Y-10905762D01*
X13857381Y-10953381D01*
X13847857Y-10972429D01*
X13838333Y-10981952D01*
X13819286Y-10991476D01*
X13762143Y-10991476D01*
X13743095Y-10981952D01*
X13733571Y-10972429D01*
X13943095Y-10972429D02*
X13952619Y-10981952D01*
X13943095Y-10991476D01*
X13933571Y-10981952D01*
X13943095Y-10972429D01*
X13943095Y-10991476D01*
X14028809Y-10810524D02*
X14038333Y-10801000D01*
X14057381Y-10791476D01*
X14105000Y-10791476D01*
X14124048Y-10801000D01*
X14133571Y-10810524D01*
X14143095Y-10829571D01*
X14143095Y-10848619D01*
X14133571Y-10877190D01*
X14019286Y-10991476D01*
X14143095Y-10991476D01*
X14266905Y-10791476D02*
X14285952Y-10791476D01*
X14305000Y-10801000D01*
X14314524Y-10810524D01*
X14324048Y-10829571D01*
X14333571Y-10867667D01*
X14333571Y-10915286D01*
X14324048Y-10953381D01*
X14314524Y-10972429D01*
X14305000Y-10981952D01*
X14285952Y-10991476D01*
X14266905Y-10991476D01*
X14247857Y-10981952D01*
X14238333Y-10972429D01*
X14228809Y-10953381D01*
X14219286Y-10915286D01*
X14219286Y-10867667D01*
X14228809Y-10829571D01*
X14238333Y-10810524D01*
X14247857Y-10801000D01*
X14266905Y-10791476D01*
X14457381Y-10791476D02*
X14476428Y-10791476D01*
X14495476Y-10801000D01*
X14505000Y-10810524D01*
X14514524Y-10829571D01*
X14524048Y-10867667D01*
X14524048Y-10915286D01*
X14514524Y-10953381D01*
X14505000Y-10972429D01*
X14495476Y-10981952D01*
X14476428Y-10991476D01*
X14457381Y-10991476D01*
X14438333Y-10981952D01*
X14428809Y-10972429D01*
X14419286Y-10953381D01*
X14409762Y-10915286D01*
X14409762Y-10867667D01*
X14419286Y-10829571D01*
X14428809Y-10810524D01*
X14438333Y-10801000D01*
X14457381Y-10791476D01*
X14609762Y-10991476D02*
X14609762Y-10858143D01*
X14609762Y-10877190D02*
X14619286Y-10867667D01*
X14638333Y-10858143D01*
X14666905Y-10858143D01*
X14685952Y-10867667D01*
X14695476Y-10886714D01*
X14695476Y-10991476D01*
X14695476Y-10886714D02*
X14705000Y-10867667D01*
X14724048Y-10858143D01*
X14752619Y-10858143D01*
X14771667Y-10867667D01*
X14781190Y-10886714D01*
X14781190Y-10991476D01*
X14876428Y-10991476D02*
X14876428Y-10858143D01*
X14876428Y-10877190D02*
X14885952Y-10867667D01*
X14905000Y-10858143D01*
X14933571Y-10858143D01*
X14952619Y-10867667D01*
X14962143Y-10886714D01*
X14962143Y-10991476D01*
X14962143Y-10886714D02*
X14971667Y-10867667D01*
X14990714Y-10858143D01*
X15019286Y-10858143D01*
X15038333Y-10867667D01*
X15047857Y-10886714D01*
X15047857Y-10991476D01*
X15438333Y-10781952D02*
X15266905Y-11039095D01*
X15695476Y-10791476D02*
X15714524Y-10791476D01*
X15733571Y-10801000D01*
X15743095Y-10810524D01*
X15752619Y-10829571D01*
X15762143Y-10867667D01*
X15762143Y-10915286D01*
X15752619Y-10953381D01*
X15743095Y-10972429D01*
X15733571Y-10981952D01*
X15714524Y-10991476D01*
X15695476Y-10991476D01*
X15676428Y-10981952D01*
X15666905Y-10972429D01*
X15657381Y-10953381D01*
X15647857Y-10915286D01*
X15647857Y-10867667D01*
X15657381Y-10829571D01*
X15666905Y-10810524D01*
X15676428Y-10801000D01*
X15695476Y-10791476D01*
X15847857Y-10972429D02*
X15857381Y-10981952D01*
X15847857Y-10991476D01*
X15838333Y-10981952D01*
X15847857Y-10972429D01*
X15847857Y-10991476D01*
X16047857Y-10991476D02*
X15933571Y-10991476D01*
X15990714Y-10991476D02*
X15990714Y-10791476D01*
X15971667Y-10820048D01*
X15952619Y-10839095D01*
X15933571Y-10848619D01*
X16124048Y-10810524D02*
X16133571Y-10801000D01*
X16152619Y-10791476D01*
X16200238Y-10791476D01*
X16219286Y-10801000D01*
X16228809Y-10810524D01*
X16238333Y-10829571D01*
X16238333Y-10848619D01*
X16228809Y-10877190D01*
X16114524Y-10991476D01*
X16238333Y-10991476D01*
X16409762Y-10791476D02*
X16371667Y-10791476D01*
X16352619Y-10801000D01*
X16343095Y-10810524D01*
X16324048Y-10839095D01*
X16314524Y-10877190D01*
X16314524Y-10953381D01*
X16324048Y-10972429D01*
X16333571Y-10981952D01*
X16352619Y-10991476D01*
X16390714Y-10991476D01*
X16409762Y-10981952D01*
X16419286Y-10972429D01*
X16428809Y-10953381D01*
X16428809Y-10905762D01*
X16419286Y-10886714D01*
X16409762Y-10877190D01*
X16390714Y-10867667D01*
X16352619Y-10867667D01*
X16333571Y-10877190D01*
X16324048Y-10886714D01*
X16314524Y-10905762D01*
X16552619Y-10791476D02*
X16571667Y-10791476D01*
X16590714Y-10801000D01*
X16600238Y-10810524D01*
X16609762Y-10829571D01*
X16619286Y-10867667D01*
X16619286Y-10915286D01*
X16609762Y-10953381D01*
X16600238Y-10972429D01*
X16590714Y-10981952D01*
X16571667Y-10991476D01*
X16552619Y-10991476D01*
X16533571Y-10981952D01*
X16524048Y-10972429D01*
X16514524Y-10953381D01*
X16505000Y-10915286D01*
X16505000Y-10867667D01*
X16514524Y-10829571D01*
X16524048Y-10810524D01*
X16533571Y-10801000D01*
X16552619Y-10791476D01*
X16695476Y-10791476D02*
X16695476Y-10829571D01*
X16771667Y-10791476D02*
X16771667Y-10829571D01*
X17066905Y-11067667D02*
X17057381Y-11058143D01*
X17038333Y-11029571D01*
X17028810Y-11010524D01*
X17019286Y-10981952D01*
X17009762Y-10934333D01*
X17009762Y-10896238D01*
X17019286Y-10848619D01*
X17028810Y-10820048D01*
X17038333Y-10801000D01*
X17057381Y-10772429D01*
X17066905Y-10762905D01*
X17228810Y-10858143D02*
X17228810Y-10991476D01*
X17181190Y-10781952D02*
X17133571Y-10924810D01*
X17257381Y-10924810D01*
X17485952Y-10991476D02*
X17485952Y-10791476D01*
X17571667Y-10991476D02*
X17571667Y-10886714D01*
X17562143Y-10867667D01*
X17543095Y-10858143D01*
X17514524Y-10858143D01*
X17495476Y-10867667D01*
X17485952Y-10877190D01*
X17695476Y-10991476D02*
X17676429Y-10981952D01*
X17666905Y-10972429D01*
X17657381Y-10953381D01*
X17657381Y-10896238D01*
X17666905Y-10877190D01*
X17676429Y-10867667D01*
X17695476Y-10858143D01*
X17724048Y-10858143D01*
X17743095Y-10867667D01*
X17752619Y-10877190D01*
X17762143Y-10896238D01*
X17762143Y-10953381D01*
X17752619Y-10972429D01*
X17743095Y-10981952D01*
X17724048Y-10991476D01*
X17695476Y-10991476D01*
X17876429Y-10991476D02*
X17857381Y-10981952D01*
X17847857Y-10962905D01*
X17847857Y-10791476D01*
X18028810Y-10981952D02*
X18009762Y-10991476D01*
X17971667Y-10991476D01*
X17952619Y-10981952D01*
X17943095Y-10962905D01*
X17943095Y-10886714D01*
X17952619Y-10867667D01*
X17971667Y-10858143D01*
X18009762Y-10858143D01*
X18028810Y-10867667D01*
X18038333Y-10886714D01*
X18038333Y-10905762D01*
X17943095Y-10924810D01*
X18114524Y-10981952D02*
X18133571Y-10991476D01*
X18171667Y-10991476D01*
X18190714Y-10981952D01*
X18200238Y-10962905D01*
X18200238Y-10953381D01*
X18190714Y-10934333D01*
X18171667Y-10924810D01*
X18143095Y-10924810D01*
X18124048Y-10915286D01*
X18114524Y-10896238D01*
X18114524Y-10886714D01*
X18124048Y-10867667D01*
X18143095Y-10858143D01*
X18171667Y-10858143D01*
X18190714Y-10867667D01*
X18266905Y-11067667D02*
X18276429Y-11058143D01*
X18295476Y-11029571D01*
X18305000Y-11010524D01*
X18314524Y-10981952D01*
X18324048Y-10934333D01*
X18324048Y-10896238D01*
X18314524Y-10848619D01*
X18305000Y-10820048D01*
X18295476Y-10801000D01*
X18276429Y-10772429D01*
X18266905Y-10762905D01*
M02*
