G04 #@! TF.GenerationSoftware,KiCad,Pcbnew,7.0.1*
G04 #@! TF.CreationDate,2023-04-16T22:07:55+02:00*
G04 #@! TF.ProjectId,aliasing,616c6961-7369-46e6-972e-6b696361645f,rev?*
G04 #@! TF.SameCoordinates,Original*
G04 #@! TF.FileFunction,Copper,L2,Bot*
G04 #@! TF.FilePolarity,Positive*
%FSLAX46Y46*%
G04 Gerber Fmt 4.6, Leading zero omitted, Abs format (unit mm)*
G04 Created by KiCad (PCBNEW 7.0.1) date 2023-04-16 22:07:55*
%MOMM*%
%LPD*%
G01*
G04 APERTURE LIST*
G04 Aperture macros list*
%AMRoundRect*
0 Rectangle with rounded corners*
0 $1 Rounding radius*
0 $2 $3 $4 $5 $6 $7 $8 $9 X,Y pos of 4 corners*
0 Add a 4 corners polygon primitive as box body*
4,1,4,$2,$3,$4,$5,$6,$7,$8,$9,$2,$3,0*
0 Add four circle primitives for the rounded corners*
1,1,$1+$1,$2,$3*
1,1,$1+$1,$4,$5*
1,1,$1+$1,$6,$7*
1,1,$1+$1,$8,$9*
0 Add four rect primitives between the rounded corners*
20,1,$1+$1,$2,$3,$4,$5,0*
20,1,$1+$1,$4,$5,$6,$7,0*
20,1,$1+$1,$6,$7,$8,$9,0*
20,1,$1+$1,$8,$9,$2,$3,0*%
G04 Aperture macros list end*
G04 #@! TA.AperFunction,ComponentPad*
%ADD10C,0.610000*%
G04 #@! TD*
G04 #@! TA.AperFunction,ComponentPad*
%ADD11C,1.998980*%
G04 #@! TD*
G04 #@! TA.AperFunction,ComponentPad*
%ADD12C,2.499360*%
G04 #@! TD*
G04 #@! TA.AperFunction,ComponentPad*
%ADD13C,1.016000*%
G04 #@! TD*
G04 #@! TA.AperFunction,ComponentPad*
%ADD14C,5.700000*%
G04 #@! TD*
G04 #@! TA.AperFunction,SMDPad,CuDef*
%ADD15RoundRect,0.112500X0.112500X-0.187500X0.112500X0.187500X-0.112500X0.187500X-0.112500X-0.187500X0*%
G04 #@! TD*
G04 #@! TA.AperFunction,ViaPad*
%ADD16C,0.800000*%
G04 #@! TD*
G04 APERTURE END LIST*
D10*
X158800000Y-77250000D03*
X159000000Y-80500000D03*
X161000000Y-77300000D03*
X161100000Y-80500000D03*
D11*
X180000000Y-50000000D03*
D12*
X177460000Y-47460000D03*
X177460000Y-52540000D03*
X182540000Y-47460000D03*
X182540000Y-52540000D03*
D13*
X162055000Y-60555000D03*
X162055000Y-69445000D03*
X165230000Y-63730000D03*
X165230000Y-66270000D03*
X167770000Y-63730000D03*
X167770000Y-66270000D03*
X170945000Y-60555000D03*
X170945000Y-69445000D03*
D11*
X140000000Y-50000000D03*
D12*
X142540000Y-52540000D03*
X142540000Y-47460000D03*
X137460000Y-52540000D03*
X137460000Y-47460000D03*
D14*
X181500000Y-39000000D03*
D11*
X140000000Y-65000000D03*
D12*
X142540000Y-67540000D03*
X142540000Y-62460000D03*
X137460000Y-67540000D03*
X137460000Y-62460000D03*
D13*
X148991000Y-45555000D03*
X148991000Y-54445000D03*
X152166000Y-48730000D03*
X152166000Y-51270000D03*
X154706000Y-48730000D03*
X154706000Y-51270000D03*
X157881000Y-45555000D03*
X157881000Y-54445000D03*
D14*
X181500000Y-88000000D03*
D13*
X149055000Y-60555000D03*
X149055000Y-69445000D03*
X152230000Y-63730000D03*
X152230000Y-66270000D03*
X154770000Y-63730000D03*
X154770000Y-66270000D03*
X157945000Y-60555000D03*
X157945000Y-69445000D03*
D14*
X138500000Y-88000000D03*
D13*
X161872000Y-45555000D03*
X161872000Y-54445000D03*
X165047000Y-48730000D03*
X165047000Y-51270000D03*
X167587000Y-48730000D03*
X167587000Y-51270000D03*
X170762000Y-45555000D03*
X170762000Y-54445000D03*
D11*
X140071044Y-79080000D03*
D12*
X142611044Y-81620000D03*
X142611044Y-76540000D03*
X137531044Y-81620000D03*
X137531044Y-76540000D03*
D14*
X138500000Y-39000000D03*
D11*
X180000000Y-65000000D03*
D12*
X177460000Y-62460000D03*
X177460000Y-67540000D03*
X182540000Y-62460000D03*
X182540000Y-67540000D03*
D11*
X180000000Y-79000000D03*
D12*
X177460000Y-76460000D03*
X177460000Y-81540000D03*
X182540000Y-76460000D03*
X182540000Y-81540000D03*
D15*
X180000000Y-53050000D03*
X180000000Y-50950000D03*
X180000000Y-68000000D03*
X180000000Y-65900000D03*
D16*
X142000000Y-60500000D03*
X182500000Y-69500000D03*
X160000000Y-81500000D03*
X166000000Y-44000000D03*
X170500000Y-57500000D03*
X176500000Y-45000000D03*
X158500000Y-73000000D03*
X157000000Y-73000000D03*
X179500000Y-60500000D03*
X151500000Y-82500000D03*
X164500000Y-44000000D03*
X156500000Y-75500000D03*
X179500000Y-45000000D03*
X160500000Y-82500000D03*
X149000000Y-75500000D03*
X148000000Y-57500000D03*
X142000000Y-84000000D03*
X151000000Y-57500000D03*
X158500000Y-44000000D03*
X147500000Y-75500000D03*
X149500000Y-73000000D03*
X169000000Y-57500000D03*
X136000000Y-84000000D03*
X153500000Y-75500000D03*
X179500000Y-69500000D03*
X137500000Y-45000000D03*
X154000000Y-73000000D03*
X166000000Y-57500000D03*
X136000000Y-69500000D03*
X184000000Y-60500000D03*
X136000000Y-45000000D03*
X175500000Y-82500000D03*
X168000000Y-82500000D03*
X153000000Y-82500000D03*
X172000000Y-44000000D03*
X155500000Y-44000000D03*
X162000000Y-82500000D03*
X146500000Y-55000000D03*
X149500000Y-44000000D03*
X173000000Y-71500000D03*
X146000000Y-75500000D03*
X152500000Y-57500000D03*
X144500000Y-75500000D03*
X154000000Y-44000000D03*
X151000000Y-44000000D03*
X137500000Y-84000000D03*
X167500000Y-44000000D03*
X161500000Y-73000000D03*
X178000000Y-54500000D03*
X148000000Y-44000000D03*
X137500000Y-60500000D03*
X139000000Y-60500000D03*
X169500000Y-75500000D03*
X182500000Y-54500000D03*
X151000000Y-73000000D03*
X174000000Y-75500000D03*
X164500000Y-57500000D03*
X139000000Y-45000000D03*
X158300000Y-76400000D03*
X155500000Y-57500000D03*
X158500000Y-75500000D03*
X182500000Y-84000000D03*
X158500000Y-57500000D03*
X140500000Y-69500000D03*
X166500000Y-75500000D03*
X175000000Y-69500000D03*
X145000000Y-45000000D03*
X145000000Y-60500000D03*
X160000000Y-44000000D03*
X169000000Y-73000000D03*
X143500000Y-45000000D03*
X136000000Y-55000000D03*
X163500000Y-75500000D03*
X176500000Y-69500000D03*
X176500000Y-84000000D03*
X182500000Y-60500000D03*
X181000000Y-60500000D03*
X158500000Y-81500000D03*
X156000000Y-82500000D03*
X160000000Y-76500000D03*
X140500000Y-60500000D03*
X171000000Y-75500000D03*
X140500000Y-55000000D03*
X147500000Y-71500000D03*
X175000000Y-54500000D03*
X179500000Y-84000000D03*
X167500000Y-73000000D03*
X179500000Y-54500000D03*
X146500000Y-45000000D03*
X172000000Y-57500000D03*
X152500000Y-44000000D03*
X146500000Y-69500000D03*
X173500000Y-45000000D03*
X155000000Y-75500000D03*
X164500000Y-73000000D03*
X137500000Y-55000000D03*
X160000000Y-57500000D03*
X142000000Y-55000000D03*
X170500000Y-44000000D03*
X145000000Y-55000000D03*
X181000000Y-45000000D03*
X148000000Y-73000000D03*
X184000000Y-54500000D03*
X176500000Y-54500000D03*
X163500000Y-82500000D03*
X143500000Y-55000000D03*
X160000000Y-73000000D03*
X157500000Y-82500000D03*
X140500000Y-84000000D03*
X142000000Y-45000000D03*
X166000000Y-73000000D03*
X142000000Y-69500000D03*
X178000000Y-84000000D03*
X161600000Y-76400000D03*
X154000000Y-57500000D03*
X178000000Y-69500000D03*
X139000000Y-69500000D03*
X145500000Y-82500000D03*
X167500000Y-57500000D03*
X163000000Y-57500000D03*
X140500000Y-45000000D03*
X182500000Y-45000000D03*
X159000000Y-82500000D03*
X163000000Y-73000000D03*
X163000000Y-44000000D03*
X147500000Y-59000000D03*
X152000000Y-75500000D03*
X157000000Y-44000000D03*
X155500000Y-73000000D03*
X173500000Y-69500000D03*
X143500000Y-69500000D03*
X173000000Y-56000000D03*
X161500000Y-57500000D03*
X161500000Y-44000000D03*
X136000000Y-60500000D03*
X161500000Y-75500000D03*
X184000000Y-45000000D03*
X169000000Y-44000000D03*
X175000000Y-45000000D03*
X172500000Y-75500000D03*
X160000000Y-75500000D03*
X147500000Y-56000000D03*
X181000000Y-69500000D03*
X181000000Y-54500000D03*
X171000000Y-82500000D03*
X184000000Y-69500000D03*
X148500000Y-82500000D03*
X139000000Y-55000000D03*
X173500000Y-54500000D03*
X157000000Y-57500000D03*
X169500000Y-82500000D03*
X165000000Y-82500000D03*
X184000000Y-84000000D03*
X174000000Y-82500000D03*
X170500000Y-73000000D03*
X143500000Y-60500000D03*
X172000000Y-73000000D03*
X166500000Y-82500000D03*
X137500000Y-69500000D03*
X173500000Y-60500000D03*
X172500000Y-82500000D03*
X178000000Y-60500000D03*
X176500000Y-60500000D03*
X175000000Y-60500000D03*
X149500000Y-57500000D03*
X168000000Y-75500000D03*
X145000000Y-69500000D03*
X150000000Y-82500000D03*
X175500000Y-75500000D03*
X150500000Y-75500000D03*
X146500000Y-60500000D03*
X152500000Y-73000000D03*
X173000000Y-59000000D03*
X161500000Y-81500000D03*
X144500000Y-82500000D03*
X154500000Y-82500000D03*
X181000000Y-84000000D03*
X165000000Y-75500000D03*
X178000000Y-45000000D03*
X147000000Y-82500000D03*
X139000000Y-84000000D03*
G04 #@! TA.AperFunction,Conductor*
G36*
X184936500Y-35017381D02*
G01*
X184982619Y-35063500D01*
X184999500Y-35126500D01*
X184999500Y-91873500D01*
X184982619Y-91936500D01*
X184936500Y-91982619D01*
X184873500Y-91999500D01*
X135126500Y-91999500D01*
X135063500Y-91982619D01*
X135017381Y-91936500D01*
X135000500Y-91873500D01*
X135000500Y-79080000D01*
X138967285Y-79080000D01*
X138986079Y-79282813D01*
X139041818Y-79478719D01*
X139132611Y-79661056D01*
X139193983Y-79742325D01*
X139255357Y-79823597D01*
X139405881Y-79960818D01*
X139449853Y-79988044D01*
X139568686Y-80061623D01*
X139579057Y-80068044D01*
X139768986Y-80141623D01*
X139969202Y-80179050D01*
X140172884Y-80179050D01*
X140172886Y-80179050D01*
X140373102Y-80141623D01*
X140563031Y-80068044D01*
X140736207Y-79960818D01*
X140886731Y-79823597D01*
X141009478Y-79661054D01*
X141100268Y-79478723D01*
X141156008Y-79282815D01*
X141174802Y-79080000D01*
X141167389Y-79000000D01*
X178896241Y-79000000D01*
X178915035Y-79202813D01*
X178970774Y-79398719D01*
X179061567Y-79581056D01*
X179121979Y-79661054D01*
X179184313Y-79743597D01*
X179334837Y-79880818D01*
X179508013Y-79988044D01*
X179697942Y-80061623D01*
X179898158Y-80099050D01*
X180101840Y-80099050D01*
X180101842Y-80099050D01*
X180302058Y-80061623D01*
X180491987Y-79988044D01*
X180665163Y-79880818D01*
X180815687Y-79743597D01*
X180938434Y-79581054D01*
X181029224Y-79398723D01*
X181084964Y-79202815D01*
X181103758Y-79000000D01*
X181084964Y-78797185D01*
X181029224Y-78601277D01*
X180938434Y-78418946D01*
X180815687Y-78256403D01*
X180665163Y-78119182D01*
X180617027Y-78089377D01*
X180491988Y-78011956D01*
X180302058Y-77938377D01*
X180101842Y-77900950D01*
X179898158Y-77900950D01*
X179764680Y-77925901D01*
X179697941Y-77938377D01*
X179508011Y-78011956D01*
X179334838Y-78119181D01*
X179184312Y-78256404D01*
X179061567Y-78418943D01*
X178970774Y-78601280D01*
X178915035Y-78797186D01*
X178896241Y-79000000D01*
X141167389Y-79000000D01*
X141156008Y-78877185D01*
X141100268Y-78681277D01*
X141009478Y-78498946D01*
X140886731Y-78336403D01*
X140736207Y-78199182D01*
X140607003Y-78119182D01*
X140563032Y-78091956D01*
X140373102Y-78018377D01*
X140172886Y-77980950D01*
X139969202Y-77980950D01*
X139835724Y-78005901D01*
X139768985Y-78018377D01*
X139579055Y-78091956D01*
X139405882Y-78199181D01*
X139255356Y-78336404D01*
X139132611Y-78498943D01*
X139041818Y-78681280D01*
X138986079Y-78877186D01*
X138967285Y-79080000D01*
X135000500Y-79080000D01*
X135000500Y-64999999D01*
X138896241Y-64999999D01*
X138915035Y-65202813D01*
X138970774Y-65398719D01*
X139061567Y-65581056D01*
X139122939Y-65662325D01*
X139184313Y-65743597D01*
X139334837Y-65880818D01*
X139508013Y-65988044D01*
X139697942Y-66061623D01*
X139898158Y-66099050D01*
X140101840Y-66099050D01*
X140101842Y-66099050D01*
X140302058Y-66061623D01*
X140491987Y-65988044D01*
X140665163Y-65880818D01*
X140815687Y-65743597D01*
X140938434Y-65581054D01*
X141029224Y-65398723D01*
X141084964Y-65202815D01*
X141103758Y-65000000D01*
X141103758Y-64999999D01*
X178896241Y-64999999D01*
X178915035Y-65202813D01*
X178970774Y-65398719D01*
X179061567Y-65581056D01*
X179184311Y-65743595D01*
X179184313Y-65743597D01*
X179225386Y-65781040D01*
X179255764Y-65823260D01*
X179266500Y-65874154D01*
X179266500Y-66150216D01*
X179269270Y-66185420D01*
X179313044Y-66336091D01*
X179392913Y-66471141D01*
X179503858Y-66582086D01*
X179638908Y-66661955D01*
X179638910Y-66661955D01*
X179638911Y-66661956D01*
X179789582Y-66705730D01*
X179824780Y-66708500D01*
X180175216Y-66708500D01*
X180175220Y-66708500D01*
X180210418Y-66705730D01*
X180361089Y-66661956D01*
X180496141Y-66582086D01*
X180607086Y-66471141D01*
X180686956Y-66336089D01*
X180730730Y-66185418D01*
X180733500Y-66150220D01*
X180733500Y-65874154D01*
X180744236Y-65823260D01*
X180774613Y-65781040D01*
X180815687Y-65743597D01*
X180938434Y-65581054D01*
X181029224Y-65398723D01*
X181084964Y-65202815D01*
X181103758Y-65000000D01*
X181084964Y-64797185D01*
X181029224Y-64601277D01*
X180938434Y-64418946D01*
X180815687Y-64256403D01*
X180665163Y-64119182D01*
X180617027Y-64089377D01*
X180491988Y-64011956D01*
X180302058Y-63938377D01*
X180302057Y-63938376D01*
X180101842Y-63900950D01*
X179898158Y-63900950D01*
X179764680Y-63925901D01*
X179697941Y-63938377D01*
X179508011Y-64011956D01*
X179334838Y-64119181D01*
X179184312Y-64256404D01*
X179061567Y-64418943D01*
X178970774Y-64601280D01*
X178915035Y-64797186D01*
X178896241Y-64999999D01*
X141103758Y-64999999D01*
X141084964Y-64797185D01*
X141029224Y-64601277D01*
X140938434Y-64418946D01*
X140815687Y-64256403D01*
X140665163Y-64119182D01*
X140617027Y-64089377D01*
X140491988Y-64011956D01*
X140302058Y-63938377D01*
X140302057Y-63938376D01*
X140101842Y-63900950D01*
X139898158Y-63900950D01*
X139764680Y-63925901D01*
X139697941Y-63938377D01*
X139508011Y-64011956D01*
X139334838Y-64119181D01*
X139184312Y-64256404D01*
X139061567Y-64418943D01*
X138970774Y-64601280D01*
X138915035Y-64797186D01*
X138896241Y-64999999D01*
X135000500Y-64999999D01*
X135000500Y-49999999D01*
X138896241Y-49999999D01*
X138915035Y-50202813D01*
X138970774Y-50398719D01*
X139061567Y-50581056D01*
X139122939Y-50662325D01*
X139184313Y-50743597D01*
X139334837Y-50880818D01*
X139508013Y-50988044D01*
X139697942Y-51061623D01*
X139898158Y-51099050D01*
X140101840Y-51099050D01*
X140101842Y-51099050D01*
X140302058Y-51061623D01*
X140491987Y-50988044D01*
X140665163Y-50880818D01*
X140815687Y-50743597D01*
X140938434Y-50581054D01*
X141029224Y-50398723D01*
X141084964Y-50202815D01*
X141103758Y-50000000D01*
X141103758Y-49999999D01*
X178896241Y-49999999D01*
X178915035Y-50202813D01*
X178970774Y-50398719D01*
X179061567Y-50581056D01*
X179184311Y-50743595D01*
X179184313Y-50743597D01*
X179225386Y-50781040D01*
X179255764Y-50823260D01*
X179266500Y-50874154D01*
X179266500Y-51200216D01*
X179269270Y-51235420D01*
X179313044Y-51386091D01*
X179392913Y-51521141D01*
X179503858Y-51632086D01*
X179638908Y-51711955D01*
X179638910Y-51711955D01*
X179638911Y-51711956D01*
X179789582Y-51755730D01*
X179824780Y-51758500D01*
X180175216Y-51758500D01*
X180175220Y-51758500D01*
X180210418Y-51755730D01*
X180361089Y-51711956D01*
X180496141Y-51632086D01*
X180607086Y-51521141D01*
X180686956Y-51386089D01*
X180730730Y-51235418D01*
X180733500Y-51200220D01*
X180733500Y-50874154D01*
X180744236Y-50823260D01*
X180774613Y-50781040D01*
X180815687Y-50743597D01*
X180938434Y-50581054D01*
X181029224Y-50398723D01*
X181084964Y-50202815D01*
X181103758Y-50000000D01*
X181084964Y-49797185D01*
X181029224Y-49601277D01*
X180938434Y-49418946D01*
X180815687Y-49256403D01*
X180665163Y-49119182D01*
X180617027Y-49089377D01*
X180491988Y-49011956D01*
X180302058Y-48938377D01*
X180302057Y-48938376D01*
X180101842Y-48900950D01*
X179898158Y-48900950D01*
X179764680Y-48925901D01*
X179697941Y-48938377D01*
X179508011Y-49011956D01*
X179334838Y-49119181D01*
X179184312Y-49256404D01*
X179061567Y-49418943D01*
X178970774Y-49601280D01*
X178915035Y-49797186D01*
X178896241Y-49999999D01*
X141103758Y-49999999D01*
X141084964Y-49797185D01*
X141029224Y-49601277D01*
X140938434Y-49418946D01*
X140815687Y-49256403D01*
X140665163Y-49119182D01*
X140617027Y-49089377D01*
X140491988Y-49011956D01*
X140302058Y-48938377D01*
X140302057Y-48938376D01*
X140101842Y-48900950D01*
X139898158Y-48900950D01*
X139764680Y-48925901D01*
X139697941Y-48938377D01*
X139508011Y-49011956D01*
X139334838Y-49119181D01*
X139184312Y-49256404D01*
X139061567Y-49418943D01*
X138970774Y-49601280D01*
X138915035Y-49797186D01*
X138896241Y-49999999D01*
X135000500Y-49999999D01*
X135000500Y-35126500D01*
X135017381Y-35063500D01*
X135063500Y-35017381D01*
X135126500Y-35000500D01*
X184873500Y-35000500D01*
X184936500Y-35017381D01*
G37*
G04 #@! TD.AperFunction*
M02*
