%TF.GenerationSoftware,KiCad,Pcbnew,7.0.1*%
%TF.CreationDate,2023-04-16T22:08:06+02:00*%
%TF.ProjectId,aliasing,616c6961-7369-46e6-972e-6b696361645f,rev?*%
%TF.SameCoordinates,Original*%
%TF.FileFunction,Drillmap*%
%TF.FilePolarity,Positive*%
%FSLAX45Y45*%
G04 Gerber Fmt 4.5, Leading zero omitted, Abs format (unit mm)*
G04 Created by KiCad (PCBNEW 7.0.1) date 2023-04-16 22:08:06*
%MOMM*%
%LPD*%
G01*
G04 APERTURE LIST*
%ADD10C,0.100000*%
%ADD11C,0.200000*%
G04 APERTURE END LIST*
D10*
X13500000Y-9200000D02*
X18500000Y-9200000D01*
X18500000Y-3500000D02*
X13500000Y-3500000D01*
X13500000Y-3500000D02*
X13500000Y-9200000D01*
X18500000Y-9200000D02*
X18500000Y-3500000D01*
D11*
X13742619Y-9517524D02*
X13742619Y-9317524D01*
X13742619Y-9317524D02*
X13790238Y-9317524D01*
X13790238Y-9317524D02*
X13818809Y-9327048D01*
X13818809Y-9327048D02*
X13837857Y-9346095D01*
X13837857Y-9346095D02*
X13847381Y-9365143D01*
X13847381Y-9365143D02*
X13856905Y-9403238D01*
X13856905Y-9403238D02*
X13856905Y-9431810D01*
X13856905Y-9431810D02*
X13847381Y-9469905D01*
X13847381Y-9469905D02*
X13837857Y-9488952D01*
X13837857Y-9488952D02*
X13818809Y-9508000D01*
X13818809Y-9508000D02*
X13790238Y-9517524D01*
X13790238Y-9517524D02*
X13742619Y-9517524D01*
X13942619Y-9517524D02*
X13942619Y-9384190D01*
X13942619Y-9422286D02*
X13952143Y-9403238D01*
X13952143Y-9403238D02*
X13961667Y-9393714D01*
X13961667Y-9393714D02*
X13980714Y-9384190D01*
X13980714Y-9384190D02*
X13999762Y-9384190D01*
X14066428Y-9517524D02*
X14066428Y-9384190D01*
X14066428Y-9317524D02*
X14056905Y-9327048D01*
X14056905Y-9327048D02*
X14066428Y-9336571D01*
X14066428Y-9336571D02*
X14075952Y-9327048D01*
X14075952Y-9327048D02*
X14066428Y-9317524D01*
X14066428Y-9317524D02*
X14066428Y-9336571D01*
X14190238Y-9517524D02*
X14171190Y-9508000D01*
X14171190Y-9508000D02*
X14161667Y-9488952D01*
X14161667Y-9488952D02*
X14161667Y-9317524D01*
X14295000Y-9517524D02*
X14275952Y-9508000D01*
X14275952Y-9508000D02*
X14266428Y-9488952D01*
X14266428Y-9488952D02*
X14266428Y-9317524D01*
X14523571Y-9517524D02*
X14523571Y-9317524D01*
X14523571Y-9317524D02*
X14590238Y-9460381D01*
X14590238Y-9460381D02*
X14656905Y-9317524D01*
X14656905Y-9317524D02*
X14656905Y-9517524D01*
X14837857Y-9517524D02*
X14837857Y-9412762D01*
X14837857Y-9412762D02*
X14828333Y-9393714D01*
X14828333Y-9393714D02*
X14809286Y-9384190D01*
X14809286Y-9384190D02*
X14771190Y-9384190D01*
X14771190Y-9384190D02*
X14752143Y-9393714D01*
X14837857Y-9508000D02*
X14818809Y-9517524D01*
X14818809Y-9517524D02*
X14771190Y-9517524D01*
X14771190Y-9517524D02*
X14752143Y-9508000D01*
X14752143Y-9508000D02*
X14742619Y-9488952D01*
X14742619Y-9488952D02*
X14742619Y-9469905D01*
X14742619Y-9469905D02*
X14752143Y-9450857D01*
X14752143Y-9450857D02*
X14771190Y-9441333D01*
X14771190Y-9441333D02*
X14818809Y-9441333D01*
X14818809Y-9441333D02*
X14837857Y-9431810D01*
X14933095Y-9384190D02*
X14933095Y-9584190D01*
X14933095Y-9393714D02*
X14952143Y-9384190D01*
X14952143Y-9384190D02*
X14990238Y-9384190D01*
X14990238Y-9384190D02*
X15009286Y-9393714D01*
X15009286Y-9393714D02*
X15018809Y-9403238D01*
X15018809Y-9403238D02*
X15028333Y-9422286D01*
X15028333Y-9422286D02*
X15028333Y-9479429D01*
X15028333Y-9479429D02*
X15018809Y-9498476D01*
X15018809Y-9498476D02*
X15009286Y-9508000D01*
X15009286Y-9508000D02*
X14990238Y-9517524D01*
X14990238Y-9517524D02*
X14952143Y-9517524D01*
X14952143Y-9517524D02*
X14933095Y-9508000D01*
X15114048Y-9498476D02*
X15123571Y-9508000D01*
X15123571Y-9508000D02*
X15114048Y-9517524D01*
X15114048Y-9517524D02*
X15104524Y-9508000D01*
X15104524Y-9508000D02*
X15114048Y-9498476D01*
X15114048Y-9498476D02*
X15114048Y-9517524D01*
X15114048Y-9393714D02*
X15123571Y-9403238D01*
X15123571Y-9403238D02*
X15114048Y-9412762D01*
X15114048Y-9412762D02*
X15104524Y-9403238D01*
X15104524Y-9403238D02*
X15114048Y-9393714D01*
X15114048Y-9393714D02*
X15114048Y-9412762D01*
M02*
