G04 #@! TF.GenerationSoftware,KiCad,Pcbnew,(6.0.0)*
G04 #@! TF.CreationDate,2022-07-23T10:41:13+02:00*
G04 #@! TF.ProjectId,aliasing,616c6961-7369-46e6-972e-6b696361645f,rev?*
G04 #@! TF.SameCoordinates,Original*
G04 #@! TF.FileFunction,Soldermask,Top*
G04 #@! TF.FilePolarity,Negative*
%FSLAX46Y46*%
G04 Gerber Fmt 4.6, Leading zero omitted, Abs format (unit mm)*
G04 Created by KiCad (PCBNEW (6.0.0)) date 2022-07-23 10:41:13*
%MOMM*%
%LPD*%
G01*
G04 APERTURE LIST*
%ADD10R,1.600000X0.800000*%
%ADD11C,0.610000*%
%ADD12R,3.250000X1.500000*%
%ADD13C,1.998980*%
%ADD14C,2.499360*%
%ADD15R,1.778000X1.016000*%
%ADD16R,1.016000X1.778000*%
%ADD17C,5.700000*%
G04 APERTURE END LIST*
D10*
X158050000Y-79000000D03*
D11*
X159000000Y-80500000D03*
D12*
X160000000Y-80500000D03*
D11*
X161000000Y-77300000D03*
X158800000Y-77250000D03*
X161100000Y-80500000D03*
D10*
X161950000Y-79000000D03*
D12*
X160000000Y-77500000D03*
D13*
X180000000Y-50000000D03*
D14*
X177460000Y-47460000D03*
X177460000Y-52540000D03*
X182540000Y-47460000D03*
X182540000Y-52540000D03*
D15*
X162436000Y-63095000D03*
X162436000Y-65000000D03*
X162436000Y-66905000D03*
D16*
X166500000Y-69064000D03*
D15*
X170564000Y-66905000D03*
X170564000Y-65000000D03*
X170564000Y-63095000D03*
D16*
X166500000Y-60936000D03*
D13*
X140000000Y-50000000D03*
D14*
X142540000Y-52540000D03*
X137460000Y-47460000D03*
X142540000Y-47460000D03*
X137460000Y-52540000D03*
D17*
X181500000Y-39000000D03*
D13*
X140000000Y-65000000D03*
D14*
X142540000Y-67540000D03*
X137460000Y-67540000D03*
X137460000Y-62460000D03*
X142540000Y-62460000D03*
D15*
X149372000Y-48095000D03*
X149372000Y-50000000D03*
X149372000Y-51905000D03*
D16*
X153436000Y-54064000D03*
D15*
X157500000Y-51905000D03*
X157500000Y-50000000D03*
X157500000Y-48095000D03*
D16*
X153436000Y-45936000D03*
D17*
X181500000Y-88000000D03*
D15*
X149436000Y-63095000D03*
X149436000Y-65000000D03*
X149436000Y-66905000D03*
D16*
X153500000Y-69064000D03*
D15*
X157564000Y-66905000D03*
X157564000Y-65000000D03*
X157564000Y-63095000D03*
D16*
X153500000Y-60936000D03*
D17*
X138500000Y-88000000D03*
D15*
X162253000Y-48095000D03*
X162253000Y-50000000D03*
X162253000Y-51905000D03*
D16*
X166317000Y-54064000D03*
D15*
X170381000Y-51905000D03*
X170381000Y-50000000D03*
X170381000Y-48095000D03*
D16*
X166317000Y-45936000D03*
D13*
X140071044Y-79080000D03*
D14*
X137531044Y-81620000D03*
X142611044Y-76540000D03*
X137531044Y-76540000D03*
X142611044Y-81620000D03*
D17*
X138500000Y-39000000D03*
D13*
X180000000Y-65000000D03*
D14*
X177460000Y-62460000D03*
X182540000Y-67540000D03*
X177460000Y-67540000D03*
X182540000Y-62460000D03*
D13*
X180000000Y-79000000D03*
D14*
X177460000Y-76460000D03*
X177460000Y-81540000D03*
X182540000Y-81540000D03*
X182540000Y-76460000D03*
G36*
X177442121Y-76020002D02*
G01*
X177488614Y-76073658D01*
X177500000Y-76126000D01*
X177500000Y-81874000D01*
X177479998Y-81942121D01*
X177426342Y-81988614D01*
X177374000Y-82000000D01*
X143126000Y-82000000D01*
X143057879Y-81979998D01*
X143011386Y-81926342D01*
X143000000Y-81874000D01*
X143000000Y-76126000D01*
X143020002Y-76057879D01*
X143073658Y-76011386D01*
X143126000Y-76000000D01*
X177374000Y-76000000D01*
X177442121Y-76020002D01*
G37*
G36*
X160196121Y-61520002D02*
G01*
X160242614Y-61573658D01*
X160254000Y-61626000D01*
X160254000Y-68374000D01*
X160233998Y-68442121D01*
X160180342Y-68488614D01*
X160128000Y-68500000D01*
X144126000Y-68500000D01*
X144057879Y-68479998D01*
X144011386Y-68426342D01*
X144000000Y-68374000D01*
X144000000Y-66518115D01*
X143995525Y-66502876D01*
X143987334Y-66495778D01*
X142586155Y-66028718D01*
X142527855Y-65988201D01*
X142500716Y-65922596D01*
X142500000Y-65909184D01*
X142500000Y-64067433D01*
X142520002Y-63999312D01*
X142556108Y-63962595D01*
X143984926Y-63010049D01*
X143998593Y-62993731D01*
X144000000Y-62986990D01*
X144000000Y-61626000D01*
X144020002Y-61557879D01*
X144073658Y-61511386D01*
X144126000Y-61500000D01*
X160128000Y-61500000D01*
X160196121Y-61520002D01*
G37*
G36*
X175942121Y-61520002D02*
G01*
X175988614Y-61573658D01*
X176000000Y-61626000D01*
X176000000Y-63481885D01*
X176004475Y-63497124D01*
X176012666Y-63504222D01*
X177413845Y-63971282D01*
X177472145Y-64011799D01*
X177499284Y-64077404D01*
X177500000Y-64090816D01*
X177500000Y-65932567D01*
X177479998Y-66000688D01*
X177443892Y-66037405D01*
X176015074Y-66989951D01*
X176001407Y-67006269D01*
X176000000Y-67013010D01*
X176000000Y-68374000D01*
X175979998Y-68442121D01*
X175926342Y-68488614D01*
X175874000Y-68500000D01*
X159872000Y-68500000D01*
X159803879Y-68479998D01*
X159757386Y-68426342D01*
X159746000Y-68374000D01*
X159746000Y-61626000D01*
X159766002Y-61557879D01*
X159819658Y-61511386D01*
X159872000Y-61500000D01*
X175874000Y-61500000D01*
X175942121Y-61520002D01*
G37*
G36*
X175942121Y-46520002D02*
G01*
X175988614Y-46573658D01*
X176000000Y-46626000D01*
X176000000Y-48481885D01*
X176004475Y-48497124D01*
X176012666Y-48504222D01*
X177413845Y-48971282D01*
X177472145Y-49011799D01*
X177499284Y-49077404D01*
X177500000Y-49090816D01*
X177500000Y-50932567D01*
X177479998Y-51000688D01*
X177443892Y-51037405D01*
X176015074Y-51989951D01*
X176001407Y-52006269D01*
X176000000Y-52013010D01*
X176000000Y-53374000D01*
X175979998Y-53442121D01*
X175926342Y-53488614D01*
X175874000Y-53500000D01*
X159872000Y-53500000D01*
X159803879Y-53479998D01*
X159757386Y-53426342D01*
X159746000Y-53374000D01*
X159746000Y-46626000D01*
X159766002Y-46557879D01*
X159819658Y-46511386D01*
X159872000Y-46500000D01*
X175874000Y-46500000D01*
X175942121Y-46520002D01*
G37*
G36*
X160196121Y-46520002D02*
G01*
X160242614Y-46573658D01*
X160254000Y-46626000D01*
X160254000Y-53374000D01*
X160233998Y-53442121D01*
X160180342Y-53488614D01*
X160128000Y-53500000D01*
X143577872Y-53500000D01*
X143509751Y-53479998D01*
X143465174Y-53430349D01*
X142504543Y-51509086D01*
X142492815Y-51492815D01*
X142036905Y-51036905D01*
X142002879Y-50974593D01*
X142000000Y-50947810D01*
X142000000Y-49052190D01*
X142020002Y-48984069D01*
X142036905Y-48963095D01*
X142989626Y-48010374D01*
X143004639Y-47986083D01*
X143471282Y-46586155D01*
X143511799Y-46527855D01*
X143577404Y-46500716D01*
X143590816Y-46500000D01*
X160128000Y-46500000D01*
X160196121Y-46520002D01*
G37*
M02*
