G04 #@! TF.GenerationSoftware,KiCad,Pcbnew,7.0.1*
G04 #@! TF.CreationDate,2023-04-16T22:07:55+02:00*
G04 #@! TF.ProjectId,aliasing,616c6961-7369-46e6-972e-6b696361645f,rev?*
G04 #@! TF.SameCoordinates,Original*
G04 #@! TF.FileFunction,Copper,L1,Top*
G04 #@! TF.FilePolarity,Positive*
%FSLAX46Y46*%
G04 Gerber Fmt 4.6, Leading zero omitted, Abs format (unit mm)*
G04 Created by KiCad (PCBNEW 7.0.1) date 2023-04-16 22:07:55*
%MOMM*%
%LPD*%
G01*
G04 APERTURE LIST*
G04 #@! TA.AperFunction,SMDPad,CuDef*
%ADD10R,1.600000X0.800000*%
G04 #@! TD*
G04 #@! TA.AperFunction,ComponentPad*
%ADD11C,0.610000*%
G04 #@! TD*
G04 #@! TA.AperFunction,SMDPad,CuDef*
%ADD12R,3.250000X1.500000*%
G04 #@! TD*
G04 #@! TA.AperFunction,ComponentPad*
%ADD13C,1.998980*%
G04 #@! TD*
G04 #@! TA.AperFunction,ComponentPad*
%ADD14C,2.499360*%
G04 #@! TD*
G04 #@! TA.AperFunction,ComponentPad*
%ADD15C,1.016000*%
G04 #@! TD*
G04 #@! TA.AperFunction,SMDPad,CuDef*
%ADD16R,1.778000X1.016000*%
G04 #@! TD*
G04 #@! TA.AperFunction,SMDPad,CuDef*
%ADD17R,2.540000X3.556000*%
G04 #@! TD*
G04 #@! TA.AperFunction,SMDPad,CuDef*
%ADD18R,4.826000X9.906000*%
G04 #@! TD*
G04 #@! TA.AperFunction,SMDPad,CuDef*
%ADD19R,1.016000X1.778000*%
G04 #@! TD*
G04 #@! TA.AperFunction,ComponentPad*
%ADD20C,5.700000*%
G04 #@! TD*
G04 #@! TA.AperFunction,ViaPad*
%ADD21C,0.800000*%
G04 #@! TD*
G04 #@! TA.AperFunction,Conductor*
%ADD22C,1.000000*%
G04 #@! TD*
G04 #@! TA.AperFunction,Conductor*
%ADD23C,2.000000*%
G04 #@! TD*
G04 #@! TA.AperFunction,Conductor*
%ADD24C,2.900000*%
G04 #@! TD*
G04 #@! TA.AperFunction,Conductor*
%ADD25C,0.800000*%
G04 #@! TD*
G04 APERTURE END LIST*
D10*
X158050000Y-79000000D03*
D11*
X158800000Y-77250000D03*
X159000000Y-80500000D03*
D12*
X160000000Y-80500000D03*
D11*
X161000000Y-77300000D03*
X161100000Y-80500000D03*
D10*
X161950000Y-79000000D03*
D12*
X160000000Y-77500000D03*
D13*
X180000000Y-50000000D03*
D14*
X177460000Y-47460000D03*
X177460000Y-52540000D03*
X182540000Y-47460000D03*
X182540000Y-52540000D03*
D15*
X162055000Y-60555000D03*
X162055000Y-69445000D03*
D16*
X162436000Y-63095000D03*
D17*
X162817000Y-61825000D03*
X162817000Y-68175000D03*
D15*
X165230000Y-63730000D03*
X165230000Y-66270000D03*
D18*
X166500000Y-65000000D03*
D15*
X167770000Y-63730000D03*
X167770000Y-66270000D03*
D17*
X170183000Y-61825000D03*
X170183000Y-68175000D03*
D15*
X170945000Y-60555000D03*
X170945000Y-69445000D03*
D16*
X162436000Y-65000000D03*
X162436000Y-66905000D03*
D19*
X166500000Y-69064000D03*
D16*
X170564000Y-66905000D03*
X170564000Y-65000000D03*
X170564000Y-63095000D03*
D19*
X166500000Y-60936000D03*
D13*
X140000000Y-50000000D03*
D14*
X142540000Y-52540000D03*
X142540000Y-47460000D03*
X137460000Y-52540000D03*
X137460000Y-47460000D03*
D20*
X181500000Y-39000000D03*
D13*
X140000000Y-65000000D03*
D14*
X142540000Y-67540000D03*
X142540000Y-62460000D03*
X137460000Y-67540000D03*
X137460000Y-62460000D03*
D15*
X148991000Y-45555000D03*
X148991000Y-54445000D03*
D16*
X149372000Y-48095000D03*
D17*
X149753000Y-46825000D03*
X149753000Y-53175000D03*
D15*
X152166000Y-48730000D03*
X152166000Y-51270000D03*
D18*
X153436000Y-50000000D03*
D15*
X154706000Y-48730000D03*
X154706000Y-51270000D03*
D17*
X157119000Y-46825000D03*
X157119000Y-53175000D03*
D15*
X157881000Y-45555000D03*
X157881000Y-54445000D03*
D16*
X149372000Y-50000000D03*
X149372000Y-51905000D03*
D19*
X153436000Y-54064000D03*
D16*
X157500000Y-51905000D03*
X157500000Y-50000000D03*
X157500000Y-48095000D03*
D19*
X153436000Y-45936000D03*
D20*
X181500000Y-88000000D03*
D15*
X149055000Y-60555000D03*
X149055000Y-69445000D03*
D16*
X149436000Y-63095000D03*
D17*
X149817000Y-61825000D03*
X149817000Y-68175000D03*
D15*
X152230000Y-63730000D03*
X152230000Y-66270000D03*
D18*
X153500000Y-65000000D03*
D15*
X154770000Y-63730000D03*
X154770000Y-66270000D03*
D17*
X157183000Y-61825000D03*
X157183000Y-68175000D03*
D15*
X157945000Y-60555000D03*
X157945000Y-69445000D03*
D16*
X149436000Y-65000000D03*
X149436000Y-66905000D03*
D19*
X153500000Y-69064000D03*
D16*
X157564000Y-66905000D03*
X157564000Y-65000000D03*
X157564000Y-63095000D03*
D19*
X153500000Y-60936000D03*
D20*
X138500000Y-88000000D03*
D15*
X161872000Y-45555000D03*
X161872000Y-54445000D03*
D16*
X162253000Y-48095000D03*
D17*
X162634000Y-46825000D03*
X162634000Y-53175000D03*
D15*
X165047000Y-48730000D03*
X165047000Y-51270000D03*
D18*
X166317000Y-50000000D03*
D15*
X167587000Y-48730000D03*
X167587000Y-51270000D03*
D17*
X170000000Y-46825000D03*
X170000000Y-53175000D03*
D15*
X170762000Y-45555000D03*
X170762000Y-54445000D03*
D16*
X162253000Y-50000000D03*
X162253000Y-51905000D03*
D19*
X166317000Y-54064000D03*
D16*
X170381000Y-51905000D03*
X170381000Y-50000000D03*
X170381000Y-48095000D03*
D19*
X166317000Y-45936000D03*
D13*
X140071044Y-79080000D03*
D14*
X142611044Y-81620000D03*
X142611044Y-76540000D03*
X137531044Y-81620000D03*
X137531044Y-76540000D03*
D20*
X138500000Y-39000000D03*
D13*
X180000000Y-65000000D03*
D14*
X177460000Y-62460000D03*
X177460000Y-67540000D03*
X182540000Y-62460000D03*
X182540000Y-67540000D03*
D13*
X180000000Y-79000000D03*
D14*
X177460000Y-76460000D03*
X177460000Y-81540000D03*
X182540000Y-76460000D03*
X182540000Y-81540000D03*
D21*
X142000000Y-60500000D03*
X182500000Y-69500000D03*
X160000000Y-81500000D03*
X166000000Y-44000000D03*
X170500000Y-57500000D03*
X176500000Y-45000000D03*
X158500000Y-73000000D03*
X157000000Y-73000000D03*
X179500000Y-60500000D03*
X151500000Y-82500000D03*
X164500000Y-44000000D03*
X156500000Y-75500000D03*
X179500000Y-45000000D03*
X160500000Y-82500000D03*
X149000000Y-75500000D03*
X148000000Y-57500000D03*
X142000000Y-84000000D03*
X151000000Y-57500000D03*
X158500000Y-44000000D03*
X147500000Y-75500000D03*
X149500000Y-73000000D03*
X169000000Y-57500000D03*
X136000000Y-84000000D03*
X153500000Y-75500000D03*
X179500000Y-69500000D03*
X137500000Y-45000000D03*
X154000000Y-73000000D03*
X166000000Y-57500000D03*
X136000000Y-69500000D03*
X184000000Y-60500000D03*
X136000000Y-45000000D03*
X175500000Y-82500000D03*
X168000000Y-82500000D03*
X153000000Y-82500000D03*
X172000000Y-44000000D03*
X155500000Y-44000000D03*
X162000000Y-82500000D03*
X146500000Y-55000000D03*
X149500000Y-44000000D03*
X173000000Y-71500000D03*
X146000000Y-75500000D03*
X152500000Y-57500000D03*
X144500000Y-75500000D03*
X154000000Y-44000000D03*
X151000000Y-44000000D03*
X137500000Y-84000000D03*
X167500000Y-44000000D03*
X161500000Y-73000000D03*
X178000000Y-54500000D03*
X148000000Y-44000000D03*
X137500000Y-60500000D03*
X139000000Y-60500000D03*
X169500000Y-75500000D03*
X182500000Y-54500000D03*
X151000000Y-73000000D03*
X174000000Y-75500000D03*
X164500000Y-57500000D03*
X139000000Y-45000000D03*
X158300000Y-76400000D03*
X155500000Y-57500000D03*
X158500000Y-75500000D03*
X182500000Y-84000000D03*
X158500000Y-57500000D03*
X140500000Y-69500000D03*
X166500000Y-75500000D03*
X175000000Y-69500000D03*
X145000000Y-45000000D03*
X145000000Y-60500000D03*
X160000000Y-44000000D03*
X169000000Y-73000000D03*
X143500000Y-45000000D03*
X136000000Y-55000000D03*
X163500000Y-75500000D03*
X176500000Y-69500000D03*
X176500000Y-84000000D03*
X182500000Y-60500000D03*
X181000000Y-60500000D03*
X158500000Y-81500000D03*
X156000000Y-82500000D03*
X160000000Y-76500000D03*
X140500000Y-60500000D03*
X171000000Y-75500000D03*
X140500000Y-55000000D03*
X147500000Y-71500000D03*
X175000000Y-54500000D03*
X179500000Y-84000000D03*
X167500000Y-73000000D03*
X179500000Y-54500000D03*
X146500000Y-45000000D03*
X172000000Y-57500000D03*
X152500000Y-44000000D03*
X146500000Y-69500000D03*
X173500000Y-45000000D03*
X155000000Y-75500000D03*
X164500000Y-73000000D03*
X137500000Y-55000000D03*
X160000000Y-57500000D03*
X142000000Y-55000000D03*
X170500000Y-44000000D03*
X145000000Y-55000000D03*
X181000000Y-45000000D03*
X148000000Y-73000000D03*
X184000000Y-54500000D03*
X176500000Y-54500000D03*
X163500000Y-82500000D03*
X143500000Y-55000000D03*
X160000000Y-73000000D03*
X157500000Y-82500000D03*
X140500000Y-84000000D03*
X142000000Y-45000000D03*
X166000000Y-73000000D03*
X142000000Y-69500000D03*
X178000000Y-84000000D03*
X161600000Y-76400000D03*
X154000000Y-57500000D03*
X178000000Y-69500000D03*
X139000000Y-69500000D03*
X145500000Y-82500000D03*
X167500000Y-57500000D03*
X163000000Y-57500000D03*
X140500000Y-45000000D03*
X182500000Y-45000000D03*
X159000000Y-82500000D03*
X163000000Y-73000000D03*
X163000000Y-44000000D03*
X147500000Y-59000000D03*
X152000000Y-75500000D03*
X157000000Y-44000000D03*
X155500000Y-73000000D03*
X173500000Y-69500000D03*
X143500000Y-69500000D03*
X173000000Y-56000000D03*
X161500000Y-57500000D03*
X161500000Y-44000000D03*
X136000000Y-60500000D03*
X161500000Y-75500000D03*
X184000000Y-45000000D03*
X169000000Y-44000000D03*
X175000000Y-45000000D03*
X172500000Y-75500000D03*
X160000000Y-75500000D03*
X147500000Y-56000000D03*
X181000000Y-69500000D03*
X181000000Y-54500000D03*
X171000000Y-82500000D03*
X184000000Y-69500000D03*
X148500000Y-82500000D03*
X139000000Y-55000000D03*
X173500000Y-54500000D03*
X157000000Y-57500000D03*
X169500000Y-82500000D03*
X165000000Y-82500000D03*
X184000000Y-84000000D03*
X174000000Y-82500000D03*
X170500000Y-73000000D03*
X143500000Y-60500000D03*
X172000000Y-73000000D03*
X166500000Y-82500000D03*
X137500000Y-69500000D03*
X173500000Y-60500000D03*
X172500000Y-82500000D03*
X178000000Y-60500000D03*
X176500000Y-60500000D03*
X175000000Y-60500000D03*
X149500000Y-57500000D03*
X168000000Y-75500000D03*
X145000000Y-69500000D03*
X150000000Y-82500000D03*
X175500000Y-75500000D03*
X150500000Y-75500000D03*
X146500000Y-60500000D03*
X152500000Y-73000000D03*
X173000000Y-59000000D03*
X161500000Y-81500000D03*
X144500000Y-82500000D03*
X154500000Y-82500000D03*
X181000000Y-84000000D03*
X165000000Y-75500000D03*
X178000000Y-45000000D03*
X147000000Y-82500000D03*
X139000000Y-84000000D03*
D22*
X170564000Y-65000000D02*
X173000000Y-65000000D01*
D23*
X180000000Y-65000000D02*
X173000000Y-65000000D01*
D22*
X170381000Y-50000000D02*
X172500000Y-50000000D01*
D23*
X172500000Y-50000000D02*
X180000000Y-50000000D01*
D24*
X144920000Y-79080000D02*
X155920000Y-79080000D01*
D25*
X154625000Y-79000000D02*
X158000000Y-79000000D01*
D23*
X140071044Y-79080000D02*
X144920000Y-79080000D01*
X175000000Y-79000000D02*
X180000000Y-79000000D01*
D24*
X164000000Y-79000000D02*
X175000000Y-79000000D01*
D25*
X162000000Y-79000000D02*
X165375000Y-79000000D01*
D22*
X149372000Y-50000000D02*
X146500000Y-50000000D01*
D23*
X140000000Y-50000000D02*
X146500000Y-50000000D01*
X140000000Y-65000000D02*
X147000000Y-65000000D01*
D22*
X149436000Y-65000000D02*
X147000000Y-65000000D01*
X157500000Y-50000000D02*
X162253000Y-50000000D01*
X162436000Y-65000000D02*
X157564000Y-65000000D01*
G04 #@! TA.AperFunction,Conductor*
G36*
X184936500Y-35017381D02*
G01*
X184982619Y-35063500D01*
X184999500Y-35126500D01*
X184999500Y-38127328D01*
X184985351Y-38185340D01*
X184946081Y-38230323D01*
X184890510Y-38252175D01*
X184831119Y-38245987D01*
X184781246Y-38213149D01*
X184752093Y-38161037D01*
X184686894Y-37926214D01*
X184552113Y-37587942D01*
X184381552Y-37266228D01*
X184177204Y-36964836D01*
X184047302Y-36811905D01*
X181859210Y-38999999D01*
X181859210Y-39000001D01*
X184047302Y-41188093D01*
X184047303Y-41188093D01*
X184177204Y-41035163D01*
X184381552Y-40733771D01*
X184552113Y-40412057D01*
X184686894Y-40073785D01*
X184752093Y-39838963D01*
X184781246Y-39786851D01*
X184831119Y-39754013D01*
X184890510Y-39747825D01*
X184946081Y-39769677D01*
X184985351Y-39814660D01*
X184999500Y-39872672D01*
X184999500Y-87127328D01*
X184985351Y-87185340D01*
X184946081Y-87230323D01*
X184890510Y-87252175D01*
X184831119Y-87245987D01*
X184781246Y-87213149D01*
X184752093Y-87161037D01*
X184686894Y-86926214D01*
X184552113Y-86587942D01*
X184381552Y-86266228D01*
X184177204Y-85964836D01*
X184047302Y-85811905D01*
X181859210Y-87999999D01*
X181859210Y-88000001D01*
X184047302Y-90188093D01*
X184047303Y-90188093D01*
X184177204Y-90035163D01*
X184381552Y-89733771D01*
X184552113Y-89412057D01*
X184686894Y-89073785D01*
X184752093Y-88838963D01*
X184781246Y-88786851D01*
X184831119Y-88754013D01*
X184890510Y-88747825D01*
X184946081Y-88769677D01*
X184985351Y-88814660D01*
X184999500Y-88872672D01*
X184999500Y-91873500D01*
X184982619Y-91936500D01*
X184936500Y-91982619D01*
X184873500Y-91999500D01*
X135126500Y-91999500D01*
X135063500Y-91982619D01*
X135017381Y-91936500D01*
X135000500Y-91873500D01*
X135000500Y-90550073D01*
X136309134Y-90550073D01*
X136322885Y-90563099D01*
X136612767Y-90783462D01*
X136924778Y-90971193D01*
X137255249Y-91124085D01*
X137600319Y-91240353D01*
X137955939Y-91318630D01*
X138317931Y-91358000D01*
X138682069Y-91358000D01*
X139044060Y-91318630D01*
X139399680Y-91240353D01*
X139744750Y-91124085D01*
X140075221Y-90971193D01*
X140387232Y-90783462D01*
X140677115Y-90563098D01*
X140690865Y-90550074D01*
X140690864Y-90550073D01*
X179309134Y-90550073D01*
X179322885Y-90563099D01*
X179612767Y-90783462D01*
X179924778Y-90971193D01*
X180255249Y-91124085D01*
X180600319Y-91240353D01*
X180955939Y-91318630D01*
X181317931Y-91358000D01*
X181682069Y-91358000D01*
X182044060Y-91318630D01*
X182399680Y-91240353D01*
X182744750Y-91124085D01*
X183075221Y-90971193D01*
X183387232Y-90783462D01*
X183677115Y-90563098D01*
X183690865Y-90550074D01*
X181500001Y-88359210D01*
X181499999Y-88359210D01*
X179309134Y-90550073D01*
X140690864Y-90550073D01*
X138500001Y-88359210D01*
X138499999Y-88359210D01*
X136309134Y-90550073D01*
X135000500Y-90550073D01*
X135000500Y-88872672D01*
X135014649Y-88814660D01*
X135053919Y-88769677D01*
X135109490Y-88747825D01*
X135168881Y-88754013D01*
X135218754Y-88786851D01*
X135247907Y-88838963D01*
X135313105Y-89073785D01*
X135447886Y-89412057D01*
X135618447Y-89733771D01*
X135822795Y-90035163D01*
X135952695Y-90188093D01*
X138140790Y-88000001D01*
X138859210Y-88000001D01*
X141047302Y-90188093D01*
X141047303Y-90188093D01*
X141177204Y-90035163D01*
X141381552Y-89733771D01*
X141552113Y-89412057D01*
X141686894Y-89073785D01*
X141784309Y-88722930D01*
X141843217Y-88363597D01*
X141862932Y-88000000D01*
X178137067Y-88000000D01*
X178156782Y-88363597D01*
X178215690Y-88722930D01*
X178313105Y-89073785D01*
X178447886Y-89412057D01*
X178618447Y-89733771D01*
X178822795Y-90035163D01*
X178952695Y-90188093D01*
X181140790Y-88000001D01*
X181140790Y-87999999D01*
X178952696Y-85811905D01*
X178822795Y-85964837D01*
X178618447Y-86266228D01*
X178447886Y-86587942D01*
X178313105Y-86926214D01*
X178215690Y-87277069D01*
X178156782Y-87636402D01*
X178137067Y-88000000D01*
X141862932Y-88000000D01*
X141843217Y-87636402D01*
X141784309Y-87277069D01*
X141686894Y-86926214D01*
X141552113Y-86587942D01*
X141381552Y-86266228D01*
X141177204Y-85964836D01*
X141047302Y-85811905D01*
X138859210Y-87999999D01*
X138859210Y-88000001D01*
X138140790Y-88000001D01*
X138140790Y-87999999D01*
X135952696Y-85811905D01*
X135822795Y-85964837D01*
X135618447Y-86266228D01*
X135447886Y-86587942D01*
X135313105Y-86926214D01*
X135247907Y-87161037D01*
X135218754Y-87213149D01*
X135168881Y-87245987D01*
X135109490Y-87252175D01*
X135053919Y-87230323D01*
X135014649Y-87185340D01*
X135000500Y-87127328D01*
X135000500Y-85449924D01*
X136309133Y-85449924D01*
X138499999Y-87640790D01*
X138500001Y-87640790D01*
X140690865Y-85449924D01*
X179309133Y-85449924D01*
X181499999Y-87640790D01*
X181500001Y-87640790D01*
X183690865Y-85449924D01*
X183690864Y-85449923D01*
X183677119Y-85436903D01*
X183387232Y-85216537D01*
X183075221Y-85028806D01*
X182744750Y-84875914D01*
X182399680Y-84759646D01*
X182044060Y-84681369D01*
X181682069Y-84642000D01*
X181317931Y-84642000D01*
X180955939Y-84681369D01*
X180600319Y-84759646D01*
X180255249Y-84875914D01*
X179924778Y-85028806D01*
X179612767Y-85216537D01*
X179322881Y-85436903D01*
X179309133Y-85449923D01*
X179309133Y-85449924D01*
X140690865Y-85449924D01*
X140690864Y-85449923D01*
X140677119Y-85436903D01*
X140387232Y-85216537D01*
X140075221Y-85028806D01*
X139744750Y-84875914D01*
X139399680Y-84759646D01*
X139044060Y-84681369D01*
X138682069Y-84642000D01*
X138317931Y-84642000D01*
X137955939Y-84681369D01*
X137600319Y-84759646D01*
X137255249Y-84875914D01*
X136924778Y-85028806D01*
X136612767Y-85216537D01*
X136322881Y-85436903D01*
X136309133Y-85449923D01*
X136309133Y-85449924D01*
X135000500Y-85449924D01*
X135000500Y-83030541D01*
X136479712Y-83030541D01*
X136649739Y-83146463D01*
X136887090Y-83260766D01*
X137138824Y-83338415D01*
X137399326Y-83377680D01*
X137662762Y-83377680D01*
X137923263Y-83338415D01*
X138174997Y-83260766D01*
X138412346Y-83146465D01*
X138582374Y-83030541D01*
X141559712Y-83030541D01*
X141729739Y-83146463D01*
X141967090Y-83260766D01*
X142218824Y-83338415D01*
X142479326Y-83377680D01*
X142742762Y-83377680D01*
X143003263Y-83338415D01*
X143254997Y-83260766D01*
X143492346Y-83146465D01*
X143662375Y-83030540D01*
X143582376Y-82950541D01*
X176408668Y-82950541D01*
X176578695Y-83066463D01*
X176816046Y-83180766D01*
X177067780Y-83258415D01*
X177328282Y-83297680D01*
X177591718Y-83297680D01*
X177852219Y-83258415D01*
X178103953Y-83180766D01*
X178341302Y-83066465D01*
X178511330Y-82950541D01*
X181488668Y-82950541D01*
X181658695Y-83066463D01*
X181896046Y-83180766D01*
X182147780Y-83258415D01*
X182408282Y-83297680D01*
X182671718Y-83297680D01*
X182932219Y-83258415D01*
X183183953Y-83180766D01*
X183421302Y-83066465D01*
X183591331Y-82950540D01*
X182540001Y-81899210D01*
X182539999Y-81899210D01*
X181488668Y-82950539D01*
X181488668Y-82950541D01*
X178511330Y-82950541D01*
X178511331Y-82950540D01*
X177460001Y-81899210D01*
X177459999Y-81899210D01*
X176408668Y-82950539D01*
X176408668Y-82950541D01*
X143582376Y-82950541D01*
X142611045Y-81979210D01*
X142611043Y-81979210D01*
X141559712Y-83030539D01*
X141559712Y-83030541D01*
X138582374Y-83030541D01*
X138582375Y-83030540D01*
X137531045Y-81979210D01*
X137531043Y-81979210D01*
X136479712Y-83030539D01*
X136479712Y-83030541D01*
X135000500Y-83030541D01*
X135000500Y-81620000D01*
X135768435Y-81620000D01*
X135788122Y-81882704D01*
X135846743Y-82139539D01*
X135942988Y-82384768D01*
X136074708Y-82612913D01*
X136120942Y-82670889D01*
X136120944Y-82670889D01*
X137171834Y-81620001D01*
X137890254Y-81620001D01*
X138941143Y-82670890D01*
X138941144Y-82670890D01*
X138987381Y-82612911D01*
X139119099Y-82384768D01*
X139215344Y-82139539D01*
X139273965Y-81882704D01*
X139293652Y-81620000D01*
X139273965Y-81357295D01*
X139215344Y-81100460D01*
X139119099Y-80855231D01*
X138987379Y-80627086D01*
X138941144Y-80569109D01*
X138941142Y-80569109D01*
X137890254Y-81619999D01*
X137890254Y-81620001D01*
X137171834Y-81620001D01*
X137171834Y-81619999D01*
X136120944Y-80569109D01*
X136120942Y-80569109D01*
X136074708Y-80627086D01*
X135942988Y-80855231D01*
X135846743Y-81100460D01*
X135788122Y-81357295D01*
X135768435Y-81620000D01*
X135000500Y-81620000D01*
X135000500Y-80209459D01*
X136479712Y-80209459D01*
X137531043Y-81260790D01*
X137531045Y-81260790D01*
X138582374Y-80209459D01*
X138582374Y-80209457D01*
X138412349Y-80093536D01*
X138174997Y-79979233D01*
X137923263Y-79901584D01*
X137662762Y-79862320D01*
X137399326Y-79862320D01*
X137138824Y-79901584D01*
X136887091Y-79979233D01*
X136649740Y-80093536D01*
X136479712Y-80209457D01*
X136479712Y-80209459D01*
X135000500Y-80209459D01*
X135000500Y-79140939D01*
X138558863Y-79140939D01*
X138588221Y-79382720D01*
X138655983Y-79616662D01*
X138724297Y-79760631D01*
X138760394Y-79836705D01*
X138898752Y-80037150D01*
X139064256Y-80209457D01*
X139067469Y-80212802D01*
X139262179Y-80359117D01*
X139477839Y-80472304D01*
X139636824Y-80525381D01*
X139708865Y-80549432D01*
X139949263Y-80588500D01*
X139949265Y-80588500D01*
X140958748Y-80588500D01*
X141021748Y-80605381D01*
X141067867Y-80651500D01*
X141084748Y-80714500D01*
X141067867Y-80777500D01*
X141022988Y-80855231D01*
X140926743Y-81100460D01*
X140868122Y-81357295D01*
X140848435Y-81620000D01*
X140868122Y-81882704D01*
X140926743Y-82139539D01*
X141022988Y-82384768D01*
X141154708Y-82612913D01*
X141200942Y-82670889D01*
X141200944Y-82670889D01*
X142521948Y-81349885D01*
X142578432Y-81317273D01*
X142643654Y-81317273D01*
X142700138Y-81349885D01*
X144021143Y-82670890D01*
X144021144Y-82670890D01*
X144067381Y-82612911D01*
X144199099Y-82384768D01*
X144295344Y-82139539D01*
X144304835Y-82097961D01*
X144329166Y-82047440D01*
X144373007Y-82012478D01*
X144427676Y-82000000D01*
X157000000Y-82000000D01*
X157720941Y-81423246D01*
X157774297Y-81398214D01*
X157833201Y-81400186D01*
X157884765Y-81428731D01*
X157917706Y-81477604D01*
X157924552Y-81495960D01*
X158012095Y-81612904D01*
X158129037Y-81700445D01*
X158265906Y-81751494D01*
X158326411Y-81758000D01*
X159746000Y-81758000D01*
X159746000Y-80372000D01*
X159762881Y-80309000D01*
X159809000Y-80262881D01*
X159872000Y-80246000D01*
X160128000Y-80246000D01*
X160191000Y-80262881D01*
X160237119Y-80309000D01*
X160254000Y-80372000D01*
X160254000Y-81758000D01*
X161673589Y-81758000D01*
X161734093Y-81751494D01*
X161870962Y-81700445D01*
X161987904Y-81612904D01*
X162075444Y-81495964D01*
X162082291Y-81477607D01*
X162115232Y-81428733D01*
X162166796Y-81400186D01*
X162225701Y-81398214D01*
X162279056Y-81423245D01*
X163000000Y-82000000D01*
X163000002Y-82000000D01*
X175666427Y-82000000D01*
X175715370Y-82009894D01*
X175756626Y-82038022D01*
X175783717Y-82079967D01*
X175871944Y-82304768D01*
X176003664Y-82532913D01*
X176049898Y-82590889D01*
X176049900Y-82590889D01*
X177370904Y-81269885D01*
X177427388Y-81237273D01*
X177492610Y-81237273D01*
X177549094Y-81269885D01*
X178870099Y-82590890D01*
X178870100Y-82590890D01*
X178916337Y-82532911D01*
X179048055Y-82304768D01*
X179144300Y-82059539D01*
X179202921Y-81802704D01*
X179222608Y-81539999D01*
X180777391Y-81539999D01*
X180797078Y-81802704D01*
X180855699Y-82059539D01*
X180951944Y-82304768D01*
X181083664Y-82532913D01*
X181129898Y-82590889D01*
X181129900Y-82590889D01*
X182180790Y-81540001D01*
X182899210Y-81540001D01*
X183950099Y-82590890D01*
X183950100Y-82590890D01*
X183996337Y-82532911D01*
X184128055Y-82304768D01*
X184224300Y-82059539D01*
X184282921Y-81802704D01*
X184302608Y-81539999D01*
X184282921Y-81277295D01*
X184224300Y-81020460D01*
X184128055Y-80775231D01*
X183996335Y-80547086D01*
X183950100Y-80489109D01*
X183950098Y-80489109D01*
X182899210Y-81539999D01*
X182899210Y-81540001D01*
X182180790Y-81540001D01*
X182180790Y-81539999D01*
X181129900Y-80489109D01*
X181129898Y-80489109D01*
X181083664Y-80547086D01*
X180951944Y-80775231D01*
X180855699Y-81020460D01*
X180797078Y-81277295D01*
X180777391Y-81539999D01*
X179222608Y-81539999D01*
X179202921Y-81277295D01*
X179144300Y-81020460D01*
X179048055Y-80775231D01*
X179003177Y-80697500D01*
X178986296Y-80634500D01*
X179003177Y-80571500D01*
X179049296Y-80525381D01*
X179112296Y-80508500D01*
X180060802Y-80508500D01*
X180143511Y-80501822D01*
X180242768Y-80493810D01*
X180479248Y-80435523D01*
X180703316Y-80340056D01*
X180909168Y-80209883D01*
X180999949Y-80129459D01*
X181488668Y-80129459D01*
X182539999Y-81180790D01*
X182540001Y-81180790D01*
X183591330Y-80129459D01*
X183591330Y-80129457D01*
X183421305Y-80013536D01*
X183183953Y-79899233D01*
X182932219Y-79821584D01*
X182671718Y-79782320D01*
X182408282Y-79782320D01*
X182147780Y-79821584D01*
X181896047Y-79899233D01*
X181658696Y-80013536D01*
X181488668Y-80129457D01*
X181488668Y-80129459D01*
X180999949Y-80129459D01*
X181091474Y-80048375D01*
X181245510Y-79859714D01*
X181367289Y-79648787D01*
X181453656Y-79421057D01*
X181502374Y-79182421D01*
X181512181Y-78939061D01*
X181482823Y-78697280D01*
X181415061Y-78463338D01*
X181310650Y-78243296D01*
X181294767Y-78220286D01*
X181172291Y-78042849D01*
X181006786Y-77870541D01*
X181488668Y-77870541D01*
X181658695Y-77986463D01*
X181896046Y-78100766D01*
X182147780Y-78178415D01*
X182408282Y-78217680D01*
X182671718Y-78217680D01*
X182932219Y-78178415D01*
X183183953Y-78100766D01*
X183421302Y-77986465D01*
X183591331Y-77870540D01*
X182540001Y-76819210D01*
X182539999Y-76819210D01*
X181488668Y-77870539D01*
X181488668Y-77870541D01*
X181006786Y-77870541D01*
X181003579Y-77867202D01*
X181003578Y-77867201D01*
X181003575Y-77867198D01*
X180808865Y-77720883D01*
X180808861Y-77720881D01*
X180808860Y-77720880D01*
X180593208Y-77607697D01*
X180362178Y-77530567D01*
X180121781Y-77491500D01*
X180121779Y-77491500D01*
X179112296Y-77491500D01*
X179049296Y-77474619D01*
X179003177Y-77428500D01*
X178986296Y-77365500D01*
X179003177Y-77302500D01*
X179048055Y-77224768D01*
X179144300Y-76979539D01*
X179202921Y-76722704D01*
X179222608Y-76459999D01*
X180777391Y-76459999D01*
X180797078Y-76722704D01*
X180855699Y-76979539D01*
X180951944Y-77224768D01*
X181083664Y-77452913D01*
X181129898Y-77510889D01*
X181129900Y-77510889D01*
X182180790Y-76460001D01*
X182899210Y-76460001D01*
X183950099Y-77510890D01*
X183950100Y-77510890D01*
X183996337Y-77452911D01*
X184128055Y-77224768D01*
X184224300Y-76979539D01*
X184282921Y-76722704D01*
X184302608Y-76459999D01*
X184282921Y-76197295D01*
X184224300Y-75940460D01*
X184128055Y-75695231D01*
X183996335Y-75467086D01*
X183950100Y-75409109D01*
X183950098Y-75409109D01*
X182899210Y-76459999D01*
X182899210Y-76460001D01*
X182180790Y-76460001D01*
X182180790Y-76459999D01*
X181129900Y-75409109D01*
X181129898Y-75409109D01*
X181083664Y-75467086D01*
X180951944Y-75695231D01*
X180855699Y-75940460D01*
X180797078Y-76197295D01*
X180777391Y-76459999D01*
X179222608Y-76459999D01*
X179202921Y-76197295D01*
X179144300Y-75940460D01*
X179048055Y-75695231D01*
X178916335Y-75467086D01*
X178870100Y-75409109D01*
X178870098Y-75409109D01*
X177549094Y-76730114D01*
X177492610Y-76762726D01*
X177427388Y-76762726D01*
X177370904Y-76730114D01*
X176049900Y-75409109D01*
X176049898Y-75409109D01*
X176003664Y-75467086D01*
X175871944Y-75695231D01*
X175783717Y-75920033D01*
X175756626Y-75961978D01*
X175715370Y-75990106D01*
X175666427Y-76000000D01*
X163000000Y-76000000D01*
X162778172Y-76177461D01*
X162279059Y-76576751D01*
X162225702Y-76601784D01*
X162166797Y-76599812D01*
X162115233Y-76571267D01*
X162082292Y-76522393D01*
X162075445Y-76504037D01*
X161987904Y-76387095D01*
X161870962Y-76299554D01*
X161734093Y-76248505D01*
X161673589Y-76242000D01*
X160254000Y-76242000D01*
X160254000Y-77628000D01*
X160237119Y-77691000D01*
X160191000Y-77737119D01*
X160128000Y-77754000D01*
X159872000Y-77754000D01*
X159809000Y-77737119D01*
X159762881Y-77691000D01*
X159746000Y-77628000D01*
X159746000Y-76242000D01*
X158326411Y-76242000D01*
X158265906Y-76248505D01*
X158129037Y-76299554D01*
X158012095Y-76387095D01*
X157924553Y-76504038D01*
X157917706Y-76522396D01*
X157884765Y-76571269D01*
X157833201Y-76599813D01*
X157774296Y-76601785D01*
X157720941Y-76576753D01*
X157000000Y-76000000D01*
X144373219Y-76000000D01*
X144324276Y-75990106D01*
X144283020Y-75961978D01*
X144255929Y-75920033D01*
X144199099Y-75775231D01*
X144067379Y-75547086D01*
X144021144Y-75489109D01*
X144021142Y-75489109D01*
X142700138Y-76810114D01*
X142643654Y-76842726D01*
X142578432Y-76842726D01*
X142521948Y-76810114D01*
X141200944Y-75489109D01*
X141200942Y-75489109D01*
X141154708Y-75547086D01*
X141022988Y-75775231D01*
X140926743Y-76020460D01*
X140868122Y-76277295D01*
X140848435Y-76540000D01*
X140868122Y-76802704D01*
X140926743Y-77059539D01*
X141022988Y-77304768D01*
X141067867Y-77382500D01*
X141084748Y-77445500D01*
X141067867Y-77508500D01*
X141021748Y-77554619D01*
X140958748Y-77571500D01*
X140010242Y-77571500D01*
X139828281Y-77586189D01*
X139828277Y-77586189D01*
X139828276Y-77586190D01*
X139741023Y-77607696D01*
X139591792Y-77644478D01*
X139367727Y-77739944D01*
X139161874Y-77870117D01*
X138979571Y-78031623D01*
X138825534Y-78220285D01*
X138703756Y-78431210D01*
X138617388Y-78658942D01*
X138609561Y-78697280D01*
X138568670Y-78897579D01*
X138558863Y-79140939D01*
X135000500Y-79140939D01*
X135000500Y-77950541D01*
X136479712Y-77950541D01*
X136649739Y-78066463D01*
X136887090Y-78180766D01*
X137138824Y-78258415D01*
X137399326Y-78297680D01*
X137662762Y-78297680D01*
X137923263Y-78258415D01*
X138174997Y-78180766D01*
X138412346Y-78066465D01*
X138582375Y-77950540D01*
X137531045Y-76899210D01*
X137531043Y-76899210D01*
X136479712Y-77950539D01*
X136479712Y-77950541D01*
X135000500Y-77950541D01*
X135000500Y-76540000D01*
X135768435Y-76540000D01*
X135788122Y-76802704D01*
X135846743Y-77059539D01*
X135942988Y-77304768D01*
X136074708Y-77532913D01*
X136120942Y-77590889D01*
X136120944Y-77590889D01*
X137171834Y-76540001D01*
X137890254Y-76540001D01*
X138941143Y-77590890D01*
X138941144Y-77590890D01*
X138987381Y-77532911D01*
X139119099Y-77304768D01*
X139215344Y-77059539D01*
X139273965Y-76802704D01*
X139293652Y-76540000D01*
X139273965Y-76277295D01*
X139215344Y-76020460D01*
X139119099Y-75775231D01*
X138987379Y-75547086D01*
X138941144Y-75489109D01*
X138941142Y-75489109D01*
X137890254Y-76539999D01*
X137890254Y-76540001D01*
X137171834Y-76540001D01*
X137171834Y-76539999D01*
X136120944Y-75489109D01*
X136120942Y-75489109D01*
X136074708Y-75547086D01*
X135942988Y-75775231D01*
X135846743Y-76020460D01*
X135788122Y-76277295D01*
X135768435Y-76540000D01*
X135000500Y-76540000D01*
X135000500Y-75129459D01*
X136479712Y-75129459D01*
X137531043Y-76180790D01*
X137531045Y-76180790D01*
X138582374Y-75129459D01*
X141559712Y-75129459D01*
X142611043Y-76180790D01*
X142611045Y-76180790D01*
X143662374Y-75129459D01*
X143662374Y-75129457D01*
X143545038Y-75049459D01*
X176408668Y-75049459D01*
X177459999Y-76100790D01*
X177460001Y-76100790D01*
X178511330Y-75049459D01*
X181488668Y-75049459D01*
X182539999Y-76100790D01*
X182540001Y-76100790D01*
X183591330Y-75049459D01*
X183591330Y-75049457D01*
X183421305Y-74933536D01*
X183183953Y-74819233D01*
X182932219Y-74741584D01*
X182671718Y-74702320D01*
X182408282Y-74702320D01*
X182147780Y-74741584D01*
X181896047Y-74819233D01*
X181658696Y-74933536D01*
X181488668Y-75049457D01*
X181488668Y-75049459D01*
X178511330Y-75049459D01*
X178511330Y-75049457D01*
X178341305Y-74933536D01*
X178103953Y-74819233D01*
X177852219Y-74741584D01*
X177591718Y-74702320D01*
X177328282Y-74702320D01*
X177067780Y-74741584D01*
X176816047Y-74819233D01*
X176578696Y-74933536D01*
X176408668Y-75049457D01*
X176408668Y-75049459D01*
X143545038Y-75049459D01*
X143492349Y-75013536D01*
X143254997Y-74899233D01*
X143003263Y-74821584D01*
X142742762Y-74782320D01*
X142479326Y-74782320D01*
X142218824Y-74821584D01*
X141967091Y-74899233D01*
X141729740Y-75013536D01*
X141559712Y-75129457D01*
X141559712Y-75129459D01*
X138582374Y-75129459D01*
X138582374Y-75129457D01*
X138412349Y-75013536D01*
X138174997Y-74899233D01*
X137923263Y-74821584D01*
X137662762Y-74782320D01*
X137399326Y-74782320D01*
X137138824Y-74821584D01*
X136887091Y-74899233D01*
X136649740Y-75013536D01*
X136479712Y-75129457D01*
X136479712Y-75129459D01*
X135000500Y-75129459D01*
X135000500Y-68950541D01*
X136408668Y-68950541D01*
X136578695Y-69066463D01*
X136816046Y-69180766D01*
X137067780Y-69258415D01*
X137328282Y-69297680D01*
X137591718Y-69297680D01*
X137852219Y-69258415D01*
X138103953Y-69180766D01*
X138341302Y-69066465D01*
X138511330Y-68950541D01*
X141488668Y-68950541D01*
X141658695Y-69066463D01*
X141896046Y-69180766D01*
X142147780Y-69258415D01*
X142408282Y-69297680D01*
X142671718Y-69297680D01*
X142932219Y-69258415D01*
X143183953Y-69180766D01*
X143421302Y-69066465D01*
X143591330Y-68950541D01*
X176408668Y-68950541D01*
X176578695Y-69066463D01*
X176816046Y-69180766D01*
X177067780Y-69258415D01*
X177328282Y-69297680D01*
X177591718Y-69297680D01*
X177852219Y-69258415D01*
X178103953Y-69180766D01*
X178341302Y-69066465D01*
X178511330Y-68950541D01*
X181488668Y-68950541D01*
X181658695Y-69066463D01*
X181896046Y-69180766D01*
X182147780Y-69258415D01*
X182408282Y-69297680D01*
X182671718Y-69297680D01*
X182932219Y-69258415D01*
X183183953Y-69180766D01*
X183421302Y-69066465D01*
X183591331Y-68950540D01*
X182540001Y-67899210D01*
X182539999Y-67899210D01*
X181488668Y-68950539D01*
X181488668Y-68950541D01*
X178511330Y-68950541D01*
X178511331Y-68950540D01*
X177460001Y-67899210D01*
X177459999Y-67899210D01*
X176408668Y-68950539D01*
X176408668Y-68950541D01*
X143591330Y-68950541D01*
X143591331Y-68950540D01*
X142540001Y-67899210D01*
X142539999Y-67899210D01*
X141488668Y-68950539D01*
X141488668Y-68950541D01*
X138511330Y-68950541D01*
X138511331Y-68950540D01*
X137460001Y-67899210D01*
X137459999Y-67899210D01*
X136408668Y-68950539D01*
X136408668Y-68950541D01*
X135000500Y-68950541D01*
X135000500Y-67540000D01*
X135697391Y-67540000D01*
X135717078Y-67802704D01*
X135775699Y-68059539D01*
X135871944Y-68304768D01*
X136003664Y-68532913D01*
X136049898Y-68590889D01*
X136049900Y-68590889D01*
X137100790Y-67540001D01*
X137819210Y-67540001D01*
X138870099Y-68590890D01*
X138870100Y-68590890D01*
X138916337Y-68532911D01*
X139048055Y-68304768D01*
X139144300Y-68059539D01*
X139202921Y-67802704D01*
X139222608Y-67539999D01*
X139202921Y-67277295D01*
X139144300Y-67020460D01*
X139048055Y-66775231D01*
X138916335Y-66547086D01*
X138870100Y-66489109D01*
X138870098Y-66489109D01*
X137819210Y-67539999D01*
X137819210Y-67540001D01*
X137100790Y-67540001D01*
X137100790Y-67539999D01*
X136049900Y-66489109D01*
X136049898Y-66489109D01*
X136003664Y-66547086D01*
X135871944Y-66775231D01*
X135775699Y-67020460D01*
X135717078Y-67277295D01*
X135697391Y-67540000D01*
X135000500Y-67540000D01*
X135000500Y-66129459D01*
X136408668Y-66129459D01*
X137459999Y-67180790D01*
X137460001Y-67180790D01*
X138511330Y-66129459D01*
X138511330Y-66129457D01*
X138341305Y-66013536D01*
X138103953Y-65899233D01*
X137852219Y-65821584D01*
X137591718Y-65782320D01*
X137328282Y-65782320D01*
X137067780Y-65821584D01*
X136816047Y-65899233D01*
X136578696Y-66013536D01*
X136408668Y-66129457D01*
X136408668Y-66129459D01*
X135000500Y-66129459D01*
X135000500Y-65060939D01*
X138487819Y-65060939D01*
X138517177Y-65302720D01*
X138584939Y-65536662D01*
X138638143Y-65648787D01*
X138689350Y-65756705D01*
X138827708Y-65957150D01*
X138993212Y-66129457D01*
X138996425Y-66132802D01*
X139191135Y-66279117D01*
X139406795Y-66392304D01*
X139637818Y-66469431D01*
X139637821Y-66469432D01*
X139878219Y-66508500D01*
X139878221Y-66508500D01*
X140887704Y-66508500D01*
X140950704Y-66525381D01*
X140996823Y-66571500D01*
X141013704Y-66634500D01*
X140996823Y-66697500D01*
X140951944Y-66775231D01*
X140855699Y-67020460D01*
X140797078Y-67277295D01*
X140777391Y-67539999D01*
X140797078Y-67802704D01*
X140855699Y-68059539D01*
X140951944Y-68304768D01*
X141083664Y-68532913D01*
X141129898Y-68590889D01*
X141129900Y-68590889D01*
X142450904Y-67269885D01*
X142507388Y-67237273D01*
X142572610Y-67237273D01*
X142629094Y-67269885D01*
X143950099Y-68590890D01*
X143984750Y-68547440D01*
X144028592Y-68512478D01*
X144083261Y-68500000D01*
X175916739Y-68500000D01*
X175971409Y-68512478D01*
X176015250Y-68547441D01*
X176049898Y-68590889D01*
X176049900Y-68590889D01*
X177370904Y-67269885D01*
X177427388Y-67237273D01*
X177492610Y-67237273D01*
X177549094Y-67269885D01*
X178870099Y-68590890D01*
X178870100Y-68590890D01*
X178916337Y-68532911D01*
X179048055Y-68304768D01*
X179144300Y-68059539D01*
X179202921Y-67802704D01*
X179222608Y-67539999D01*
X180777391Y-67539999D01*
X180797078Y-67802704D01*
X180855699Y-68059539D01*
X180951944Y-68304768D01*
X181083664Y-68532913D01*
X181129898Y-68590889D01*
X181129900Y-68590889D01*
X182180790Y-67540001D01*
X182899210Y-67540001D01*
X183950099Y-68590890D01*
X183950100Y-68590890D01*
X183996337Y-68532911D01*
X184128055Y-68304768D01*
X184224300Y-68059539D01*
X184282921Y-67802704D01*
X184302608Y-67539999D01*
X184282921Y-67277295D01*
X184224300Y-67020460D01*
X184128055Y-66775231D01*
X183996335Y-66547086D01*
X183950100Y-66489109D01*
X183950098Y-66489109D01*
X182899210Y-67539999D01*
X182899210Y-67540001D01*
X182180790Y-67540001D01*
X182180790Y-67539999D01*
X181129900Y-66489109D01*
X181129898Y-66489109D01*
X181083664Y-66547086D01*
X180951944Y-66775231D01*
X180855699Y-67020460D01*
X180797078Y-67277295D01*
X180777391Y-67539999D01*
X179222608Y-67539999D01*
X179202921Y-67277295D01*
X179144300Y-67020460D01*
X179048055Y-66775231D01*
X179003177Y-66697500D01*
X178986296Y-66634500D01*
X179003177Y-66571500D01*
X179049296Y-66525381D01*
X179112296Y-66508500D01*
X180060802Y-66508500D01*
X180143511Y-66501822D01*
X180242768Y-66493810D01*
X180479248Y-66435523D01*
X180703316Y-66340056D01*
X180909168Y-66209883D01*
X180999949Y-66129459D01*
X181488668Y-66129459D01*
X182539999Y-67180790D01*
X182540001Y-67180790D01*
X183591330Y-66129459D01*
X183591330Y-66129457D01*
X183421305Y-66013536D01*
X183183953Y-65899233D01*
X182932219Y-65821584D01*
X182671718Y-65782320D01*
X182408282Y-65782320D01*
X182147780Y-65821584D01*
X181896047Y-65899233D01*
X181658696Y-66013536D01*
X181488668Y-66129457D01*
X181488668Y-66129459D01*
X180999949Y-66129459D01*
X181091474Y-66048375D01*
X181245510Y-65859714D01*
X181367289Y-65648787D01*
X181453656Y-65421057D01*
X181502374Y-65182421D01*
X181512181Y-64939061D01*
X181482823Y-64697280D01*
X181415061Y-64463338D01*
X181310650Y-64243296D01*
X181292968Y-64217680D01*
X181172291Y-64042849D01*
X181006786Y-63870541D01*
X181488668Y-63870541D01*
X181658695Y-63986463D01*
X181896046Y-64100766D01*
X182147780Y-64178415D01*
X182408282Y-64217680D01*
X182671718Y-64217680D01*
X182932219Y-64178415D01*
X183183953Y-64100766D01*
X183421302Y-63986465D01*
X183591331Y-63870540D01*
X182540001Y-62819210D01*
X182539999Y-62819210D01*
X181488668Y-63870539D01*
X181488668Y-63870541D01*
X181006786Y-63870541D01*
X181003579Y-63867202D01*
X181003578Y-63867201D01*
X181003575Y-63867198D01*
X180808865Y-63720883D01*
X180808861Y-63720881D01*
X180808860Y-63720880D01*
X180593208Y-63607697D01*
X180362178Y-63530567D01*
X180121781Y-63491500D01*
X180121779Y-63491500D01*
X179112296Y-63491500D01*
X179049296Y-63474619D01*
X179003177Y-63428500D01*
X178986296Y-63365500D01*
X179003177Y-63302500D01*
X179048055Y-63224768D01*
X179144300Y-62979539D01*
X179202921Y-62722704D01*
X179222608Y-62459999D01*
X180777391Y-62459999D01*
X180797078Y-62722704D01*
X180855699Y-62979539D01*
X180951944Y-63224768D01*
X181083664Y-63452913D01*
X181129898Y-63510889D01*
X181129900Y-63510889D01*
X182180790Y-62460001D01*
X182899210Y-62460001D01*
X183950099Y-63510890D01*
X183950100Y-63510890D01*
X183996337Y-63452911D01*
X184128055Y-63224768D01*
X184224300Y-62979539D01*
X184282921Y-62722704D01*
X184302608Y-62459999D01*
X184282921Y-62197295D01*
X184224300Y-61940460D01*
X184128055Y-61695231D01*
X183996335Y-61467086D01*
X183950100Y-61409109D01*
X183950098Y-61409109D01*
X182899210Y-62459999D01*
X182899210Y-62460001D01*
X182180790Y-62460001D01*
X182180790Y-62459999D01*
X181129900Y-61409109D01*
X181129898Y-61409109D01*
X181083664Y-61467086D01*
X180951944Y-61695231D01*
X180855699Y-61940460D01*
X180797078Y-62197295D01*
X180777391Y-62459999D01*
X179222608Y-62459999D01*
X179202921Y-62197295D01*
X179144300Y-61940460D01*
X179048055Y-61695231D01*
X178916335Y-61467086D01*
X178870100Y-61409109D01*
X178870098Y-61409109D01*
X177549094Y-62730114D01*
X177492610Y-62762726D01*
X177427388Y-62762726D01*
X177370904Y-62730114D01*
X176049900Y-61409109D01*
X176049899Y-61409109D01*
X176015250Y-61452559D01*
X175971408Y-61487522D01*
X175916738Y-61500000D01*
X144083261Y-61500000D01*
X144028592Y-61487522D01*
X143984750Y-61452560D01*
X143950098Y-61409109D01*
X142629094Y-62730114D01*
X142572610Y-62762726D01*
X142507388Y-62762726D01*
X142450904Y-62730114D01*
X141129900Y-61409109D01*
X141129898Y-61409109D01*
X141083664Y-61467086D01*
X140951944Y-61695231D01*
X140855699Y-61940460D01*
X140797078Y-62197295D01*
X140777391Y-62459999D01*
X140797078Y-62722704D01*
X140855699Y-62979539D01*
X140951944Y-63224768D01*
X140996823Y-63302500D01*
X141013704Y-63365500D01*
X140996823Y-63428500D01*
X140950704Y-63474619D01*
X140887704Y-63491500D01*
X139939198Y-63491500D01*
X139757237Y-63506189D01*
X139757233Y-63506189D01*
X139757232Y-63506190D01*
X139520752Y-63564477D01*
X139520748Y-63564478D01*
X139296683Y-63659944D01*
X139090830Y-63790117D01*
X138908527Y-63951623D01*
X138754490Y-64140285D01*
X138632712Y-64351210D01*
X138632710Y-64351213D01*
X138632711Y-64351213D01*
X138546344Y-64578943D01*
X138497626Y-64817579D01*
X138487819Y-65060939D01*
X135000500Y-65060939D01*
X135000500Y-63870541D01*
X136408668Y-63870541D01*
X136578695Y-63986463D01*
X136816046Y-64100766D01*
X137067780Y-64178415D01*
X137328282Y-64217680D01*
X137591718Y-64217680D01*
X137852219Y-64178415D01*
X138103953Y-64100766D01*
X138341302Y-63986465D01*
X138511331Y-63870540D01*
X137460001Y-62819210D01*
X137459999Y-62819210D01*
X136408668Y-63870539D01*
X136408668Y-63870541D01*
X135000500Y-63870541D01*
X135000500Y-62459999D01*
X135697391Y-62459999D01*
X135717078Y-62722704D01*
X135775699Y-62979539D01*
X135871944Y-63224768D01*
X136003664Y-63452913D01*
X136049898Y-63510889D01*
X136049900Y-63510889D01*
X137100790Y-62460001D01*
X137819210Y-62460001D01*
X138870099Y-63510890D01*
X138870100Y-63510890D01*
X138916337Y-63452911D01*
X139048055Y-63224768D01*
X139144300Y-62979539D01*
X139202921Y-62722704D01*
X139222608Y-62459999D01*
X139202921Y-62197295D01*
X139144300Y-61940460D01*
X139048055Y-61695231D01*
X138916335Y-61467086D01*
X138870100Y-61409109D01*
X138870098Y-61409109D01*
X137819210Y-62459999D01*
X137819210Y-62460001D01*
X137100790Y-62460001D01*
X137100790Y-62459999D01*
X136049900Y-61409109D01*
X136049898Y-61409109D01*
X136003664Y-61467086D01*
X135871944Y-61695231D01*
X135775699Y-61940460D01*
X135717078Y-62197295D01*
X135697391Y-62459999D01*
X135000500Y-62459999D01*
X135000500Y-61049459D01*
X136408668Y-61049459D01*
X137459999Y-62100790D01*
X137460001Y-62100790D01*
X138511330Y-61049459D01*
X141488668Y-61049459D01*
X142539999Y-62100790D01*
X142540001Y-62100790D01*
X143591330Y-61049459D01*
X176408668Y-61049459D01*
X177459999Y-62100790D01*
X177460001Y-62100790D01*
X178511330Y-61049459D01*
X181488668Y-61049459D01*
X182539999Y-62100790D01*
X182540001Y-62100790D01*
X183591330Y-61049459D01*
X183591330Y-61049457D01*
X183421305Y-60933536D01*
X183183953Y-60819233D01*
X182932219Y-60741584D01*
X182671718Y-60702320D01*
X182408282Y-60702320D01*
X182147780Y-60741584D01*
X181896047Y-60819233D01*
X181658696Y-60933536D01*
X181488668Y-61049457D01*
X181488668Y-61049459D01*
X178511330Y-61049459D01*
X178511330Y-61049457D01*
X178341305Y-60933536D01*
X178103953Y-60819233D01*
X177852219Y-60741584D01*
X177591718Y-60702320D01*
X177328282Y-60702320D01*
X177067780Y-60741584D01*
X176816047Y-60819233D01*
X176578696Y-60933536D01*
X176408668Y-61049457D01*
X176408668Y-61049459D01*
X143591330Y-61049459D01*
X143591330Y-61049457D01*
X143421305Y-60933536D01*
X143183953Y-60819233D01*
X142932219Y-60741584D01*
X142671718Y-60702320D01*
X142408282Y-60702320D01*
X142147780Y-60741584D01*
X141896047Y-60819233D01*
X141658696Y-60933536D01*
X141488668Y-61049457D01*
X141488668Y-61049459D01*
X138511330Y-61049459D01*
X138511330Y-61049457D01*
X138341305Y-60933536D01*
X138103953Y-60819233D01*
X137852219Y-60741584D01*
X137591718Y-60702320D01*
X137328282Y-60702320D01*
X137067780Y-60741584D01*
X136816047Y-60819233D01*
X136578696Y-60933536D01*
X136408668Y-61049457D01*
X136408668Y-61049459D01*
X135000500Y-61049459D01*
X135000500Y-53950541D01*
X136408668Y-53950541D01*
X136578695Y-54066463D01*
X136816046Y-54180766D01*
X137067780Y-54258415D01*
X137328282Y-54297680D01*
X137591718Y-54297680D01*
X137852219Y-54258415D01*
X138103953Y-54180766D01*
X138341302Y-54066465D01*
X138511330Y-53950541D01*
X141488668Y-53950541D01*
X141658695Y-54066463D01*
X141896046Y-54180766D01*
X142147780Y-54258415D01*
X142408282Y-54297680D01*
X142671718Y-54297680D01*
X142932219Y-54258415D01*
X143183953Y-54180766D01*
X143421302Y-54066465D01*
X143591330Y-53950541D01*
X176408668Y-53950541D01*
X176578695Y-54066463D01*
X176816046Y-54180766D01*
X177067780Y-54258415D01*
X177328282Y-54297680D01*
X177591718Y-54297680D01*
X177852219Y-54258415D01*
X178103953Y-54180766D01*
X178341302Y-54066465D01*
X178511330Y-53950541D01*
X181488668Y-53950541D01*
X181658695Y-54066463D01*
X181896046Y-54180766D01*
X182147780Y-54258415D01*
X182408282Y-54297680D01*
X182671718Y-54297680D01*
X182932219Y-54258415D01*
X183183953Y-54180766D01*
X183421302Y-54066465D01*
X183591331Y-53950540D01*
X182540001Y-52899210D01*
X182539999Y-52899210D01*
X181488668Y-53950539D01*
X181488668Y-53950541D01*
X178511330Y-53950541D01*
X178511331Y-53950540D01*
X177460001Y-52899210D01*
X177459999Y-52899210D01*
X176408668Y-53950539D01*
X176408668Y-53950541D01*
X143591330Y-53950541D01*
X143591331Y-53950540D01*
X143318863Y-53678072D01*
X143312396Y-53667211D01*
X143302191Y-53661400D01*
X142540001Y-52899210D01*
X142539999Y-52899210D01*
X141488668Y-53950539D01*
X141488668Y-53950541D01*
X138511330Y-53950541D01*
X138511331Y-53950540D01*
X137460001Y-52899210D01*
X137459999Y-52899210D01*
X136408668Y-53950539D01*
X136408668Y-53950541D01*
X135000500Y-53950541D01*
X135000500Y-52539999D01*
X135697391Y-52539999D01*
X135717078Y-52802704D01*
X135775699Y-53059539D01*
X135871944Y-53304768D01*
X136003664Y-53532913D01*
X136049898Y-53590889D01*
X136049900Y-53590889D01*
X137100790Y-52540001D01*
X137819210Y-52540001D01*
X138870099Y-53590890D01*
X138870100Y-53590890D01*
X138916337Y-53532911D01*
X139048055Y-53304768D01*
X139144300Y-53059539D01*
X139202921Y-52802704D01*
X139222608Y-52540000D01*
X139202921Y-52277295D01*
X139144300Y-52020460D01*
X139048055Y-51775231D01*
X138916335Y-51547086D01*
X138870100Y-51489109D01*
X138870098Y-51489109D01*
X137819210Y-52539999D01*
X137819210Y-52540001D01*
X137100790Y-52540001D01*
X137100790Y-52539999D01*
X136049900Y-51489109D01*
X136049898Y-51489109D01*
X136003664Y-51547086D01*
X135871944Y-51775231D01*
X135775699Y-52020460D01*
X135717078Y-52277295D01*
X135697391Y-52539999D01*
X135000500Y-52539999D01*
X135000500Y-51129459D01*
X136408668Y-51129459D01*
X137459999Y-52180790D01*
X137460001Y-52180790D01*
X138511330Y-51129459D01*
X138511330Y-51129457D01*
X138341305Y-51013536D01*
X138103953Y-50899233D01*
X137852219Y-50821584D01*
X137591718Y-50782320D01*
X137328282Y-50782320D01*
X137067780Y-50821584D01*
X136816047Y-50899233D01*
X136578696Y-51013536D01*
X136408668Y-51129457D01*
X136408668Y-51129459D01*
X135000500Y-51129459D01*
X135000500Y-50060939D01*
X138487819Y-50060939D01*
X138517177Y-50302720D01*
X138584939Y-50536662D01*
X138638143Y-50648787D01*
X138689350Y-50756705D01*
X138827708Y-50957150D01*
X138993212Y-51129457D01*
X138996425Y-51132802D01*
X139191135Y-51279117D01*
X139406795Y-51392304D01*
X139637818Y-51469431D01*
X139637821Y-51469432D01*
X139878219Y-51508500D01*
X139878221Y-51508500D01*
X140887704Y-51508500D01*
X140950704Y-51525381D01*
X140996823Y-51571500D01*
X141013704Y-51634500D01*
X140996823Y-51697500D01*
X140951944Y-51775231D01*
X140855699Y-52020460D01*
X140797078Y-52277295D01*
X140777391Y-52540000D01*
X140797078Y-52802704D01*
X140855699Y-53059539D01*
X140951944Y-53304768D01*
X141083664Y-53532913D01*
X141129898Y-53590889D01*
X141129900Y-53590889D01*
X142450905Y-52269885D01*
X142507389Y-52237273D01*
X142572611Y-52237273D01*
X142629095Y-52269885D01*
X143299361Y-52940151D01*
X143329800Y-52989401D01*
X143500000Y-53500000D01*
X143807020Y-53500000D01*
X143855238Y-53509591D01*
X143896116Y-53536905D01*
X143950099Y-53590889D01*
X143984750Y-53547440D01*
X144028592Y-53512478D01*
X144083261Y-53500000D01*
X175916739Y-53500000D01*
X175971409Y-53512478D01*
X176015250Y-53547441D01*
X176049898Y-53590889D01*
X176049900Y-53590889D01*
X177370904Y-52269885D01*
X177427388Y-52237273D01*
X177492610Y-52237273D01*
X177549094Y-52269885D01*
X178870099Y-53590890D01*
X178870100Y-53590890D01*
X178916337Y-53532911D01*
X179048055Y-53304768D01*
X179144300Y-53059539D01*
X179202921Y-52802704D01*
X179222608Y-52540000D01*
X180777391Y-52540000D01*
X180797078Y-52802704D01*
X180855699Y-53059539D01*
X180951944Y-53304768D01*
X181083664Y-53532913D01*
X181129898Y-53590889D01*
X181129900Y-53590889D01*
X182180790Y-52540001D01*
X182899210Y-52540001D01*
X183950099Y-53590890D01*
X183950100Y-53590890D01*
X183996337Y-53532911D01*
X184128055Y-53304768D01*
X184224300Y-53059539D01*
X184282921Y-52802704D01*
X184302608Y-52540000D01*
X184282921Y-52277295D01*
X184224300Y-52020460D01*
X184128055Y-51775231D01*
X183996335Y-51547086D01*
X183950100Y-51489109D01*
X183950098Y-51489109D01*
X182899210Y-52539999D01*
X182899210Y-52540001D01*
X182180790Y-52540001D01*
X182180790Y-52539999D01*
X181129900Y-51489109D01*
X181129898Y-51489109D01*
X181083664Y-51547086D01*
X180951944Y-51775231D01*
X180855699Y-52020460D01*
X180797078Y-52277295D01*
X180777391Y-52540000D01*
X179222608Y-52540000D01*
X179202921Y-52277295D01*
X179144300Y-52020460D01*
X179048055Y-51775231D01*
X179003177Y-51697500D01*
X178986296Y-51634500D01*
X179003177Y-51571500D01*
X179049296Y-51525381D01*
X179112296Y-51508500D01*
X180060802Y-51508500D01*
X180143511Y-51501822D01*
X180242768Y-51493810D01*
X180479248Y-51435523D01*
X180703316Y-51340056D01*
X180909168Y-51209883D01*
X180999949Y-51129459D01*
X181488668Y-51129459D01*
X182539999Y-52180790D01*
X182540001Y-52180790D01*
X183591330Y-51129459D01*
X183591330Y-51129457D01*
X183421305Y-51013536D01*
X183183953Y-50899233D01*
X182932219Y-50821584D01*
X182671718Y-50782320D01*
X182408282Y-50782320D01*
X182147780Y-50821584D01*
X181896047Y-50899233D01*
X181658696Y-51013536D01*
X181488668Y-51129457D01*
X181488668Y-51129459D01*
X180999949Y-51129459D01*
X181091474Y-51048375D01*
X181245510Y-50859714D01*
X181367289Y-50648787D01*
X181453656Y-50421057D01*
X181502374Y-50182421D01*
X181512181Y-49939061D01*
X181482823Y-49697280D01*
X181415061Y-49463338D01*
X181310650Y-49243296D01*
X181292968Y-49217680D01*
X181172291Y-49042849D01*
X181006786Y-48870541D01*
X181488668Y-48870541D01*
X181658695Y-48986463D01*
X181896046Y-49100766D01*
X182147780Y-49178415D01*
X182408282Y-49217680D01*
X182671718Y-49217680D01*
X182932219Y-49178415D01*
X183183953Y-49100766D01*
X183421302Y-48986465D01*
X183591331Y-48870540D01*
X182540001Y-47819210D01*
X182539999Y-47819210D01*
X181488668Y-48870539D01*
X181488668Y-48870541D01*
X181006786Y-48870541D01*
X181003579Y-48867202D01*
X181003578Y-48867201D01*
X181003575Y-48867198D01*
X180808865Y-48720883D01*
X180808861Y-48720881D01*
X180808860Y-48720880D01*
X180593208Y-48607697D01*
X180362178Y-48530567D01*
X180121781Y-48491500D01*
X180121779Y-48491500D01*
X179112296Y-48491500D01*
X179049296Y-48474619D01*
X179003177Y-48428500D01*
X178986296Y-48365500D01*
X179003177Y-48302500D01*
X179048055Y-48224768D01*
X179144300Y-47979539D01*
X179202921Y-47722704D01*
X179222608Y-47459999D01*
X180777391Y-47459999D01*
X180797078Y-47722704D01*
X180855699Y-47979539D01*
X180951944Y-48224768D01*
X181083664Y-48452913D01*
X181129898Y-48510889D01*
X181129900Y-48510889D01*
X182180790Y-47460001D01*
X182899210Y-47460001D01*
X183950099Y-48510890D01*
X183950100Y-48510890D01*
X183996337Y-48452911D01*
X184128055Y-48224768D01*
X184224300Y-47979539D01*
X184282921Y-47722704D01*
X184302608Y-47459999D01*
X184282921Y-47197295D01*
X184224300Y-46940460D01*
X184128055Y-46695231D01*
X183996335Y-46467086D01*
X183950100Y-46409109D01*
X183950098Y-46409109D01*
X182899210Y-47459999D01*
X182899210Y-47460001D01*
X182180790Y-47460001D01*
X182180790Y-47459999D01*
X181129900Y-46409109D01*
X181129898Y-46409109D01*
X181083664Y-46467086D01*
X180951944Y-46695231D01*
X180855699Y-46940460D01*
X180797078Y-47197295D01*
X180777391Y-47459999D01*
X179222608Y-47459999D01*
X179202921Y-47197295D01*
X179144300Y-46940460D01*
X179048055Y-46695231D01*
X178916335Y-46467086D01*
X178870100Y-46409109D01*
X178870098Y-46409109D01*
X177549094Y-47730114D01*
X177492610Y-47762726D01*
X177427388Y-47762726D01*
X177370904Y-47730114D01*
X176049900Y-46409109D01*
X176049899Y-46409109D01*
X176015250Y-46452559D01*
X175971408Y-46487522D01*
X175916738Y-46500000D01*
X144083261Y-46500000D01*
X144028591Y-46487522D01*
X143984750Y-46452559D01*
X143950100Y-46409109D01*
X143896115Y-46463095D01*
X143855237Y-46490409D01*
X143807019Y-46500000D01*
X143499999Y-46500000D01*
X143329801Y-47010595D01*
X143299363Y-47059845D01*
X142629095Y-47730114D01*
X142572610Y-47762726D01*
X142507388Y-47762726D01*
X142450904Y-47730114D01*
X141129900Y-46409109D01*
X141129898Y-46409109D01*
X141083664Y-46467086D01*
X140951944Y-46695231D01*
X140855699Y-46940460D01*
X140797078Y-47197295D01*
X140777391Y-47459999D01*
X140797078Y-47722704D01*
X140855699Y-47979539D01*
X140951944Y-48224768D01*
X140996823Y-48302500D01*
X141013704Y-48365500D01*
X140996823Y-48428500D01*
X140950704Y-48474619D01*
X140887704Y-48491500D01*
X139939198Y-48491500D01*
X139757237Y-48506189D01*
X139757233Y-48506189D01*
X139757232Y-48506190D01*
X139520752Y-48564477D01*
X139520748Y-48564478D01*
X139296683Y-48659944D01*
X139090830Y-48790117D01*
X138908527Y-48951623D01*
X138754490Y-49140285D01*
X138632712Y-49351210D01*
X138632710Y-49351213D01*
X138632711Y-49351213D01*
X138546344Y-49578943D01*
X138497626Y-49817579D01*
X138487819Y-50060939D01*
X135000500Y-50060939D01*
X135000500Y-48870541D01*
X136408668Y-48870541D01*
X136578695Y-48986463D01*
X136816046Y-49100766D01*
X137067780Y-49178415D01*
X137328282Y-49217680D01*
X137591718Y-49217680D01*
X137852219Y-49178415D01*
X138103953Y-49100766D01*
X138341302Y-48986465D01*
X138511331Y-48870540D01*
X137460001Y-47819210D01*
X137459999Y-47819210D01*
X136408668Y-48870539D01*
X136408668Y-48870541D01*
X135000500Y-48870541D01*
X135000500Y-47459999D01*
X135697391Y-47459999D01*
X135717078Y-47722704D01*
X135775699Y-47979539D01*
X135871944Y-48224768D01*
X136003664Y-48452913D01*
X136049898Y-48510889D01*
X136049900Y-48510889D01*
X137100790Y-47460001D01*
X137819210Y-47460001D01*
X138870099Y-48510890D01*
X138870100Y-48510890D01*
X138916337Y-48452911D01*
X139048055Y-48224768D01*
X139144300Y-47979539D01*
X139202921Y-47722704D01*
X139222608Y-47459999D01*
X139202921Y-47197295D01*
X139144300Y-46940460D01*
X139048055Y-46695231D01*
X138916335Y-46467086D01*
X138870100Y-46409109D01*
X138870098Y-46409109D01*
X137819210Y-47459999D01*
X137819210Y-47460001D01*
X137100790Y-47460001D01*
X137100790Y-47459999D01*
X136049900Y-46409109D01*
X136049898Y-46409109D01*
X136003664Y-46467086D01*
X135871944Y-46695231D01*
X135775699Y-46940460D01*
X135717078Y-47197295D01*
X135697391Y-47459999D01*
X135000500Y-47459999D01*
X135000500Y-46049459D01*
X136408668Y-46049459D01*
X137459999Y-47100790D01*
X137460001Y-47100790D01*
X138511330Y-46049459D01*
X141488668Y-46049459D01*
X142539999Y-47100790D01*
X142540000Y-47100790D01*
X143302190Y-46338598D01*
X143312394Y-46332787D01*
X143318860Y-46321928D01*
X143591329Y-46049459D01*
X176408668Y-46049459D01*
X177459999Y-47100790D01*
X177460001Y-47100790D01*
X178511330Y-46049459D01*
X181488668Y-46049459D01*
X182539999Y-47100790D01*
X182540001Y-47100790D01*
X183591330Y-46049459D01*
X183591330Y-46049457D01*
X183421305Y-45933536D01*
X183183953Y-45819233D01*
X182932219Y-45741584D01*
X182671718Y-45702320D01*
X182408282Y-45702320D01*
X182147780Y-45741584D01*
X181896047Y-45819233D01*
X181658696Y-45933536D01*
X181488668Y-46049457D01*
X181488668Y-46049459D01*
X178511330Y-46049459D01*
X178511330Y-46049457D01*
X178341305Y-45933536D01*
X178103953Y-45819233D01*
X177852219Y-45741584D01*
X177591718Y-45702320D01*
X177328282Y-45702320D01*
X177067780Y-45741584D01*
X176816047Y-45819233D01*
X176578696Y-45933536D01*
X176408668Y-46049457D01*
X176408668Y-46049459D01*
X143591329Y-46049459D01*
X143591330Y-46049458D01*
X143591330Y-46049457D01*
X143421305Y-45933536D01*
X143183953Y-45819233D01*
X142932219Y-45741584D01*
X142671718Y-45702320D01*
X142408282Y-45702320D01*
X142147780Y-45741584D01*
X141896047Y-45819233D01*
X141658696Y-45933536D01*
X141488668Y-46049457D01*
X141488668Y-46049459D01*
X138511330Y-46049459D01*
X138511330Y-46049457D01*
X138341305Y-45933536D01*
X138103953Y-45819233D01*
X137852219Y-45741584D01*
X137591718Y-45702320D01*
X137328282Y-45702320D01*
X137067780Y-45741584D01*
X136816047Y-45819233D01*
X136578696Y-45933536D01*
X136408668Y-46049457D01*
X136408668Y-46049459D01*
X135000500Y-46049459D01*
X135000500Y-41550073D01*
X136309134Y-41550073D01*
X136322885Y-41563099D01*
X136612767Y-41783462D01*
X136924778Y-41971193D01*
X137255249Y-42124085D01*
X137600319Y-42240353D01*
X137955939Y-42318630D01*
X138317931Y-42358000D01*
X138682069Y-42358000D01*
X139044060Y-42318630D01*
X139399680Y-42240353D01*
X139744750Y-42124085D01*
X140075221Y-41971193D01*
X140387232Y-41783462D01*
X140677115Y-41563098D01*
X140690865Y-41550074D01*
X140690864Y-41550073D01*
X179309134Y-41550073D01*
X179322885Y-41563099D01*
X179612767Y-41783462D01*
X179924778Y-41971193D01*
X180255249Y-42124085D01*
X180600319Y-42240353D01*
X180955939Y-42318630D01*
X181317931Y-42358000D01*
X181682069Y-42358000D01*
X182044060Y-42318630D01*
X182399680Y-42240353D01*
X182744750Y-42124085D01*
X183075221Y-41971193D01*
X183387232Y-41783462D01*
X183677115Y-41563098D01*
X183690865Y-41550074D01*
X181500001Y-39359210D01*
X181499999Y-39359210D01*
X179309134Y-41550073D01*
X140690864Y-41550073D01*
X138500001Y-39359210D01*
X138499999Y-39359210D01*
X136309134Y-41550073D01*
X135000500Y-41550073D01*
X135000500Y-39872672D01*
X135014649Y-39814660D01*
X135053919Y-39769677D01*
X135109490Y-39747825D01*
X135168881Y-39754013D01*
X135218754Y-39786851D01*
X135247907Y-39838963D01*
X135313105Y-40073785D01*
X135447886Y-40412057D01*
X135618447Y-40733771D01*
X135822795Y-41035163D01*
X135952695Y-41188093D01*
X138140790Y-39000001D01*
X138859210Y-39000001D01*
X141047302Y-41188093D01*
X141047303Y-41188093D01*
X141177204Y-41035163D01*
X141381552Y-40733771D01*
X141552113Y-40412057D01*
X141686894Y-40073785D01*
X141784309Y-39722930D01*
X141843217Y-39363597D01*
X141862932Y-38999999D01*
X178137067Y-38999999D01*
X178156782Y-39363597D01*
X178215690Y-39722930D01*
X178313105Y-40073785D01*
X178447886Y-40412057D01*
X178618447Y-40733771D01*
X178822795Y-41035163D01*
X178952695Y-41188093D01*
X181140790Y-39000001D01*
X181140790Y-38999999D01*
X178952696Y-36811905D01*
X178822795Y-36964837D01*
X178618447Y-37266228D01*
X178447886Y-37587942D01*
X178313105Y-37926214D01*
X178215690Y-38277069D01*
X178156782Y-38636402D01*
X178137067Y-38999999D01*
X141862932Y-38999999D01*
X141843217Y-38636402D01*
X141784309Y-38277069D01*
X141686894Y-37926214D01*
X141552113Y-37587942D01*
X141381552Y-37266228D01*
X141177204Y-36964836D01*
X141047302Y-36811905D01*
X138859210Y-38999999D01*
X138859210Y-39000001D01*
X138140790Y-39000001D01*
X138140790Y-38999999D01*
X135952696Y-36811905D01*
X135822795Y-36964837D01*
X135618447Y-37266228D01*
X135447886Y-37587942D01*
X135313105Y-37926214D01*
X135247907Y-38161037D01*
X135218754Y-38213149D01*
X135168881Y-38245987D01*
X135109490Y-38252175D01*
X135053919Y-38230323D01*
X135014649Y-38185340D01*
X135000500Y-38127328D01*
X135000500Y-36449924D01*
X136309133Y-36449924D01*
X138499999Y-38640790D01*
X138500001Y-38640790D01*
X140690865Y-36449924D01*
X179309133Y-36449924D01*
X181499999Y-38640790D01*
X181500001Y-38640790D01*
X183690865Y-36449924D01*
X183690864Y-36449923D01*
X183677119Y-36436903D01*
X183387232Y-36216537D01*
X183075221Y-36028806D01*
X182744750Y-35875914D01*
X182399680Y-35759646D01*
X182044060Y-35681369D01*
X181682069Y-35642000D01*
X181317931Y-35642000D01*
X180955939Y-35681369D01*
X180600319Y-35759646D01*
X180255249Y-35875914D01*
X179924778Y-36028806D01*
X179612767Y-36216537D01*
X179322881Y-36436903D01*
X179309133Y-36449923D01*
X179309133Y-36449924D01*
X140690865Y-36449924D01*
X140690864Y-36449923D01*
X140677119Y-36436903D01*
X140387232Y-36216537D01*
X140075221Y-36028806D01*
X139744750Y-35875914D01*
X139399680Y-35759646D01*
X139044060Y-35681369D01*
X138682069Y-35642000D01*
X138317931Y-35642000D01*
X137955939Y-35681369D01*
X137600319Y-35759646D01*
X137255249Y-35875914D01*
X136924778Y-36028806D01*
X136612767Y-36216537D01*
X136322881Y-36436903D01*
X136309133Y-36449923D01*
X136309133Y-36449924D01*
X135000500Y-36449924D01*
X135000500Y-35126500D01*
X135017381Y-35063500D01*
X135063500Y-35017381D01*
X135126500Y-35000500D01*
X184873500Y-35000500D01*
X184936500Y-35017381D01*
G37*
G04 #@! TD.AperFunction*
G04 #@! TA.AperFunction,Conductor*
G36*
X184936500Y-35017381D02*
G01*
X184982619Y-35063500D01*
X184999500Y-35126500D01*
X184999500Y-91873500D01*
X184982619Y-91936500D01*
X184936500Y-91982619D01*
X184873500Y-91999500D01*
X135126500Y-91999500D01*
X135063500Y-91982619D01*
X135017381Y-91936500D01*
X135000500Y-91873500D01*
X135000500Y-79140939D01*
X138558863Y-79140939D01*
X138588221Y-79382720D01*
X138655983Y-79616662D01*
X138724297Y-79760631D01*
X138760394Y-79836705D01*
X138898752Y-80037150D01*
X139064664Y-80209882D01*
X139067469Y-80212802D01*
X139262179Y-80359117D01*
X139477839Y-80472304D01*
X139696803Y-80545405D01*
X139708865Y-80549432D01*
X139949263Y-80588500D01*
X139949265Y-80588500D01*
X142536310Y-80588500D01*
X142584528Y-80598091D01*
X142625405Y-80625405D01*
X143999998Y-81999999D01*
X144000000Y-82000000D01*
X156999998Y-82000000D01*
X157000000Y-82000000D01*
X159465486Y-80027610D01*
X159502491Y-80007103D01*
X159544198Y-80000000D01*
X160455802Y-80000000D01*
X160497509Y-80007103D01*
X160534513Y-80027610D01*
X163000000Y-82000000D01*
X176000000Y-82000000D01*
X177454595Y-80545405D01*
X177495472Y-80518091D01*
X177543690Y-80508500D01*
X180060802Y-80508500D01*
X180143511Y-80501822D01*
X180242768Y-80493810D01*
X180479248Y-80435523D01*
X180703316Y-80340056D01*
X180909168Y-80209883D01*
X181091474Y-80048375D01*
X181245510Y-79859714D01*
X181367289Y-79648787D01*
X181453656Y-79421057D01*
X181502374Y-79182421D01*
X181512181Y-78939061D01*
X181482823Y-78697280D01*
X181415061Y-78463338D01*
X181310650Y-78243296D01*
X181294767Y-78220286D01*
X181172291Y-78042849D01*
X181003579Y-77867202D01*
X181003578Y-77867201D01*
X181003575Y-77867198D01*
X180808865Y-77720883D01*
X180808861Y-77720881D01*
X180808860Y-77720880D01*
X180593208Y-77607697D01*
X180362178Y-77530567D01*
X180121781Y-77491500D01*
X180121779Y-77491500D01*
X177561766Y-77491500D01*
X177502312Y-77476591D01*
X177456928Y-77435392D01*
X176500001Y-76000000D01*
X176500000Y-76000000D01*
X163000000Y-76000000D01*
X160665998Y-77867202D01*
X160534514Y-77972389D01*
X160497509Y-77992897D01*
X160455802Y-78000000D01*
X159544198Y-78000000D01*
X159502491Y-77992897D01*
X159465486Y-77972389D01*
X159334002Y-77867202D01*
X157000000Y-76000000D01*
X144000000Y-76000000D01*
X143999998Y-76000000D01*
X142495193Y-77504805D01*
X142475289Y-77534595D01*
X142434411Y-77561909D01*
X142386193Y-77571500D01*
X140010242Y-77571500D01*
X139828281Y-77586189D01*
X139828277Y-77586189D01*
X139828276Y-77586190D01*
X139741023Y-77607696D01*
X139591792Y-77644478D01*
X139367727Y-77739944D01*
X139161874Y-77870117D01*
X138979571Y-78031623D01*
X138825534Y-78220285D01*
X138703756Y-78431210D01*
X138617388Y-78658942D01*
X138609561Y-78697280D01*
X138568670Y-78897579D01*
X138558863Y-79140939D01*
X135000500Y-79140939D01*
X135000500Y-65060939D01*
X138487819Y-65060939D01*
X138517177Y-65302720D01*
X138584939Y-65536662D01*
X138638143Y-65648787D01*
X138689350Y-65756705D01*
X138827708Y-65957150D01*
X138996420Y-66132797D01*
X138996425Y-66132802D01*
X139191135Y-66279117D01*
X139406795Y-66392304D01*
X139637818Y-66469431D01*
X139637821Y-66469432D01*
X139878219Y-66508500D01*
X139878221Y-66508500D01*
X143874000Y-66508500D01*
X143937000Y-66525381D01*
X143983119Y-66571500D01*
X144000000Y-66634500D01*
X144000000Y-68500000D01*
X160000000Y-68500000D01*
X176000000Y-68500000D01*
X176000000Y-67067433D01*
X176014909Y-67007979D01*
X176056108Y-66962595D01*
X176705507Y-66529662D01*
X176738886Y-66513906D01*
X176775399Y-66508500D01*
X180060802Y-66508500D01*
X180143511Y-66501822D01*
X180242768Y-66493810D01*
X180479248Y-66435523D01*
X180703316Y-66340056D01*
X180909168Y-66209883D01*
X181091474Y-66048375D01*
X181245510Y-65859714D01*
X181367289Y-65648787D01*
X181453656Y-65421057D01*
X181502374Y-65182421D01*
X181512181Y-64939061D01*
X181482823Y-64697280D01*
X181415061Y-64463338D01*
X181310650Y-64243296D01*
X181239546Y-64140285D01*
X181172291Y-64042849D01*
X181003579Y-63867202D01*
X181003578Y-63867201D01*
X181003575Y-63867198D01*
X180808865Y-63720883D01*
X180808861Y-63720881D01*
X180808860Y-63720880D01*
X180593208Y-63607697D01*
X180362178Y-63530567D01*
X180121781Y-63491500D01*
X180121779Y-63491500D01*
X176126000Y-63491500D01*
X176063000Y-63474619D01*
X176016881Y-63428500D01*
X176000000Y-63365500D01*
X176000000Y-61500000D01*
X160000000Y-61500000D01*
X144000000Y-61500000D01*
X144000000Y-62932567D01*
X143985091Y-62992021D01*
X143943892Y-63037405D01*
X143294493Y-63470338D01*
X143261114Y-63486094D01*
X143224601Y-63491500D01*
X139939198Y-63491500D01*
X139757237Y-63506189D01*
X139757233Y-63506189D01*
X139757232Y-63506190D01*
X139520752Y-63564477D01*
X139520748Y-63564478D01*
X139296683Y-63659944D01*
X139090830Y-63790117D01*
X138908527Y-63951623D01*
X138754490Y-64140285D01*
X138632712Y-64351210D01*
X138632710Y-64351213D01*
X138632711Y-64351213D01*
X138546344Y-64578943D01*
X138497626Y-64817579D01*
X138487819Y-65060939D01*
X135000500Y-65060939D01*
X135000500Y-50060939D01*
X138487819Y-50060939D01*
X138517177Y-50302720D01*
X138584939Y-50536662D01*
X138638143Y-50648787D01*
X138689350Y-50756705D01*
X138827708Y-50957150D01*
X138996420Y-51132797D01*
X138996425Y-51132802D01*
X139191135Y-51279117D01*
X139406795Y-51392304D01*
X139637818Y-51469431D01*
X139637821Y-51469432D01*
X139878219Y-51508500D01*
X139878221Y-51508500D01*
X142456310Y-51508500D01*
X142504528Y-51518091D01*
X142545405Y-51545405D01*
X142978966Y-51978966D01*
X143009405Y-52028216D01*
X143499999Y-53499999D01*
X143500000Y-53500000D01*
X160000000Y-53500000D01*
X176000000Y-53500000D01*
X176000000Y-52067433D01*
X176014909Y-52007979D01*
X176056108Y-51962595D01*
X176705507Y-51529662D01*
X176738886Y-51513906D01*
X176775399Y-51508500D01*
X180060802Y-51508500D01*
X180143511Y-51501822D01*
X180242768Y-51493810D01*
X180479248Y-51435523D01*
X180703316Y-51340056D01*
X180909168Y-51209883D01*
X181091474Y-51048375D01*
X181245510Y-50859714D01*
X181367289Y-50648787D01*
X181453656Y-50421057D01*
X181502374Y-50182421D01*
X181512181Y-49939061D01*
X181482823Y-49697280D01*
X181415061Y-49463338D01*
X181310650Y-49243296D01*
X181239546Y-49140285D01*
X181172291Y-49042849D01*
X181003579Y-48867202D01*
X181003578Y-48867201D01*
X181003575Y-48867198D01*
X180808865Y-48720883D01*
X180808861Y-48720881D01*
X180808860Y-48720880D01*
X180593208Y-48607697D01*
X180362178Y-48530567D01*
X180121781Y-48491500D01*
X180121779Y-48491500D01*
X176126000Y-48491500D01*
X176063000Y-48474619D01*
X176016881Y-48428500D01*
X176000000Y-48365500D01*
X176000000Y-46500000D01*
X160000000Y-46500000D01*
X143500000Y-46500000D01*
X143009405Y-47971783D01*
X142978966Y-48021033D01*
X142545402Y-48454597D01*
X142504528Y-48481909D01*
X142456310Y-48491500D01*
X139939198Y-48491500D01*
X139757237Y-48506189D01*
X139757233Y-48506189D01*
X139757232Y-48506190D01*
X139520752Y-48564477D01*
X139520748Y-48564478D01*
X139296683Y-48659944D01*
X139090830Y-48790117D01*
X138908527Y-48951623D01*
X138754490Y-49140285D01*
X138632712Y-49351210D01*
X138632710Y-49351213D01*
X138632711Y-49351213D01*
X138546344Y-49578943D01*
X138497626Y-49817579D01*
X138487819Y-50060939D01*
X135000500Y-50060939D01*
X135000500Y-35126500D01*
X135017381Y-35063500D01*
X135063500Y-35017381D01*
X135126500Y-35000500D01*
X184873500Y-35000500D01*
X184936500Y-35017381D01*
G37*
G04 #@! TD.AperFunction*
M02*
