G04 #@! TF.GenerationSoftware,KiCad,Pcbnew,7.0.1*
G04 #@! TF.CreationDate,2023-04-16T22:07:55+02:00*
G04 #@! TF.ProjectId,aliasing,616c6961-7369-46e6-972e-6b696361645f,rev?*
G04 #@! TF.SameCoordinates,Original*
G04 #@! TF.FileFunction,Soldermask,Bot*
G04 #@! TF.FilePolarity,Negative*
%FSLAX46Y46*%
G04 Gerber Fmt 4.6, Leading zero omitted, Abs format (unit mm)*
G04 Created by KiCad (PCBNEW 7.0.1) date 2023-04-16 22:07:55*
%MOMM*%
%LPD*%
G01*
G04 APERTURE LIST*
G04 Aperture macros list*
%AMRoundRect*
0 Rectangle with rounded corners*
0 $1 Rounding radius*
0 $2 $3 $4 $5 $6 $7 $8 $9 X,Y pos of 4 corners*
0 Add a 4 corners polygon primitive as box body*
4,1,4,$2,$3,$4,$5,$6,$7,$8,$9,$2,$3,0*
0 Add four circle primitives for the rounded corners*
1,1,$1+$1,$2,$3*
1,1,$1+$1,$4,$5*
1,1,$1+$1,$6,$7*
1,1,$1+$1,$8,$9*
0 Add four rect primitives between the rounded corners*
20,1,$1+$1,$2,$3,$4,$5,0*
20,1,$1+$1,$4,$5,$6,$7,0*
20,1,$1+$1,$6,$7,$8,$9,0*
20,1,$1+$1,$8,$9,$2,$3,0*%
G04 Aperture macros list end*
%ADD10C,0.610000*%
%ADD11C,1.998980*%
%ADD12C,2.499360*%
%ADD13C,5.700000*%
%ADD14RoundRect,0.112500X0.112500X-0.187500X0.112500X0.187500X-0.112500X0.187500X-0.112500X-0.187500X0*%
G04 APERTURE END LIST*
D10*
X158800000Y-77250000D03*
X159000000Y-80500000D03*
X161000000Y-77300000D03*
X161100000Y-80500000D03*
D11*
X180000000Y-50000000D03*
D12*
X177460000Y-47460000D03*
X177460000Y-52540000D03*
X182540000Y-47460000D03*
X182540000Y-52540000D03*
D11*
X140000000Y-50000000D03*
D12*
X142540000Y-52540000D03*
X142540000Y-47460000D03*
X137460000Y-52540000D03*
X137460000Y-47460000D03*
D13*
X181500000Y-39000000D03*
D11*
X140000000Y-65000000D03*
D12*
X142540000Y-67540000D03*
X142540000Y-62460000D03*
X137460000Y-67540000D03*
X137460000Y-62460000D03*
D13*
X181500000Y-88000000D03*
X138500000Y-88000000D03*
D11*
X140071044Y-79080000D03*
D12*
X142611044Y-81620000D03*
X142611044Y-76540000D03*
X137531044Y-81620000D03*
X137531044Y-76540000D03*
D13*
X138500000Y-39000000D03*
D11*
X180000000Y-65000000D03*
D12*
X177460000Y-62460000D03*
X177460000Y-67540000D03*
X182540000Y-62460000D03*
X182540000Y-67540000D03*
D11*
X180000000Y-79000000D03*
D12*
X177460000Y-76460000D03*
X177460000Y-81540000D03*
X182540000Y-76460000D03*
X182540000Y-81540000D03*
D14*
X180000000Y-53050000D03*
X180000000Y-50950000D03*
X180000000Y-68000000D03*
X180000000Y-65900000D03*
M02*
