M48
; DRILL file {KiCad (6.0.0)} date Fri Jul 22 11:55:13 2022
; FORMAT={-:-/ absolute / metric / decimal}
; #@! TF.CreationDate,2022-07-22T11:55:13+02:00
; #@! TF.GenerationSoftware,Kicad,Pcbnew,(6.0.0)
; #@! TF.FileFunction,Plated,1,2,PTH
FMAT,2
METRIC
; #@! TA.AperFunction,Plated,PTH,ComponentDrill
T1C0.300
; #@! TA.AperFunction,Plated,PTH,ViaDrill
T2C0.400
; #@! TA.AperFunction,Plated,PTH,ComponentDrill
T3C0.508
; #@! TA.AperFunction,Plated,PTH,ComponentDrill
T4C1.300
; #@! TA.AperFunction,Plated,PTH,ComponentDrill
T5C3.200
%
G90
G05
T1
X158.8Y-77.25
X159.0Y-80.5
X161.0Y-77.3
X161.1Y-80.5
T2
X136.0Y-45.0
X136.0Y-55.0
X136.0Y-60.5
X136.0Y-69.5
X136.0Y-84.0
X137.5Y-45.0
X137.5Y-55.0
X137.5Y-60.5
X137.5Y-69.5
X137.5Y-84.0
X139.0Y-45.0
X139.0Y-55.0
X139.0Y-60.5
X139.0Y-69.5
X139.0Y-84.0
X140.5Y-45.0
X140.5Y-55.0
X140.5Y-60.5
X140.5Y-69.5
X140.5Y-84.0
X142.0Y-45.0
X142.0Y-55.0
X142.0Y-60.5
X142.0Y-69.5
X142.0Y-84.0
X143.5Y-45.0
X143.5Y-55.0
X143.5Y-60.5
X143.5Y-69.5
X144.5Y-75.5
X144.5Y-82.5
X145.0Y-45.0
X145.0Y-55.0
X145.0Y-60.5
X145.0Y-69.5
X145.5Y-82.5
X146.0Y-75.5
X146.5Y-45.0
X146.5Y-55.0
X146.5Y-60.5
X146.5Y-69.5
X147.0Y-82.5
X147.5Y-56.0
X147.5Y-59.0
X147.5Y-71.5
X147.5Y-75.5
X148.0Y-44.0
X148.0Y-57.5
X148.0Y-73.0
X148.5Y-82.5
X149.0Y-75.5
X149.5Y-44.0
X149.5Y-57.5
X149.5Y-73.0
X150.0Y-82.5
X150.5Y-75.5
X151.0Y-44.0
X151.0Y-57.5
X151.0Y-73.0
X151.5Y-82.5
X152.0Y-75.5
X152.5Y-44.0
X152.5Y-57.5
X152.5Y-73.0
X153.0Y-82.5
X153.5Y-75.5
X154.0Y-44.0
X154.0Y-57.5
X154.0Y-73.0
X154.5Y-82.5
X155.0Y-75.5
X155.5Y-44.0
X155.5Y-57.5
X155.5Y-73.0
X156.0Y-82.5
X156.5Y-75.5
X157.0Y-44.0
X157.0Y-57.5
X157.0Y-73.0
X157.5Y-82.5
X158.3Y-76.4
X158.5Y-44.0
X158.5Y-57.5
X158.5Y-73.0
X158.5Y-75.5
X158.5Y-81.5
X159.0Y-82.5
X160.0Y-44.0
X160.0Y-57.5
X160.0Y-73.0
X160.0Y-75.5
X160.0Y-76.5
X160.0Y-81.5
X160.5Y-82.5
X161.5Y-44.0
X161.5Y-57.5
X161.5Y-73.0
X161.5Y-75.5
X161.5Y-81.5
X161.6Y-76.4
X162.0Y-82.5
X163.0Y-44.0
X163.0Y-57.5
X163.0Y-73.0
X163.5Y-75.5
X163.5Y-82.5
X164.5Y-44.0
X164.5Y-57.5
X164.5Y-73.0
X165.0Y-75.5
X165.0Y-82.5
X166.0Y-44.0
X166.0Y-57.5
X166.0Y-73.0
X166.5Y-75.5
X166.5Y-82.5
X167.5Y-44.0
X167.5Y-57.5
X167.5Y-73.0
X168.0Y-75.5
X168.0Y-82.5
X169.0Y-44.0
X169.0Y-57.5
X169.0Y-73.0
X169.5Y-75.5
X169.5Y-82.5
X170.5Y-44.0
X170.5Y-57.5
X170.5Y-73.0
X171.0Y-75.5
X171.0Y-82.5
X172.0Y-44.0
X172.0Y-57.5
X172.0Y-73.0
X172.5Y-75.5
X172.5Y-82.5
X173.0Y-56.0
X173.0Y-59.0
X173.0Y-71.5
X173.5Y-45.0
X173.5Y-54.5
X173.5Y-60.5
X173.5Y-69.5
X174.0Y-75.5
X174.0Y-82.5
X175.0Y-45.0
X175.0Y-54.5
X175.0Y-60.5
X175.0Y-69.5
X175.5Y-75.5
X175.5Y-82.5
X176.5Y-45.0
X176.5Y-54.5
X176.5Y-60.5
X176.5Y-69.5
X176.5Y-84.0
X178.0Y-45.0
X178.0Y-54.5
X178.0Y-60.5
X178.0Y-69.5
X178.0Y-84.0
X179.5Y-45.0
X179.5Y-54.5
X179.5Y-60.5
X179.5Y-69.5
X179.5Y-84.0
X181.0Y-45.0
X181.0Y-54.5
X181.0Y-60.5
X181.0Y-69.5
X181.0Y-84.0
X182.5Y-45.0
X182.5Y-54.5
X182.5Y-60.5
X182.5Y-69.5
X182.5Y-84.0
X184.0Y-45.0
X184.0Y-54.5
X184.0Y-60.5
X184.0Y-69.5
X184.0Y-84.0
T3
X148.991Y-45.555
X148.991Y-54.445
X149.055Y-60.555
X149.055Y-69.445
X152.166Y-48.73
X152.166Y-51.27
X152.23Y-63.73
X152.23Y-66.27
X154.706Y-48.73
X154.706Y-51.27
X154.77Y-63.73
X154.77Y-66.27
X157.881Y-45.555
X157.881Y-54.445
X157.945Y-60.555
X157.945Y-69.445
X161.872Y-45.555
X161.872Y-54.445
X162.055Y-60.555
X162.055Y-69.445
X165.047Y-48.73
X165.047Y-51.27
X165.23Y-63.73
X165.23Y-66.27
X167.587Y-48.73
X167.587Y-51.27
X167.77Y-63.73
X167.77Y-66.27
X170.762Y-45.555
X170.762Y-54.445
X170.945Y-60.555
X170.945Y-69.445
T4
X136.46Y-47.46
X136.46Y-52.54
X137.46Y-62.46
X137.46Y-67.54
X137.531Y-76.54
X137.531Y-81.62
X139.0Y-50.0
X140.0Y-65.0
X140.071Y-79.08
X141.54Y-47.46
X141.54Y-52.54
X142.54Y-62.46
X142.54Y-67.54
X142.611Y-76.54
X142.611Y-81.62
X177.46Y-47.46
X177.46Y-52.54
X177.46Y-62.46
X177.46Y-67.54
X177.46Y-76.46
X177.46Y-81.54
X180.0Y-50.0
X180.0Y-65.0
X180.0Y-79.0
X182.54Y-47.46
X182.54Y-52.54
X182.54Y-62.46
X182.54Y-67.54
X182.54Y-76.46
X182.54Y-81.54
T5
X138.0Y-39.5
X138.5Y-88.0
X181.5Y-39.0
X181.5Y-88.0
T0
M30
